<ttFont>
<head>
    <!-- Most of this table will be recalculated by the compiler -->
    <tableVersion value="1.0"/>
    <fontRevision value="1.0"/>
    <checkSumAdjustment value="0x81840ea2"/>
    <magicNumber value="0x5f0f3cf5"/>
    <flags value="00000000 00011011"/>
    <unitsPerEm value="1000"/>
    <created value="Sat Dec  6 13:43:38 2025"/>
    <modified value="Sat Dec  6 13:47:04 2025"/>
    <xMin value="-26"/>
    <yMin value="-232"/>
    <xMax value="545"/>
    <yMax value="694"/>
    <macStyle value="00000000 00000000"/>
    <lowestRecPPEM value="6"/>
    <fontDirectionHint value="2"/>
    <indexToLocFormat value="0"/>
    <glyphDataFormat value="0"/>
  </head>
    <TTGlyph name="A" xMin="28" yMin="0" xMax="502" yMax="626">
      <contour>
        <pt x="442" y="66" on="1"/>
        <pt x="453" y="66" on="0"/>
        <pt x="480" y="65" on="0"/>
        <pt x="486" y="62" on="1"/>
        <pt x="496" y="56" on="0"/>
        <pt x="502" y="38" on="0"/>
        <pt x="502" y="33" on="1"/>
        <pt x="502" y="21" on="0"/>
        <pt x="492" y="7" on="0"/>
        <pt x="478" y="1" on="0"/>
        <pt x="462" y="0" on="0"/>
        <pt x="456" y="0" on="1"/>
        <pt x="354" y="0" on="1"/>
        <pt x="348" y="0" on="0"/>
        <pt x="332" y="1" on="0"/>
        <pt x="318" y="7" on="0"/>
        <pt x="308" y="21" on="0"/>
        <pt x="308" y="33" on="1"/>
        <pt x="308" y="45" on="0"/>
        <pt x="317" y="59" on="0"/>
        <pt x="333" y="65" on="0"/>
        <pt x="353" y="66" on="0"/>
        <pt x="364" y="66" on="1"/>
        <pt x="344" y="157" on="1"/>
        <pt x="186" y="157" on="1"/>
        <pt x="166" y="66" on="1"/>
        <pt x="177" y="66" on="0"/>
        <pt x="197" y="65" on="0"/>
        <pt x="213" y="59" on="0"/>
        <pt x="222" y="45" on="0"/>
        <pt x="222" y="33" on="1"/>
        <pt x="222" y="21" on="0"/>
        <pt x="212" y="7" on="0"/>
        <pt x="198" y="1" on="0"/>
        <pt x="182" y="0" on="0"/>
        <pt x="176" y="0" on="1"/>
        <pt x="74" y="0" on="1"/>
        <pt x="68" y="0" on="0"/>
        <pt x="52" y="1" on="0"/>
        <pt x="38" y="7" on="0"/>
        <pt x="28" y="21" on="0"/>
        <pt x="28" y="33" on="1"/>
        <pt x="28" y="41" on="0"/>
        <pt x="36" y="58" on="0"/>
        <pt x="46" y="63" on="1"/>
        <pt x="51" y="65" on="0"/>
        <pt x="77" y="66" on="0"/>
        <pt x="88" y="66" on="1"/>
        <pt x="207" y="586" on="1"/>
        <pt x="214" y="616" on="0"/>
        <pt x="243" y="626" on="0"/>
        <pt x="265" y="626" on="1"/>
        <pt x="276" y="626" on="0"/>
        <pt x="295" y="625" on="0"/>
        <pt x="309" y="617" on="0"/>
        <pt x="320" y="600" on="0"/>
        <pt x="323" y="585" on="1"/>
      </contour>
      <contour>
        <pt x="279" y="451" on="1"/>
        <pt x="274" y="476" on="0"/>
        <pt x="268" y="509" on="0"/>
        <pt x="266" y="535" on="1"/>
        <pt x="264" y="535" on="1"/>
        <pt x="263" y="522" on="0"/>
        <pt x="259" y="494" on="0"/>
        <pt x="252" y="458" on="0"/>
        <pt x="242" y="411" on="0"/>
        <pt x="235" y="378" on="1"/>
        <pt x="234" y="372" on="0"/>
        <pt x="227" y="337" on="0"/>
        <pt x="217" y="292" on="0"/>
        <pt x="206" y="243" on="0"/>
        <pt x="201" y="223" on="1"/>
        <pt x="328" y="223" on="1"/>
      </contour>
    </TTGlyph>
    <TTGlyph name="B" xMin="22" yMin="0" xMax="487" yMax="611">
      <contour>
        <pt x="291" y="611" on="1"/>
        <pt x="335" y="611" on="0"/>
        <pt x="401" y="582" on="0"/>
        <pt x="444" y="537" on="0"/>
        <pt x="466" y="482" on="0"/>
        <pt x="466" y="455" on="1"/>
        <pt x="466" y="407" on="0"/>
        <pt x="405" y="336" on="0"/>
        <pt x="359" y="320" on="1"/>
        <pt x="386" y="314" on="0"/>
        <pt x="433" y="286" on="0"/>
        <pt x="467" y="246" on="0"/>
        <pt x="487" y="196" on="0"/>
        <pt x="487" y="168" on="1"/>
        <pt x="487" y="141" on="0"/>
        <pt x="466" y="81" on="0"/>
        <pt x="423" y="32" on="0"/>
        <pt x="356" y="0" on="0"/>
        <pt x="311" y="0" on="1"/>
        <pt x="68" y="0" on="1"/>
        <pt x="62" y="0" on="0"/>
        <pt x="46" y="1" on="0"/>
        <pt x="32" y="7" on="0"/>
        <pt x="22" y="21" on="0"/>
        <pt x="22" y="33" on="1"/>
        <pt x="22" y="45" on="0"/>
        <pt x="32" y="59" on="0"/>
        <pt x="46" y="65" on="0"/>
        <pt x="62" y="66" on="0"/>
        <pt x="68" y="66" on="1"/>
        <pt x="90" y="66" on="1"/>
        <pt x="90" y="545" on="1"/>
        <pt x="68" y="545" on="1"/>
        <pt x="62" y="545" on="0"/>
        <pt x="46" y="546" on="0"/>
        <pt x="32" y="552" on="0"/>
        <pt x="22" y="566" on="0"/>
        <pt x="22" y="578" on="1"/>
        <pt x="22" y="590" on="0"/>
        <pt x="32" y="604" on="0"/>
        <pt x="46" y="610" on="0"/>
        <pt x="62" y="611" on="0"/>
        <pt x="68" y="611" on="1"/>
      </contour>
      <contour>
        <pt x="270" y="351" on="1"/>
        <pt x="304" y="351" on="0"/>
        <pt x="350" y="372" on="0"/>
        <pt x="378" y="404" on="0"/>
        <pt x="390" y="439" on="0"/>
        <pt x="390" y="454" on="1"/>
        <pt x="390" y="461" on="0"/>
        <pt x="384" y="491" on="0"/>
        <pt x="363" y="522" on="0"/>
        <pt x="322" y="545" on="0"/>
        <pt x="287" y="545" on="1"/>
        <pt x="166" y="545" on="1"/>
        <pt x="166" y="351" on="1"/>
      </contour>
      <contour>
        <pt x="288" y="66" on="1"/>
        <pt x="324" y="66" on="0"/>
        <pt x="371" y="88" on="0"/>
        <pt x="399" y="119" on="0"/>
        <pt x="411" y="155" on="0"/>
        <pt x="411" y="170" on="1"/>
        <pt x="411" y="191" on="0"/>
        <pt x="395" y="236" on="0"/>
        <pt x="378" y="253" on="1"/>
        <pt x="355" y="277" on="0"/>
        <pt x="312" y="285" on="0"/>
        <pt x="294" y="285" on="1"/>
        <pt x="166" y="285" on="1"/>
        <pt x="166" y="66" on="1"/>
      </contour>
    </TTGlyph>
    <TTGlyph name="C" xMin="41" yMin="-10" xMax="489" yMax="621">
      <contour>
        <pt x="489" y="443" on="1"/>
        <pt x="489" y="435" on="0"/>
        <pt x="488" y="419" on="0"/>
        <pt x="481" y="406" on="0"/>
        <pt x="465" y="398" on="0"/>
        <pt x="451" y="398" on="1"/>
        <pt x="426" y="398" on="0"/>
        <pt x="414" y="419" on="0"/>
        <pt x="412" y="434" on="1"/>
        <pt x="402" y="491" on="0"/>
        <pt x="332" y="555" on="0"/>
        <pt x="288" y="555" on="1"/>
        <pt x="255" y="555" on="0"/>
        <pt x="193" y="518" on="0"/>
        <pt x="146" y="452" on="0"/>
        <pt x="117" y="360" on="0"/>
        <pt x="117" y="305" on="1"/>
        <pt x="117" y="252" on="0"/>
        <pt x="145" y="161" on="0"/>
        <pt x="192" y="94" on="0"/>
        <pt x="255" y="56" on="0"/>
        <pt x="289" y="56" on="1"/>
        <pt x="308" y="56" on="0"/>
        <pt x="338" y="65" on="0"/>
        <pt x="360" y="77" on="0"/>
        <pt x="376" y="90" on="0"/>
        <pt x="380" y="93" on="1"/>
        <pt x="403" y="114" on="0"/>
        <pt x="412" y="162" on="0"/>
        <pt x="413" y="177" on="1"/>
        <pt x="415" y="194" on="0"/>
        <pt x="440" y="204" on="0"/>
        <pt x="451" y="204" on="1"/>
        <pt x="455" y="204" on="0"/>
        <pt x="468" y="203" on="0"/>
        <pt x="480" y="196" on="0"/>
        <pt x="489" y="182" on="0"/>
        <pt x="489" y="169" on="1"/>
        <pt x="489" y="134" on="0"/>
        <pt x="457" y="69" on="0"/>
        <pt x="402" y="20" on="0"/>
        <pt x="328" y="-10" on="0"/>
        <pt x="285" y="-10" on="1"/>
        <pt x="235" y="-10" on="0"/>
        <pt x="146" y="38" on="0"/>
        <pt x="80" y="123" on="0"/>
        <pt x="41" y="239" on="0"/>
        <pt x="41" y="306" on="1"/>
        <pt x="41" y="373" on="0"/>
        <pt x="80" y="488" on="0"/>
        <pt x="146" y="573" on="0"/>
        <pt x="235" y="621" on="0"/>
        <pt x="284" y="621" on="1"/>
        <pt x="315" y="621" on="0"/>
        <pt x="379" y="601" on="0"/>
        <pt x="411" y="577" on="1"/>
        <pt x="426" y="604" on="0"/>
        <pt x="440" y="621" on="0"/>
        <pt x="456" y="621" on="1"/>
        <pt x="468" y="621" on="0"/>
        <pt x="482" y="612" on="0"/>
        <pt x="488" y="598" on="0"/>
        <pt x="489" y="582" on="0"/>
        <pt x="489" y="576" on="1"/>
      </contour>
    </TTGlyph>
    <TTGlyph name="D" xMin="18" yMin="0" xMax="491" yMax="611">
      <contour>
        <pt x="267" y="611" on="1"/>
        <pt x="321" y="611" on="0"/>
        <pt x="404" y="557" on="0"/>
        <pt x="461" y="469" on="0"/>
        <pt x="491" y="358" on="0"/>
        <pt x="491" y="301" on="1"/>
        <pt x="491" y="244" on="0"/>
        <pt x="460" y="135" on="0"/>
        <pt x="403" y="51" on="0"/>
        <pt x="320" y="0" on="0"/>
        <pt x="267" y="0" on="1"/>
        <pt x="63" y="0" on="1"/>
        <pt x="56" y="0" on="0"/>
        <pt x="40" y="1" on="0"/>
        <pt x="27" y="7" on="0"/>
        <pt x="18" y="21" on="0"/>
        <pt x="18" y="33" on="1"/>
        <pt x="18" y="45" on="0"/>
        <pt x="27" y="59" on="0"/>
        <pt x="40" y="65" on="0"/>
        <pt x="56" y="66" on="0"/>
        <pt x="63" y="66" on="1"/>
        <pt x="80" y="66" on="1"/>
        <pt x="80" y="545" on="1"/>
        <pt x="63" y="545" on="1"/>
        <pt x="56" y="545" on="0"/>
        <pt x="40" y="546" on="0"/>
        <pt x="27" y="552" on="0"/>
        <pt x="18" y="566" on="0"/>
        <pt x="18" y="578" on="1"/>
        <pt x="18" y="590" on="0"/>
        <pt x="27" y="604" on="0"/>
        <pt x="40" y="610" on="0"/>
        <pt x="56" y="611" on="0"/>
        <pt x="63" y="611" on="1"/>
      </contour>
      <contour>
        <pt x="246" y="66" on="1"/>
        <pt x="291" y="66" on="0"/>
        <pt x="355" y="111" on="0"/>
        <pt x="396" y="180" on="0"/>
        <pt x="415" y="263" on="0"/>
        <pt x="415" y="301" on="1"/>
        <pt x="415" y="339" on="0"/>
        <pt x="397" y="425" on="0"/>
        <pt x="356" y="497" on="0"/>
        <pt x="292" y="545" on="0"/>
        <pt x="246" y="545" on="1"/>
        <pt x="156" y="545" on="1"/>
        <pt x="156" y="66" on="1"/>
      </contour>
    </TTGlyph>
    <TTGlyph name="E" xMin="25" yMin="0" xMax="508" yMax="611">
      <contour>
        <pt x="171" y="66" on="1"/>
        <pt x="432" y="66" on="1"/>
        <pt x="432" y="130" on="1"/>
        <pt x="432" y="147" on="0"/>
        <pt x="442" y="175" on="0"/>
        <pt x="470" y="175" on="1"/>
        <pt x="484" y="175" on="0"/>
        <pt x="500" y="167" on="0"/>
        <pt x="507" y="154" on="0"/>
        <pt x="508" y="138" on="0"/>
        <pt x="508" y="130" on="1"/>
        <pt x="508" y="45" on="1"/>
        <pt x="508" y="16" on="0"/>
        <pt x="490" y="0" on="0"/>
        <pt x="463" y="0" on="1"/>
        <pt x="70" y="0" on="1"/>
        <pt x="63" y="0" on="0"/>
        <pt x="48" y="1" on="0"/>
        <pt x="34" y="7" on="0"/>
        <pt x="25" y="21" on="0"/>
        <pt x="25" y="33" on="1"/>
        <pt x="25" y="45" on="0"/>
        <pt x="34" y="59" on="0"/>
        <pt x="48" y="65" on="0"/>
        <pt x="63" y="66" on="0"/>
        <pt x="70" y="66" on="1"/>
        <pt x="95" y="66" on="1"/>
        <pt x="95" y="545" on="1"/>
        <pt x="70" y="545" on="1"/>
        <pt x="63" y="545" on="0"/>
        <pt x="48" y="546" on="0"/>
        <pt x="34" y="552" on="0"/>
        <pt x="25" y="566" on="0"/>
        <pt x="25" y="578" on="1"/>
        <pt x="25" y="590" on="0"/>
        <pt x="34" y="604" on="0"/>
        <pt x="48" y="610" on="0"/>
        <pt x="63" y="611" on="0"/>
        <pt x="70" y="611" on="1"/>
        <pt x="441" y="611" on="1"/>
        <pt x="468" y="611" on="0"/>
        <pt x="486" y="594" on="0"/>
        <pt x="486" y="566" on="1"/>
        <pt x="486" y="496" on="1"/>
        <pt x="486" y="488" on="0"/>
        <pt x="485" y="472" on="0"/>
        <pt x="478" y="459" on="0"/>
        <pt x="462" y="451" on="0"/>
        <pt x="448" y="451" on="1"/>
        <pt x="434" y="451" on="0"/>
        <pt x="418" y="459" on="0"/>
        <pt x="411" y="472" on="0"/>
        <pt x="410" y="488" on="0"/>
        <pt x="410" y="496" on="1"/>
        <pt x="410" y="545" on="1"/>
        <pt x="171" y="545" on="1"/>
        <pt x="171" y="349" on="1"/>
        <pt x="297" y="349" on="1"/>
        <pt x="297" y="376" on="0"/>
        <pt x="307" y="405" on="0"/>
        <pt x="335" y="405" on="1"/>
        <pt x="349" y="405" on="0"/>
        <pt x="365" y="397" on="0"/>
        <pt x="372" y="384" on="0"/>
        <pt x="373" y="368" on="0"/>
        <pt x="373" y="360" on="1"/>
        <pt x="373" y="272" on="1"/>
        <pt x="373" y="264" on="0"/>
        <pt x="372" y="248" on="0"/>
        <pt x="365" y="235" on="0"/>
        <pt x="349" y="227" on="0"/>
        <pt x="335" y="227" on="1"/>
        <pt x="307" y="227" on="0"/>
        <pt x="297" y="256" on="0"/>
        <pt x="297" y="283" on="1"/>
        <pt x="171" y="283" on="1"/>
      </contour>
    </TTGlyph>
    <TTGlyph name="F" xMin="28" yMin="0" xMax="495" yMax="611">
      <contour>
        <pt x="177" y="66" on="1"/>
        <pt x="223" y="66" on="1"/>
        <pt x="229" y="66" on="0"/>
        <pt x="245" y="65" on="0"/>
        <pt x="259" y="59" on="0"/>
        <pt x="269" y="45" on="0"/>
        <pt x="269" y="33" on="1"/>
        <pt x="269" y="21" on="0"/>
        <pt x="259" y="7" on="0"/>
        <pt x="245" y="1" on="0"/>
        <pt x="229" y="0" on="0"/>
        <pt x="223" y="0" on="1"/>
        <pt x="73" y="0" on="1"/>
        <pt x="66" y="0" on="0"/>
        <pt x="51" y="1" on="0"/>
        <pt x="37" y="7" on="0"/>
        <pt x="28" y="21" on="0"/>
        <pt x="28" y="33" on="1"/>
        <pt x="28" y="45" on="0"/>
        <pt x="37" y="59" on="0"/>
        <pt x="50" y="65" on="0"/>
        <pt x="66" y="66" on="0"/>
        <pt x="73" y="66" on="1"/>
        <pt x="101" y="66" on="1"/>
        <pt x="101" y="545" on="1"/>
        <pt x="73" y="545" on="1"/>
        <pt x="66" y="545" on="0"/>
        <pt x="51" y="546" on="0"/>
        <pt x="37" y="552" on="0"/>
        <pt x="28" y="566" on="0"/>
        <pt x="28" y="578" on="1"/>
        <pt x="28" y="590" on="0"/>
        <pt x="37" y="604" on="0"/>
        <pt x="50" y="610" on="0"/>
        <pt x="66" y="611" on="0"/>
        <pt x="73" y="611" on="1"/>
        <pt x="450" y="611" on="1"/>
        <pt x="477" y="611" on="0"/>
        <pt x="495" y="594" on="0"/>
        <pt x="495" y="566" on="1"/>
        <pt x="495" y="496" on="1"/>
        <pt x="495" y="488" on="0"/>
        <pt x="494" y="472" on="0"/>
        <pt x="487" y="459" on="0"/>
        <pt x="471" y="451" on="0"/>
        <pt x="457" y="451" on="1"/>
        <pt x="443" y="451" on="0"/>
        <pt x="427" y="459" on="0"/>
        <pt x="420" y="472" on="0"/>
        <pt x="419" y="488" on="0"/>
        <pt x="419" y="496" on="1"/>
        <pt x="419" y="545" on="1"/>
        <pt x="177" y="545" on="1"/>
        <pt x="177" y="339" on="1"/>
        <pt x="307" y="339" on="1"/>
        <pt x="307" y="366" on="0"/>
        <pt x="317" y="395" on="0"/>
        <pt x="345" y="395" on="1"/>
        <pt x="359" y="395" on="0"/>
        <pt x="375" y="387" on="0"/>
        <pt x="382" y="374" on="0"/>
        <pt x="383" y="358" on="0"/>
        <pt x="383" y="350" on="1"/>
        <pt x="383" y="262" on="1"/>
        <pt x="383" y="254" on="0"/>
        <pt x="382" y="238" on="0"/>
        <pt x="375" y="225" on="0"/>
        <pt x="359" y="217" on="0"/>
        <pt x="345" y="217" on="1"/>
        <pt x="317" y="217" on="0"/>
        <pt x="307" y="246" on="0"/>
        <pt x="307" y="273" on="1"/>
        <pt x="177" y="273" on="1"/>
      </contour>
    </TTGlyph>
    <TTGlyph name="G" xMin="38" yMin="-10" xMax="501" yMax="621">
      <contour>
        <pt x="454" y="45" on="1"/>
        <pt x="454" y="37" on="0"/>
        <pt x="453" y="21" on="0"/>
        <pt x="446" y="8" on="0"/>
        <pt x="430" y="0" on="0"/>
        <pt x="416" y="0" on="1"/>
        <pt x="412" y="0" on="0"/>
        <pt x="399" y="1" on="0"/>
        <pt x="387" y="8" on="0"/>
        <pt x="378" y="23" on="0"/>
        <pt x="378" y="36" on="1"/>
        <pt x="363" y="22" on="0"/>
        <pt x="305" y="-10" on="0"/>
        <pt x="263" y="-10" on="1"/>
        <pt x="218" y="-10" on="0"/>
        <pt x="136" y="37" on="0"/>
        <pt x="75" y="121" on="0"/>
        <pt x="38" y="237" on="0"/>
        <pt x="38" y="306" on="1"/>
        <pt x="38" y="374" on="0"/>
        <pt x="74" y="489" on="0"/>
        <pt x="136" y="573" on="0"/>
        <pt x="218" y="621" on="0"/>
        <pt x="263" y="621" on="1"/>
        <pt x="290" y="621" on="0"/>
        <pt x="348" y="603" on="0"/>
        <pt x="378" y="580" on="1"/>
        <pt x="391" y="606" on="0"/>
        <pt x="407" y="621" on="0"/>
        <pt x="421" y="621" on="1"/>
        <pt x="433" y="621" on="0"/>
        <pt x="447" y="612" on="0"/>
        <pt x="453" y="598" on="0"/>
        <pt x="454" y="582" on="0"/>
        <pt x="454" y="576" on="1"/>
        <pt x="454" y="443" on="1"/>
        <pt x="454" y="435" on="0"/>
        <pt x="453" y="419" on="0"/>
        <pt x="446" y="406" on="0"/>
        <pt x="430" y="398" on="0"/>
        <pt x="416" y="398" on="1"/>
        <pt x="412" y="398" on="0"/>
        <pt x="400" y="399" on="0"/>
        <pt x="389" y="404" on="0"/>
        <pt x="380" y="416" on="0"/>
        <pt x="378" y="427" on="1"/>
        <pt x="372" y="467" on="0"/>
        <pt x="345" y="517" on="0"/>
        <pt x="313" y="545" on="0"/>
        <pt x="279" y="555" on="0"/>
        <pt x="267" y="555" on="1"/>
        <pt x="239" y="555" on="0"/>
        <pt x="184" y="519" on="0"/>
        <pt x="140" y="453" on="0"/>
        <pt x="114" y="361" on="0"/>
        <pt x="114" y="305" on="1"/>
        <pt x="114" y="251" on="0"/>
        <pt x="140" y="159" on="0"/>
        <pt x="182" y="93" on="0"/>
        <pt x="237" y="56" on="0"/>
        <pt x="266" y="56" on="1"/>
        <pt x="311" y="56" on="0"/>
        <pt x="368" y="140" on="0"/>
        <pt x="376" y="206" on="1"/>
        <pt x="338" y="206" on="1"/>
        <pt x="331" y="206" on="0"/>
        <pt x="316" y="207" on="0"/>
        <pt x="302" y="213" on="0"/>
        <pt x="293" y="227" on="0"/>
        <pt x="293" y="239" on="1"/>
        <pt x="293" y="251" on="0"/>
        <pt x="302" y="265" on="0"/>
        <pt x="315" y="271" on="0"/>
        <pt x="331" y="272" on="0"/>
        <pt x="338" y="272" on="1"/>
        <pt x="456" y="272" on="1"/>
        <pt x="463" y="272" on="0"/>
        <pt x="479" y="271" on="0"/>
        <pt x="492" y="265" on="0"/>
        <pt x="501" y="251" on="0"/>
        <pt x="501" y="239" on="1"/>
        <pt x="501" y="227" on="0"/>
        <pt x="493" y="213" on="0"/>
        <pt x="479" y="207" on="0"/>
        <pt x="462" y="206" on="0"/>
        <pt x="454" y="206" on="1"/>
      </contour>
    </TTGlyph>
    <TTGlyph name="H" xMin="20" yMin="0" xMax="510" yMax="611">
      <contour>
        <pt x="445" y="66" on="1"/>
        <pt x="464" y="66" on="1"/>
        <pt x="470" y="66" on="0"/>
        <pt x="486" y="65" on="0"/>
        <pt x="500" y="59" on="0"/>
        <pt x="510" y="45" on="0"/>
        <pt x="510" y="33" on="1"/>
        <pt x="510" y="21" on="0"/>
        <pt x="500" y="7" on="0"/>
        <pt x="486" y="1" on="0"/>
        <pt x="470" y="0" on="0"/>
        <pt x="464" y="0" on="1"/>
        <pt x="350" y="0" on="1"/>
        <pt x="344" y="0" on="0"/>
        <pt x="328" y="1" on="0"/>
        <pt x="314" y="7" on="0"/>
        <pt x="304" y="21" on="0"/>
        <pt x="304" y="33" on="1"/>
        <pt x="304" y="45" on="0"/>
        <pt x="314" y="59" on="0"/>
        <pt x="328" y="65" on="0"/>
        <pt x="344" y="66" on="0"/>
        <pt x="350" y="66" on="1"/>
        <pt x="369" y="66" on="1"/>
        <pt x="369" y="285" on="1"/>
        <pt x="161" y="285" on="1"/>
        <pt x="161" y="66" on="1"/>
        <pt x="180" y="66" on="1"/>
        <pt x="186" y="66" on="0"/>
        <pt x="202" y="65" on="0"/>
        <pt x="216" y="59" on="0"/>
        <pt x="226" y="45" on="0"/>
        <pt x="226" y="33" on="1"/>
        <pt x="226" y="21" on="0"/>
        <pt x="216" y="7" on="0"/>
        <pt x="202" y="1" on="0"/>
        <pt x="186" y="0" on="0"/>
        <pt x="180" y="0" on="1"/>
        <pt x="66" y="0" on="1"/>
        <pt x="60" y="0" on="0"/>
        <pt x="44" y="1" on="0"/>
        <pt x="30" y="7" on="0"/>
        <pt x="20" y="21" on="0"/>
        <pt x="20" y="33" on="1"/>
        <pt x="20" y="45" on="0"/>
        <pt x="30" y="59" on="0"/>
        <pt x="44" y="65" on="0"/>
        <pt x="60" y="66" on="0"/>
        <pt x="66" y="66" on="1"/>
        <pt x="85" y="66" on="1"/>
        <pt x="85" y="545" on="1"/>
        <pt x="66" y="545" on="1"/>
        <pt x="60" y="545" on="0"/>
        <pt x="44" y="546" on="0"/>
        <pt x="30" y="552" on="0"/>
        <pt x="20" y="566" on="0"/>
        <pt x="20" y="578" on="1"/>
        <pt x="20" y="590" on="0"/>
        <pt x="30" y="604" on="0"/>
        <pt x="44" y="610" on="0"/>
        <pt x="60" y="611" on="0"/>
        <pt x="66" y="611" on="1"/>
        <pt x="180" y="611" on="1"/>
        <pt x="186" y="611" on="0"/>
        <pt x="202" y="610" on="0"/>
        <pt x="216" y="604" on="0"/>
        <pt x="226" y="590" on="0"/>
        <pt x="226" y="578" on="1"/>
        <pt x="226" y="566" on="0"/>
        <pt x="216" y="552" on="0"/>
        <pt x="202" y="546" on="0"/>
        <pt x="186" y="545" on="0"/>
        <pt x="180" y="545" on="1"/>
        <pt x="161" y="545" on="1"/>
        <pt x="161" y="351" on="1"/>
        <pt x="369" y="351" on="1"/>
        <pt x="369" y="545" on="1"/>
        <pt x="350" y="545" on="1"/>
        <pt x="344" y="545" on="0"/>
        <pt x="328" y="546" on="0"/>
        <pt x="314" y="552" on="0"/>
        <pt x="304" y="566" on="0"/>
        <pt x="304" y="578" on="1"/>
        <pt x="304" y="590" on="0"/>
        <pt x="314" y="604" on="0"/>
        <pt x="328" y="610" on="0"/>
        <pt x="344" y="611" on="0"/>
        <pt x="350" y="611" on="1"/>
        <pt x="464" y="611" on="1"/>
        <pt x="470" y="611" on="0"/>
        <pt x="486" y="610" on="0"/>
        <pt x="500" y="604" on="0"/>
        <pt x="510" y="590" on="0"/>
        <pt x="510" y="578" on="1"/>
        <pt x="510" y="566" on="0"/>
        <pt x="500" y="552" on="0"/>
        <pt x="486" y="546" on="0"/>
        <pt x="470" y="545" on="0"/>
        <pt x="464" y="545" on="1"/>
        <pt x="445" y="545" on="1"/>
      </contour>
    </TTGlyph>
    <TTGlyph name="I" xMin="79" yMin="0" xMax="451" yMax="611">
      <contour>
        <pt x="303" y="66" on="1"/>
        <pt x="405" y="66" on="1"/>
        <pt x="411" y="66" on="0"/>
        <pt x="427" y="65" on="0"/>
        <pt x="441" y="59" on="0"/>
        <pt x="451" y="45" on="0"/>
        <pt x="451" y="33" on="1"/>
        <pt x="451" y="21" on="0"/>
        <pt x="441" y="7" on="0"/>
        <pt x="427" y="1" on="0"/>
        <pt x="411" y="0" on="0"/>
        <pt x="405" y="0" on="1"/>
        <pt x="125" y="0" on="1"/>
        <pt x="119" y="0" on="0"/>
        <pt x="103" y="1" on="0"/>
        <pt x="89" y="7" on="0"/>
        <pt x="79" y="21" on="0"/>
        <pt x="79" y="33" on="1"/>
        <pt x="79" y="45" on="0"/>
        <pt x="89" y="59" on="0"/>
        <pt x="103" y="65" on="0"/>
        <pt x="119" y="66" on="0"/>
        <pt x="125" y="66" on="1"/>
        <pt x="227" y="66" on="1"/>
        <pt x="227" y="545" on="1"/>
        <pt x="125" y="545" on="1"/>
        <pt x="119" y="545" on="0"/>
        <pt x="103" y="546" on="0"/>
        <pt x="89" y="552" on="0"/>
        <pt x="79" y="566" on="0"/>
        <pt x="79" y="578" on="1"/>
        <pt x="79" y="590" on="0"/>
        <pt x="89" y="604" on="0"/>
        <pt x="103" y="610" on="0"/>
        <pt x="119" y="611" on="0"/>
        <pt x="125" y="611" on="1"/>
        <pt x="405" y="611" on="1"/>
        <pt x="411" y="611" on="0"/>
        <pt x="427" y="610" on="0"/>
        <pt x="441" y="604" on="0"/>
        <pt x="451" y="590" on="0"/>
        <pt x="451" y="578" on="1"/>
        <pt x="451" y="566" on="0"/>
        <pt x="441" y="552" on="0"/>
        <pt x="427" y="546" on="0"/>
        <pt x="411" y="545" on="0"/>
        <pt x="405" y="545" on="1"/>
        <pt x="303" y="545" on="1"/>
      </contour>
    </TTGlyph>
    <TTGlyph name="J" xMin="65" yMin="-10" xMax="482" yMax="611">
      <contour>
        <pt x="412" y="138" on="1"/>
        <pt x="412" y="98" on="0"/>
        <pt x="379" y="41" on="0"/>
        <pt x="327" y="6" on="0"/>
        <pt x="265" y="-10" on="0"/>
        <pt x="236" y="-10" on="1"/>
        <pt x="158" y="-10" on="0"/>
        <pt x="65" y="49" on="0"/>
        <pt x="65" y="100" on="1"/>
        <pt x="65" y="123" on="0"/>
        <pt x="92" y="150" on="0"/>
        <pt x="114" y="150" on="1"/>
        <pt x="136" y="150" on="0"/>
        <pt x="162" y="121" on="0"/>
        <pt x="162" y="102" on="1"/>
        <pt x="162" y="90" on="0"/>
        <pt x="158" y="81" on="0"/>
        <pt x="155" y="76" on="1"/>
        <pt x="165" y="69" on="0"/>
        <pt x="190" y="61" on="0"/>
        <pt x="213" y="57" on="0"/>
        <pt x="232" y="56" on="0"/>
        <pt x="236" y="56" on="1"/>
        <pt x="282" y="56" on="0"/>
        <pt x="309" y="79" on="1"/>
        <pt x="329" y="96" on="0"/>
        <pt x="336" y="125" on="0"/>
        <pt x="336" y="142" on="1"/>
        <pt x="336" y="545" on="1"/>
        <pt x="260" y="545" on="1"/>
        <pt x="254" y="545" on="0"/>
        <pt x="238" y="546" on="0"/>
        <pt x="224" y="552" on="0"/>
        <pt x="214" y="566" on="0"/>
        <pt x="214" y="578" on="1"/>
        <pt x="214" y="590" on="0"/>
        <pt x="224" y="604" on="0"/>
        <pt x="238" y="610" on="0"/>
        <pt x="254" y="611" on="0"/>
        <pt x="260" y="611" on="1"/>
        <pt x="437" y="611" on="1"/>
        <pt x="444" y="611" on="0"/>
        <pt x="460" y="610" on="0"/>
        <pt x="473" y="604" on="0"/>
        <pt x="482" y="590" on="0"/>
        <pt x="482" y="578" on="1"/>
        <pt x="482" y="566" on="0"/>
        <pt x="473" y="552" on="0"/>
        <pt x="460" y="546" on="0"/>
        <pt x="444" y="545" on="0"/>
        <pt x="437" y="545" on="1"/>
        <pt x="412" y="545" on="1"/>
      </contour>
    </TTGlyph>
    <TTGlyph name="K" xMin="25" yMin="0" xMax="501" yMax="611">
      <contour>
        <pt x="448" y="66" on="1"/>
        <pt x="458" y="66" on="0"/>
        <pt x="477" y="65" on="0"/>
        <pt x="492" y="59" on="0"/>
        <pt x="501" y="45" on="0"/>
        <pt x="501" y="33" on="1"/>
        <pt x="501" y="21" on="0"/>
        <pt x="491" y="7" on="0"/>
        <pt x="477" y="1" on="0"/>
        <pt x="461" y="0" on="0"/>
        <pt x="455" y="0" on="1"/>
        <pt x="384" y="0" on="1"/>
        <pt x="378" y="0" on="0"/>
        <pt x="362" y="1" on="0"/>
        <pt x="348" y="7" on="0"/>
        <pt x="338" y="21" on="0"/>
        <pt x="338" y="33" on="1"/>
        <pt x="338" y="47" on="0"/>
        <pt x="358" y="67" on="0"/>
        <pt x="376" y="67" on="1"/>
        <pt x="240" y="305" on="1"/>
        <pt x="149" y="193" on="1"/>
        <pt x="149" y="66" on="1"/>
        <pt x="166" y="66" on="1"/>
        <pt x="172" y="66" on="0"/>
        <pt x="188" y="65" on="0"/>
        <pt x="202" y="59" on="0"/>
        <pt x="212" y="45" on="0"/>
        <pt x="212" y="33" on="1"/>
        <pt x="212" y="21" on="0"/>
        <pt x="202" y="7" on="0"/>
        <pt x="188" y="1" on="0"/>
        <pt x="172" y="0" on="0"/>
        <pt x="166" y="0" on="1"/>
        <pt x="70" y="0" on="1"/>
        <pt x="63" y="0" on="0"/>
        <pt x="47" y="1" on="0"/>
        <pt x="34" y="7" on="0"/>
        <pt x="25" y="21" on="0"/>
        <pt x="25" y="33" on="1"/>
        <pt x="25" y="45" on="0"/>
        <pt x="34" y="59" on="0"/>
        <pt x="47" y="65" on="0"/>
        <pt x="63" y="66" on="0"/>
        <pt x="70" y="66" on="1"/>
        <pt x="87" y="66" on="1"/>
        <pt x="87" y="545" on="1"/>
        <pt x="70" y="545" on="1"/>
        <pt x="63" y="545" on="0"/>
        <pt x="47" y="546" on="0"/>
        <pt x="34" y="552" on="0"/>
        <pt x="25" y="566" on="0"/>
        <pt x="25" y="578" on="1"/>
        <pt x="25" y="590" on="0"/>
        <pt x="34" y="604" on="0"/>
        <pt x="47" y="610" on="0"/>
        <pt x="63" y="611" on="0"/>
        <pt x="70" y="611" on="1"/>
        <pt x="166" y="611" on="1"/>
        <pt x="172" y="611" on="0"/>
        <pt x="188" y="610" on="0"/>
        <pt x="202" y="604" on="0"/>
        <pt x="212" y="590" on="0"/>
        <pt x="212" y="578" on="1"/>
        <pt x="212" y="566" on="0"/>
        <pt x="202" y="552" on="0"/>
        <pt x="188" y="546" on="0"/>
        <pt x="172" y="545" on="0"/>
        <pt x="166" y="545" on="1"/>
        <pt x="149" y="545" on="1"/>
        <pt x="149" y="291" on="1"/>
        <pt x="353" y="545" on="1"/>
        <pt x="341" y="545" on="0"/>
        <pt x="316" y="557" on="0"/>
        <pt x="316" y="578" on="1"/>
        <pt x="316" y="590" on="0"/>
        <pt x="325" y="604" on="0"/>
        <pt x="339" y="610" on="0"/>
        <pt x="355" y="611" on="0"/>
        <pt x="361" y="611" on="1"/>
        <pt x="445" y="611" on="1"/>
        <pt x="451" y="611" on="0"/>
        <pt x="467" y="610" on="0"/>
        <pt x="481" y="604" on="0"/>
        <pt x="491" y="590" on="0"/>
        <pt x="491" y="578" on="1"/>
        <pt x="491" y="553" on="0"/>
        <pt x="457" y="545" on="0"/>
        <pt x="433" y="545" on="1"/>
        <pt x="282" y="357" on="1"/>
      </contour>
    </TTGlyph>
    <TTGlyph name="L" xMin="30" yMin="0" xMax="494" yMax="611">
      <contour>
        <pt x="183" y="66" on="1"/>
        <pt x="418" y="66" on="1"/>
        <pt x="418" y="130" on="1"/>
        <pt x="418" y="139" on="0"/>
        <pt x="419" y="155" on="0"/>
        <pt x="426" y="167" on="0"/>
        <pt x="442" y="175" on="0"/>
        <pt x="456" y="175" on="1"/>
        <pt x="470" y="175" on="0"/>
        <pt x="486" y="167" on="0"/>
        <pt x="493" y="155" on="0"/>
        <pt x="494" y="139" on="0"/>
        <pt x="494" y="130" on="1"/>
        <pt x="494" y="45" on="1"/>
        <pt x="494" y="16" on="0"/>
        <pt x="476" y="0" on="0"/>
        <pt x="449" y="0" on="1"/>
        <pt x="76" y="0" on="1"/>
        <pt x="70" y="0" on="0"/>
        <pt x="54" y="1" on="0"/>
        <pt x="40" y="7" on="0"/>
        <pt x="30" y="21" on="0"/>
        <pt x="30" y="33" on="1"/>
        <pt x="30" y="45" on="0"/>
        <pt x="40" y="59" on="0"/>
        <pt x="54" y="65" on="0"/>
        <pt x="70" y="66" on="0"/>
        <pt x="76" y="66" on="1"/>
        <pt x="107" y="66" on="1"/>
        <pt x="107" y="545" on="1"/>
        <pt x="76" y="545" on="1"/>
        <pt x="70" y="545" on="0"/>
        <pt x="54" y="546" on="0"/>
        <pt x="40" y="552" on="0"/>
        <pt x="30" y="566" on="0"/>
        <pt x="30" y="578" on="1"/>
        <pt x="30" y="590" on="0"/>
        <pt x="40" y="604" on="0"/>
        <pt x="54" y="610" on="0"/>
        <pt x="70" y="611" on="0"/>
        <pt x="76" y="611" on="1"/>
        <pt x="233" y="611" on="1"/>
        <pt x="239" y="611" on="0"/>
        <pt x="255" y="610" on="0"/>
        <pt x="269" y="604" on="0"/>
        <pt x="279" y="590" on="0"/>
        <pt x="279" y="578" on="1"/>
        <pt x="279" y="566" on="0"/>
        <pt x="269" y="552" on="0"/>
        <pt x="255" y="546" on="0"/>
        <pt x="239" y="545" on="0"/>
        <pt x="233" y="545" on="1"/>
        <pt x="183" y="545" on="1"/>
      </contour>
    </TTGlyph>
    <TTGlyph name="M" xMin="16" yMin="0" xMax="514" yMax="611">
      <contour>
        <pt x="355" y="571" on="1"/>
        <pt x="365" y="601" on="0"/>
        <pt x="394" y="611" on="0"/>
        <pt x="414" y="611" on="1"/>
        <pt x="468" y="611" on="1"/>
        <pt x="474" y="611" on="0"/>
        <pt x="490" y="610" on="0"/>
        <pt x="504" y="604" on="0"/>
        <pt x="514" y="590" on="0"/>
        <pt x="514" y="578" on="1"/>
        <pt x="514" y="566" on="0"/>
        <pt x="505" y="552" on="0"/>
        <pt x="490" y="546" on="0"/>
        <pt x="471" y="545" on="0"/>
        <pt x="461" y="545" on="1"/>
        <pt x="461" y="66" on="1"/>
        <pt x="471" y="66" on="0"/>
        <pt x="490" y="65" on="0"/>
        <pt x="505" y="59" on="0"/>
        <pt x="514" y="45" on="0"/>
        <pt x="514" y="33" on="1"/>
        <pt x="514" y="21" on="0"/>
        <pt x="504" y="7" on="0"/>
        <pt x="490" y="1" on="0"/>
        <pt x="474" y="0" on="0"/>
        <pt x="468" y="0" on="1"/>
        <pt x="392" y="0" on="1"/>
        <pt x="386" y="0" on="0"/>
        <pt x="370" y="1" on="0"/>
        <pt x="356" y="7" on="0"/>
        <pt x="346" y="21" on="0"/>
        <pt x="346" y="33" on="1"/>
        <pt x="346" y="45" on="0"/>
        <pt x="355" y="59" on="0"/>
        <pt x="370" y="65" on="0"/>
        <pt x="389" y="66" on="0"/>
        <pt x="399" y="66" on="1"/>
        <pt x="399" y="528" on="1"/>
        <pt x="399" y="526" on="0"/>
        <pt x="386" y="481" on="0"/>
        <pt x="365" y="416" on="0"/>
        <pt x="341" y="342" on="0"/>
        <pt x="320" y="277" on="0"/>
        <pt x="304" y="231" on="0"/>
        <pt x="303" y="228" on="1"/>
        <pt x="295" y="214" on="0"/>
        <pt x="272" y="204" on="0"/>
        <pt x="265" y="204" on="1"/>
        <pt x="253" y="204" on="0"/>
        <pt x="238" y="213" on="0"/>
        <pt x="228" y="226" on="0"/>
        <pt x="223" y="240" on="0"/>
        <pt x="221" y="245" on="1"/>
        <pt x="151" y="463" on="1"/>
        <pt x="143" y="489" on="0"/>
        <pt x="133" y="524" on="0"/>
        <pt x="132" y="529" on="1"/>
        <pt x="131" y="529" on="1"/>
        <pt x="131" y="66" on="1"/>
        <pt x="141" y="66" on="0"/>
        <pt x="160" y="65" on="0"/>
        <pt x="175" y="59" on="0"/>
        <pt x="184" y="45" on="0"/>
        <pt x="184" y="33" on="1"/>
        <pt x="184" y="21" on="0"/>
        <pt x="174" y="7" on="0"/>
        <pt x="160" y="1" on="0"/>
        <pt x="144" y="0" on="0"/>
        <pt x="138" y="0" on="1"/>
        <pt x="62" y="0" on="1"/>
        <pt x="56" y="0" on="0"/>
        <pt x="40" y="1" on="0"/>
        <pt x="26" y="7" on="0"/>
        <pt x="16" y="21" on="0"/>
        <pt x="16" y="33" on="1"/>
        <pt x="16" y="45" on="0"/>
        <pt x="25" y="59" on="0"/>
        <pt x="40" y="65" on="0"/>
        <pt x="59" y="66" on="0"/>
        <pt x="69" y="66" on="1"/>
        <pt x="69" y="545" on="1"/>
        <pt x="59" y="545" on="0"/>
        <pt x="40" y="546" on="0"/>
        <pt x="25" y="552" on="0"/>
        <pt x="16" y="566" on="0"/>
        <pt x="16" y="578" on="1"/>
        <pt x="16" y="590" on="0"/>
        <pt x="26" y="604" on="0"/>
        <pt x="40" y="610" on="0"/>
        <pt x="56" y="611" on="0"/>
        <pt x="62" y="611" on="1"/>
        <pt x="116" y="611" on="1"/>
        <pt x="126" y="611" on="0"/>
        <pt x="143" y="610" on="0"/>
        <pt x="158" y="602" on="0"/>
        <pt x="171" y="585" on="0"/>
        <pt x="176" y="569" on="1"/>
        <pt x="240" y="369" on="1"/>
        <pt x="247" y="348" on="0"/>
        <pt x="261" y="301" on="0"/>
        <pt x="264" y="283" on="1"/>
        <pt x="265" y="283" on="1"/>
        <pt x="267" y="292" on="0"/>
        <pt x="272" y="312" on="0"/>
        <pt x="280" y="337" on="0"/>
        <pt x="291" y="372" on="0"/>
        <pt x="299" y="397" on="1"/>
      </contour>
    </TTGlyph>
    <TTGlyph name="N" xMin="27" yMin="0" xMax="503" yMax="611">
      <contour>
        <pt x="333" y="201" on="1"/>
        <pt x="344" y="170" on="0"/>
        <pt x="366" y="108" on="0"/>
        <pt x="375" y="79" on="1"/>
        <pt x="376" y="79" on="1"/>
        <pt x="376" y="545" on="1"/>
        <pt x="357" y="545" on="1"/>
        <pt x="351" y="545" on="0"/>
        <pt x="335" y="546" on="0"/>
        <pt x="321" y="552" on="0"/>
        <pt x="311" y="566" on="0"/>
        <pt x="311" y="578" on="1"/>
        <pt x="311" y="590" on="0"/>
        <pt x="321" y="604" on="0"/>
        <pt x="335" y="610" on="0"/>
        <pt x="351" y="611" on="0"/>
        <pt x="357" y="611" on="1"/>
        <pt x="457" y="611" on="1"/>
        <pt x="463" y="611" on="0"/>
        <pt x="479" y="610" on="0"/>
        <pt x="493" y="604" on="0"/>
        <pt x="503" y="590" on="0"/>
        <pt x="503" y="578" on="1"/>
        <pt x="503" y="566" on="0"/>
        <pt x="493" y="552" on="0"/>
        <pt x="479" y="546" on="0"/>
        <pt x="463" y="545" on="0"/>
        <pt x="457" y="545" on="1"/>
        <pt x="438" y="545" on="1"/>
        <pt x="438" y="45" on="1"/>
        <pt x="438" y="15" on="0"/>
        <pt x="418" y="0" on="0"/>
        <pt x="392" y="0" on="1"/>
        <pt x="363" y="0" on="0"/>
        <pt x="339" y="16" on="0"/>
        <pt x="330" y="42" on="1"/>
        <pt x="197" y="410" on="1"/>
        <pt x="186" y="441" on="0"/>
        <pt x="164" y="503" on="0"/>
        <pt x="155" y="532" on="1"/>
        <pt x="154" y="532" on="1"/>
        <pt x="154" y="66" on="1"/>
        <pt x="173" y="66" on="1"/>
        <pt x="179" y="66" on="0"/>
        <pt x="195" y="65" on="0"/>
        <pt x="209" y="59" on="0"/>
        <pt x="219" y="45" on="0"/>
        <pt x="219" y="33" on="1"/>
        <pt x="219" y="21" on="0"/>
        <pt x="209" y="7" on="0"/>
        <pt x="195" y="1" on="0"/>
        <pt x="179" y="0" on="0"/>
        <pt x="173" y="0" on="1"/>
        <pt x="73" y="0" on="1"/>
        <pt x="67" y="0" on="0"/>
        <pt x="51" y="1" on="0"/>
        <pt x="37" y="7" on="0"/>
        <pt x="27" y="21" on="0"/>
        <pt x="27" y="33" on="1"/>
        <pt x="27" y="45" on="0"/>
        <pt x="37" y="59" on="0"/>
        <pt x="51" y="65" on="0"/>
        <pt x="67" y="66" on="0"/>
        <pt x="73" y="66" on="1"/>
        <pt x="92" y="66" on="1"/>
        <pt x="92" y="545" on="1"/>
        <pt x="73" y="545" on="1"/>
        <pt x="67" y="545" on="0"/>
        <pt x="51" y="546" on="0"/>
        <pt x="37" y="552" on="0"/>
        <pt x="27" y="566" on="0"/>
        <pt x="27" y="578" on="1"/>
        <pt x="27" y="590" on="0"/>
        <pt x="37" y="604" on="0"/>
        <pt x="51" y="610" on="0"/>
        <pt x="67" y="611" on="0"/>
        <pt x="73" y="611" on="1"/>
        <pt x="139" y="611" on="1"/>
        <pt x="170" y="611" on="0"/>
        <pt x="192" y="593" on="0"/>
        <pt x="200" y="569" on="1"/>
      </contour>
    </TTGlyph>
    <TTGlyph name="O" xMin="57" yMin="-10" xMax="473" yMax="621">
      <contour>
        <pt x="473" y="305" on="1"/>
        <pt x="473" y="197" on="0"/>
        <pt x="460" y="72" on="0"/>
        <pt x="417" y="7" on="0"/>
        <pt x="335" y="-10" on="0"/>
        <pt x="265" y="-10" on="1"/>
        <pt x="218" y="-10" on="0"/>
        <pt x="151" y="-3" on="0"/>
        <pt x="105" y="19" on="0"/>
        <pt x="77" y="61" on="0"/>
        <pt x="62" y="131" on="0"/>
        <pt x="57" y="234" on="0"/>
        <pt x="57" y="306" on="1"/>
        <pt x="57" y="414" on="0"/>
        <pt x="70" y="539" on="0"/>
        <pt x="113" y="604" on="0"/>
        <pt x="195" y="621" on="0"/>
        <pt x="265" y="621" on="1"/>
        <pt x="312" y="621" on="0"/>
        <pt x="379" y="614" on="0"/>
        <pt x="425" y="592" on="0"/>
        <pt x="453" y="550" on="0"/>
        <pt x="468" y="480" on="0"/>
        <pt x="473" y="377" on="0"/>
      </contour>
      <contour>
        <pt x="265" y="56" on="1"/>
        <pt x="300" y="56" on="0"/>
        <pt x="343" y="65" on="0"/>
        <pt x="370" y="84" on="0"/>
        <pt x="383" y="112" on="0"/>
        <pt x="387" y="131" on="1"/>
        <pt x="395" y="169" on="0"/>
        <pt x="397" y="270" on="0"/>
        <pt x="397" y="314" on="1"/>
        <pt x="397" y="355" on="0"/>
        <pt x="395" y="449" on="0"/>
        <pt x="388" y="483" on="1"/>
        <pt x="383" y="505" on="0"/>
        <pt x="367" y="533" on="0"/>
        <pt x="339" y="549" on="0"/>
        <pt x="296" y="555" on="0"/>
        <pt x="265" y="555" on="1"/>
        <pt x="237" y="555" on="0"/>
        <pt x="196" y="550" on="0"/>
        <pt x="167" y="536" on="0"/>
        <pt x="149" y="509" on="0"/>
        <pt x="144" y="488" on="1"/>
        <pt x="136" y="452" on="0"/>
        <pt x="133" y="365" on="0"/>
        <pt x="133" y="314" on="1"/>
        <pt x="133" y="292" on="0"/>
        <pt x="133" y="241" on="0"/>
        <pt x="136" y="190" on="0"/>
        <pt x="141" y="142" on="0"/>
        <pt x="145" y="123" on="1"/>
        <pt x="149" y="106" on="0"/>
        <pt x="164" y="81" on="0"/>
        <pt x="191" y="64" on="0"/>
        <pt x="233" y="56" on="0"/>
      </contour>
    </TTGlyph>
    <TTGlyph name="P" xMin="25" yMin="0" xMax="486" yMax="611">
      <contour>
        <pt x="171" y="66" on="1"/>
        <pt x="196" y="66" on="1"/>
        <pt x="203" y="66" on="0"/>
        <pt x="219" y="65" on="0"/>
        <pt x="232" y="59" on="0"/>
        <pt x="241" y="45" on="0"/>
        <pt x="241" y="33" on="1"/>
        <pt x="241" y="21" on="0"/>
        <pt x="232" y="7" on="0"/>
        <pt x="219" y="1" on="0"/>
        <pt x="203" y="0" on="0"/>
        <pt x="196" y="0" on="1"/>
        <pt x="70" y="0" on="1"/>
        <pt x="63" y="0" on="0"/>
        <pt x="48" y="1" on="0"/>
        <pt x="34" y="7" on="0"/>
        <pt x="25" y="21" on="0"/>
        <pt x="25" y="33" on="1"/>
        <pt x="25" y="45" on="0"/>
        <pt x="34" y="59" on="0"/>
        <pt x="48" y="65" on="0"/>
        <pt x="63" y="66" on="0"/>
        <pt x="70" y="66" on="1"/>
        <pt x="95" y="66" on="1"/>
        <pt x="95" y="545" on="1"/>
        <pt x="70" y="545" on="1"/>
        <pt x="63" y="545" on="0"/>
        <pt x="48" y="546" on="0"/>
        <pt x="34" y="552" on="0"/>
        <pt x="25" y="566" on="0"/>
        <pt x="25" y="578" on="1"/>
        <pt x="25" y="590" on="0"/>
        <pt x="34" y="604" on="0"/>
        <pt x="48" y="610" on="0"/>
        <pt x="63" y="611" on="0"/>
        <pt x="70" y="611" on="1"/>
        <pt x="292" y="611" on="1"/>
        <pt x="339" y="611" on="0"/>
        <pt x="411" y="578" on="0"/>
        <pt x="461" y="526" on="0"/>
        <pt x="486" y="459" on="0"/>
        <pt x="486" y="425" on="1"/>
        <pt x="486" y="392" on="0"/>
        <pt x="461" y="326" on="0"/>
        <pt x="412" y="273" on="0"/>
        <pt x="340" y="240" on="0"/>
        <pt x="292" y="240" on="1"/>
        <pt x="171" y="240" on="1"/>
      </contour>
      <contour>
        <pt x="171" y="306" on="1"/>
        <pt x="271" y="306" on="1"/>
        <pt x="309" y="306" on="0"/>
        <pt x="362" y="330" on="0"/>
        <pt x="395" y="366" on="0"/>
        <pt x="410" y="408" on="0"/>
        <pt x="410" y="426" on="1"/>
        <pt x="410" y="443" on="0"/>
        <pt x="396" y="484" on="0"/>
        <pt x="364" y="520" on="0"/>
        <pt x="310" y="545" on="0"/>
        <pt x="271" y="545" on="1"/>
        <pt x="171" y="545" on="1"/>
      </contour>
    </TTGlyph>
    <TTGlyph name="Q" xMin="57" yMin="-139" xMax="473" yMax="621">
      <contour>
        <pt x="414" y="-139" on="1"/>
        <pt x="401" y="-139" on="0"/>
        <pt x="386" y="-137" on="0"/>
        <pt x="380" y="-132" on="1"/>
        <pt x="377" y="-129" on="0"/>
        <pt x="358" y="-94" on="0"/>
        <pt x="336" y="-52" on="0"/>
        <pt x="318" y="-15" on="0"/>
        <pt x="315" y="-9" on="1"/>
        <pt x="310" y="-9" on="0"/>
        <pt x="303" y="-10" on="0"/>
        <pt x="293" y="-10" on="0"/>
        <pt x="278" y="-10" on="0"/>
        <pt x="265" y="-10" on="1"/>
        <pt x="218" y="-10" on="0"/>
        <pt x="151" y="-3" on="0"/>
        <pt x="105" y="19" on="0"/>
        <pt x="77" y="61" on="0"/>
        <pt x="62" y="131" on="0"/>
        <pt x="57" y="234" on="0"/>
        <pt x="57" y="306" on="1"/>
        <pt x="57" y="414" on="0"/>
        <pt x="70" y="539" on="0"/>
        <pt x="113" y="604" on="0"/>
        <pt x="195" y="621" on="0"/>
        <pt x="265" y="621" on="1"/>
        <pt x="312" y="621" on="0"/>
        <pt x="379" y="614" on="0"/>
        <pt x="425" y="592" on="0"/>
        <pt x="453" y="550" on="0"/>
        <pt x="468" y="480" on="0"/>
        <pt x="473" y="377" on="0"/>
        <pt x="473" y="305" on="1"/>
        <pt x="473" y="270" on="0"/>
        <pt x="472" y="179" on="0"/>
        <pt x="467" y="140" on="1"/>
        <pt x="463" y="104" on="0"/>
        <pt x="450" y="58" on="0"/>
        <pt x="433" y="29" on="0"/>
        <pt x="410" y="12" on="0"/>
        <pt x="396" y="6" on="1"/>
        <pt x="412" y="-24" on="0"/>
        <pt x="427" y="-54" on="0"/>
        <pt x="435" y="-69" on="0"/>
        <pt x="440" y="-77" on="0"/>
        <pt x="445" y="-87" on="1"/>
        <pt x="456" y="-106" on="0"/>
        <pt x="459" y="-115" on="0"/>
        <pt x="459" y="-118" on="1"/>
        <pt x="459" y="-134" on="0"/>
        <pt x="435" y="-139" on="0"/>
        <pt x="423" y="-139" on="1"/>
      </contour>
      <contour>
        <pt x="281" y="56" on="1"/>
        <pt x="275" y="70" on="0"/>
        <pt x="267" y="85" on="0"/>
        <pt x="262" y="96" on="0"/>
        <pt x="257" y="105" on="0"/>
        <pt x="253" y="112" on="1"/>
        <pt x="253" y="113" on="0"/>
        <pt x="247" y="122" on="0"/>
        <pt x="241" y="134" on="0"/>
        <pt x="236" y="147" on="0"/>
        <pt x="236" y="150" on="1"/>
        <pt x="236" y="166" on="0"/>
        <pt x="260" y="171" on="0"/>
        <pt x="273" y="171" on="1"/>
        <pt x="283" y="171" on="1"/>
        <pt x="299" y="171" on="0"/>
        <pt x="308" y="169" on="0"/>
        <pt x="313" y="161" on="1"/>
        <pt x="315" y="158" on="0"/>
        <pt x="319" y="151" on="0"/>
        <pt x="328" y="133" on="0"/>
        <pt x="344" y="102" on="0"/>
        <pt x="359" y="76" on="1"/>
        <pt x="363" y="79" on="0"/>
        <pt x="373" y="88" on="0"/>
        <pt x="383" y="110" on="0"/>
        <pt x="392" y="148" on="0"/>
        <pt x="394" y="178" on="1"/>
        <pt x="396" y="213" on="0"/>
        <pt x="397" y="273" on="0"/>
        <pt x="397" y="306" on="1"/>
        <pt x="397" y="323" on="0"/>
        <pt x="397" y="366" on="0"/>
        <pt x="395" y="411" on="0"/>
        <pt x="392" y="454" on="0"/>
        <pt x="389" y="472" on="1"/>
        <pt x="385" y="495" on="0"/>
        <pt x="371" y="527" on="0"/>
        <pt x="344" y="546" on="0"/>
        <pt x="300" y="555" on="0"/>
        <pt x="265" y="555" on="1"/>
        <pt x="231" y="555" on="0"/>
        <pt x="188" y="547" on="0"/>
        <pt x="161" y="529" on="0"/>
        <pt x="147" y="500" on="0"/>
        <pt x="142" y="479" on="1"/>
        <pt x="139" y="461" on="0"/>
        <pt x="135" y="418" on="0"/>
        <pt x="133" y="372" on="0"/>
        <pt x="133" y="326" on="0"/>
        <pt x="133" y="305" on="1"/>
        <pt x="133" y="288" on="0"/>
        <pt x="133" y="245" on="0"/>
        <pt x="135" y="200" on="0"/>
        <pt x="138" y="157" on="0"/>
        <pt x="141" y="139" on="1"/>
        <pt x="145" y="118" on="0"/>
        <pt x="157" y="87" on="0"/>
        <pt x="183" y="66" on="0"/>
        <pt x="226" y="56" on="0"/>
        <pt x="260" y="56" on="1"/>
      </contour>
    </TTGlyph>
    <TTGlyph name="R" xMin="20" yMin="-10" xMax="528" yMax="611">
      <contour>
        <pt x="356" y="304" on="1"/>
        <pt x="387" y="280" on="0"/>
        <pt x="403" y="242" on="1"/>
        <pt x="406" y="234" on="0"/>
        <pt x="409" y="221" on="0"/>
        <pt x="411" y="202" on="0"/>
        <pt x="411" y="174" on="0"/>
        <pt x="411" y="150" on="1"/>
        <pt x="411" y="132" on="0"/>
        <pt x="412" y="98" on="0"/>
        <pt x="416" y="72" on="0"/>
        <pt x="427" y="56" on="0"/>
        <pt x="436" y="56" on="1"/>
        <pt x="441" y="56" on="0"/>
        <pt x="448" y="67" on="0"/>
        <pt x="451" y="82" on="0"/>
        <pt x="452" y="96" on="0"/>
        <pt x="452" y="99" on="1"/>
        <pt x="452" y="111" on="0"/>
        <pt x="462" y="124" on="0"/>
        <pt x="475" y="130" on="0"/>
        <pt x="487" y="131" on="0"/>
        <pt x="490" y="131" on="1"/>
        <pt x="493" y="131" on="0"/>
        <pt x="506" y="130" on="0"/>
        <pt x="518" y="124" on="0"/>
        <pt x="528" y="110" on="0"/>
        <pt x="528" y="97" on="1"/>
        <pt x="528" y="80" on="0"/>
        <pt x="518" y="42" on="0"/>
        <pt x="495" y="11" on="0"/>
        <pt x="461" y="-10" on="0"/>
        <pt x="437" y="-10" on="1"/>
        <pt x="423" y="-10" on="0"/>
        <pt x="379" y="4" on="0"/>
        <pt x="362" y="27" on="1"/>
        <pt x="352" y="40" on="0"/>
        <pt x="341" y="67" on="0"/>
        <pt x="336" y="100" on="0"/>
        <pt x="335" y="140" on="0"/>
        <pt x="335" y="165" on="1"/>
        <pt x="335" y="195" on="0"/>
        <pt x="329" y="233" on="0"/>
        <pt x="312" y="247" on="1"/>
        <pt x="289" y="267" on="0"/>
        <pt x="251" y="273" on="0"/>
        <pt x="234" y="273" on="1"/>
        <pt x="161" y="273" on="1"/>
        <pt x="161" y="66" on="1"/>
        <pt x="180" y="66" on="1"/>
        <pt x="186" y="66" on="0"/>
        <pt x="202" y="65" on="0"/>
        <pt x="216" y="59" on="0"/>
        <pt x="226" y="45" on="0"/>
        <pt x="226" y="33" on="1"/>
        <pt x="226" y="21" on="0"/>
        <pt x="216" y="7" on="0"/>
        <pt x="202" y="1" on="0"/>
        <pt x="186" y="0" on="0"/>
        <pt x="180" y="0" on="1"/>
        <pt x="66" y="0" on="1"/>
        <pt x="60" y="0" on="0"/>
        <pt x="44" y="1" on="0"/>
        <pt x="30" y="7" on="0"/>
        <pt x="20" y="21" on="0"/>
        <pt x="20" y="33" on="1"/>
        <pt x="20" y="45" on="0"/>
        <pt x="30" y="59" on="0"/>
        <pt x="44" y="65" on="0"/>
        <pt x="60" y="66" on="0"/>
        <pt x="66" y="66" on="1"/>
        <pt x="85" y="66" on="1"/>
        <pt x="85" y="545" on="1"/>
        <pt x="66" y="545" on="1"/>
        <pt x="60" y="545" on="0"/>
        <pt x="44" y="546" on="0"/>
        <pt x="30" y="552" on="0"/>
        <pt x="20" y="566" on="0"/>
        <pt x="20" y="578" on="1"/>
        <pt x="20" y="590" on="0"/>
        <pt x="30" y="604" on="0"/>
        <pt x="44" y="610" on="0"/>
        <pt x="60" y="611" on="0"/>
        <pt x="66" y="611" on="1"/>
        <pt x="240" y="611" on="1"/>
        <pt x="287" y="611" on="0"/>
        <pt x="360" y="582" on="0"/>
        <pt x="411" y="534" on="0"/>
        <pt x="438" y="473" on="0"/>
        <pt x="438" y="442" on="1"/>
        <pt x="438" y="397" on="0"/>
        <pt x="390" y="324" on="0"/>
      </contour>
      <contour>
        <pt x="228" y="339" on="1"/>
        <pt x="264" y="339" on="0"/>
        <pt x="315" y="359" on="0"/>
        <pt x="347" y="390" on="0"/>
        <pt x="362" y="426" on="0"/>
        <pt x="362" y="442" on="1"/>
        <pt x="362" y="457" on="0"/>
        <pt x="348" y="493" on="0"/>
        <pt x="316" y="524" on="0"/>
        <pt x="265" y="545" on="0"/>
        <pt x="228" y="545" on="1"/>
        <pt x="161" y="545" on="1"/>
        <pt x="161" y="339" on="1"/>
      </contour>
    </TTGlyph>
    <TTGlyph name="S" xMin="53" yMin="-10" xMax="477" yMax="621">
      <contour>
        <pt x="450" y="453" on="1"/>
        <pt x="450" y="445" on="0"/>
        <pt x="449" y="429" on="0"/>
        <pt x="442" y="416" on="0"/>
        <pt x="426" y="408" on="0"/>
        <pt x="412" y="408" on="1"/>
        <pt x="404" y="408" on="0"/>
        <pt x="378" y="415" on="0"/>
        <pt x="374" y="435" on="1"/>
        <pt x="372" y="447" on="0"/>
        <pt x="362" y="487" on="0"/>
        <pt x="334" y="526" on="0"/>
        <pt x="283" y="555" on="0"/>
        <pt x="240" y="555" on="1"/>
        <pt x="214" y="555" on="0"/>
        <pt x="171" y="539" on="0"/>
        <pt x="141" y="513" on="0"/>
        <pt x="124" y="479" on="0"/>
        <pt x="124" y="461" on="1"/>
        <pt x="124" y="443" on="0"/>
        <pt x="138" y="414" on="0"/>
        <pt x="160" y="391" on="0"/>
        <pt x="188" y="375" on="0"/>
        <pt x="202" y="371" on="1"/>
        <pt x="207" y="370" on="0"/>
        <pt x="246" y="361" on="0"/>
        <pt x="274" y="355" on="1"/>
        <pt x="306" y="348" on="0"/>
        <pt x="351" y="336" on="0"/>
        <pt x="386" y="322" on="0"/>
        <pt x="414" y="304" on="0"/>
        <pt x="428" y="289" on="1"/>
        <pt x="453" y="263" on="0"/>
        <pt x="477" y="200" on="0"/>
        <pt x="477" y="168" on="1"/>
        <pt x="477" y="135" on="0"/>
        <pt x="451" y="71" on="0"/>
        <pt x="402" y="21" on="0"/>
        <pt x="331" y="-10" on="0"/>
        <pt x="287" y="-10" on="1"/>
        <pt x="250" y="-10" on="0"/>
        <pt x="160" y="8" on="0"/>
        <pt x="125" y="31" on="1"/>
        <pt x="117" y="2" on="0"/>
        <pt x="95" y="-10" on="0"/>
        <pt x="86" y="-10" on="1"/>
        <pt x="74" y="-10" on="0"/>
        <pt x="60" y="-1" on="0"/>
        <pt x="54" y="13" on="0"/>
        <pt x="53" y="29" on="0"/>
        <pt x="53" y="35" on="1"/>
        <pt x="53" y="158" on="1"/>
        <pt x="53" y="166" on="0"/>
        <pt x="54" y="182" on="0"/>
        <pt x="61" y="195" on="0"/>
        <pt x="77" y="203" on="0"/>
        <pt x="91" y="203" on="1"/>
        <pt x="105" y="203" on="0"/>
        <pt x="119" y="196" on="0"/>
        <pt x="127" y="185" on="0"/>
        <pt x="129" y="171" on="0"/>
        <pt x="129" y="164" on="1"/>
        <pt x="131" y="127" on="0"/>
        <pt x="170" y="84" on="0"/>
        <pt x="220" y="62" on="0"/>
        <pt x="272" y="56" on="0"/>
        <pt x="288" y="56" on="1"/>
        <pt x="316" y="56" on="0"/>
        <pt x="360" y="75" on="0"/>
        <pt x="390" y="105" on="0"/>
        <pt x="406" y="143" on="0"/>
        <pt x="406" y="163" on="1"/>
        <pt x="406" y="186" on="0"/>
        <pt x="387" y="225" on="0"/>
        <pt x="374" y="237" on="1"/>
        <pt x="365" y="245" on="0"/>
        <pt x="350" y="256" on="0"/>
        <pt x="330" y="263" on="0"/>
        <pt x="301" y="270" on="0"/>
        <pt x="279" y="275" on="1"/>
        <pt x="239" y="285" on="1"/>
        <pt x="211" y="291" on="0"/>
        <pt x="171" y="301" on="0"/>
        <pt x="138" y="315" on="0"/>
        <pt x="110" y="334" on="0"/>
        <pt x="95" y="350" on="1"/>
        <pt x="92" y="353" on="0"/>
        <pt x="78" y="371" on="0"/>
        <pt x="64" y="398" on="0"/>
        <pt x="53" y="434" on="0"/>
        <pt x="53" y="455" on="1"/>
        <pt x="53" y="488" on="0"/>
        <pt x="81" y="549" on="0"/>
        <pt x="130" y="594" on="0"/>
        <pt x="199" y="621" on="0"/>
        <pt x="240" y="621" on="1"/>
        <pt x="269" y="621" on="0"/>
        <pt x="314" y="612" on="0"/>
        <pt x="348" y="598" on="0"/>
        <pt x="371" y="584" on="0"/>
        <pt x="378" y="579" on="1"/>
        <pt x="385" y="605" on="0"/>
        <pt x="404" y="621" on="0"/>
        <pt x="417" y="621" on="1"/>
        <pt x="429" y="621" on="0"/>
        <pt x="443" y="612" on="0"/>
        <pt x="449" y="598" on="0"/>
        <pt x="450" y="582" on="0"/>
        <pt x="450" y="576" on="1"/>
      </contour>
    </TTGlyph>
    <TTGlyph name="T" xMin="27" yMin="0" xMax="503" yMax="611">
      <contour>
        <pt x="303" y="66" on="1"/>
        <pt x="349" y="66" on="1"/>
        <pt x="355" y="66" on="0"/>
        <pt x="371" y="65" on="0"/>
        <pt x="385" y="59" on="0"/>
        <pt x="395" y="45" on="0"/>
        <pt x="395" y="33" on="1"/>
        <pt x="395" y="21" on="0"/>
        <pt x="385" y="7" on="0"/>
        <pt x="371" y="1" on="0"/>
        <pt x="355" y="0" on="0"/>
        <pt x="349" y="0" on="1"/>
        <pt x="181" y="0" on="1"/>
        <pt x="175" y="0" on="0"/>
        <pt x="159" y="1" on="0"/>
        <pt x="145" y="7" on="0"/>
        <pt x="135" y="21" on="0"/>
        <pt x="135" y="33" on="1"/>
        <pt x="135" y="45" on="0"/>
        <pt x="145" y="59" on="0"/>
        <pt x="159" y="65" on="0"/>
        <pt x="175" y="66" on="0"/>
        <pt x="181" y="66" on="1"/>
        <pt x="227" y="66" on="1"/>
        <pt x="227" y="545" on="1"/>
        <pt x="103" y="545" on="1"/>
        <pt x="103" y="496" on="1"/>
        <pt x="103" y="488" on="0"/>
        <pt x="102" y="472" on="0"/>
        <pt x="95" y="459" on="0"/>
        <pt x="79" y="451" on="0"/>
        <pt x="65" y="451" on="1"/>
        <pt x="51" y="451" on="0"/>
        <pt x="35" y="459" on="0"/>
        <pt x="28" y="472" on="0"/>
        <pt x="27" y="488" on="0"/>
        <pt x="27" y="496" on="1"/>
        <pt x="27" y="566" on="1"/>
        <pt x="27" y="595" on="0"/>
        <pt x="46" y="611" on="0"/>
        <pt x="73" y="611" on="1"/>
        <pt x="458" y="611" on="1"/>
        <pt x="485" y="611" on="0"/>
        <pt x="503" y="594" on="0"/>
        <pt x="503" y="566" on="1"/>
        <pt x="503" y="496" on="1"/>
        <pt x="503" y="488" on="0"/>
        <pt x="502" y="472" on="0"/>
        <pt x="495" y="459" on="0"/>
        <pt x="479" y="451" on="0"/>
        <pt x="465" y="451" on="1"/>
        <pt x="451" y="451" on="0"/>
        <pt x="435" y="459" on="0"/>
        <pt x="428" y="472" on="0"/>
        <pt x="427" y="488" on="0"/>
        <pt x="427" y="496" on="1"/>
        <pt x="427" y="545" on="1"/>
        <pt x="303" y="545" on="1"/>
      </contour>
    </TTGlyph>
    <TTGlyph name="U" xMin="3" yMin="-10" xMax="527" yMax="611">
      <contour>
        <pt x="457" y="208" on="1"/>
        <pt x="457" y="157" on="0"/>
        <pt x="424" y="76" on="0"/>
        <pt x="370" y="20" on="0"/>
        <pt x="301" y="-10" on="0"/>
        <pt x="265" y="-10" on="1"/>
        <pt x="229" y="-10" on="0"/>
        <pt x="160" y="20" on="0"/>
        <pt x="106" y="76" on="0"/>
        <pt x="73" y="157" on="0"/>
        <pt x="73" y="208" on="1"/>
        <pt x="73" y="545" on="1"/>
        <pt x="48" y="545" on="1"/>
        <pt x="41" y="545" on="0"/>
        <pt x="26" y="546" on="0"/>
        <pt x="12" y="552" on="0"/>
        <pt x="3" y="566" on="0"/>
        <pt x="3" y="578" on="1"/>
        <pt x="3" y="590" on="0"/>
        <pt x="12" y="604" on="0"/>
        <pt x="26" y="610" on="0"/>
        <pt x="41" y="611" on="0"/>
        <pt x="48" y="611" on="1"/>
        <pt x="174" y="611" on="1"/>
        <pt x="181" y="611" on="0"/>
        <pt x="197" y="610" on="0"/>
        <pt x="210" y="604" on="0"/>
        <pt x="219" y="590" on="0"/>
        <pt x="219" y="578" on="1"/>
        <pt x="219" y="566" on="0"/>
        <pt x="210" y="552" on="0"/>
        <pt x="197" y="546" on="0"/>
        <pt x="181" y="545" on="0"/>
        <pt x="174" y="545" on="1"/>
        <pt x="149" y="545" on="1"/>
        <pt x="149" y="210" on="1"/>
        <pt x="149" y="170" on="0"/>
        <pt x="171" y="112" on="0"/>
        <pt x="206" y="74" on="0"/>
        <pt x="247" y="56" on="0"/>
        <pt x="265" y="56" on="1"/>
        <pt x="284" y="56" on="0"/>
        <pt x="325" y="74" on="0"/>
        <pt x="359" y="112" on="0"/>
        <pt x="381" y="170" on="0"/>
        <pt x="381" y="210" on="1"/>
        <pt x="381" y="545" on="1"/>
        <pt x="356" y="545" on="1"/>
        <pt x="349" y="545" on="0"/>
        <pt x="334" y="546" on="0"/>
        <pt x="320" y="552" on="0"/>
        <pt x="311" y="566" on="0"/>
        <pt x="311" y="578" on="1"/>
        <pt x="311" y="590" on="0"/>
        <pt x="320" y="604" on="0"/>
        <pt x="334" y="610" on="0"/>
        <pt x="349" y="611" on="0"/>
        <pt x="356" y="611" on="1"/>
        <pt x="482" y="611" on="1"/>
        <pt x="489" y="611" on="0"/>
        <pt x="505" y="610" on="0"/>
        <pt x="518" y="604" on="0"/>
        <pt x="527" y="590" on="0"/>
        <pt x="527" y="578" on="1"/>
        <pt x="527" y="566" on="0"/>
        <pt x="518" y="552" on="0"/>
        <pt x="505" y="546" on="0"/>
        <pt x="489" y="545" on="0"/>
        <pt x="482" y="545" on="1"/>
        <pt x="457" y="545" on="1"/>
      </contour>
    </TTGlyph>
    <TTGlyph name="V" xMin="19" yMin="-10" xMax="511" yMax="611">
      <contour>
        <pt x="324" y="31" on="1"/>
        <pt x="320" y="16" on="0"/>
        <pt x="310" y="-1" on="0"/>
        <pt x="295" y="-9" on="0"/>
        <pt x="277" y="-10" on="0"/>
        <pt x="265" y="-10" on="1"/>
        <pt x="253" y="-10" on="0"/>
        <pt x="235" y="-9" on="0"/>
        <pt x="220" y="-1" on="0"/>
        <pt x="210" y="16" on="0"/>
        <pt x="206" y="31" on="1"/>
        <pt x="76" y="545" on="1"/>
        <pt x="53" y="545" on="0"/>
        <pt x="19" y="553" on="0"/>
        <pt x="19" y="578" on="1"/>
        <pt x="19" y="590" on="0"/>
        <pt x="29" y="604" on="0"/>
        <pt x="43" y="610" on="0"/>
        <pt x="59" y="611" on="0"/>
        <pt x="65" y="611" on="1"/>
        <pt x="164" y="611" on="1"/>
        <pt x="170" y="611" on="0"/>
        <pt x="186" y="610" on="0"/>
        <pt x="200" y="604" on="0"/>
        <pt x="209" y="590" on="0"/>
        <pt x="209" y="578" on="1"/>
        <pt x="209" y="566" on="0"/>
        <pt x="200" y="552" on="0"/>
        <pt x="185" y="546" on="0"/>
        <pt x="165" y="545" on="0"/>
        <pt x="154" y="545" on="1"/>
        <pt x="225" y="258" on="1"/>
        <pt x="238" y="205" on="0"/>
        <pt x="254" y="139" on="0"/>
        <pt x="262" y="100" on="0"/>
        <pt x="265" y="83" on="0"/>
        <pt x="265" y="80" on="1"/>
        <pt x="266" y="80" on="1"/>
        <pt x="266" y="83" on="0"/>
        <pt x="269" y="100" on="0"/>
        <pt x="277" y="139" on="0"/>
        <pt x="293" y="207" on="0"/>
        <pt x="306" y="262" on="1"/>
        <pt x="376" y="545" on="1"/>
        <pt x="354" y="545" on="0"/>
        <pt x="321" y="553" on="0"/>
        <pt x="321" y="578" on="1"/>
        <pt x="321" y="590" on="0"/>
        <pt x="330" y="604" on="0"/>
        <pt x="344" y="610" on="0"/>
        <pt x="360" y="611" on="0"/>
        <pt x="366" y="611" on="1"/>
        <pt x="465" y="611" on="1"/>
        <pt x="471" y="611" on="0"/>
        <pt x="487" y="610" on="0"/>
        <pt x="501" y="604" on="0"/>
        <pt x="511" y="590" on="0"/>
        <pt x="511" y="578" on="1"/>
        <pt x="511" y="553" on="0"/>
        <pt x="477" y="545" on="0"/>
        <pt x="454" y="545" on="1"/>
      </contour>
    </TTGlyph>
    <TTGlyph name="W" xMin="12" yMin="-10" xMax="518" yMax="611">
      <contour>
        <pt x="410" y="31" on="1"/>
        <pt x="406" y="1" on="0"/>
        <pt x="378" y="-10" on="0"/>
        <pt x="365" y="-10" on="1"/>
        <pt x="358" y="-10" on="0"/>
        <pt x="332" y="-5" on="0"/>
        <pt x="324" y="10" on="1"/>
        <pt x="323" y="13" on="0"/>
        <pt x="313" y="50" on="0"/>
        <pt x="301" y="104" on="0"/>
        <pt x="287" y="168" on="0"/>
        <pt x="275" y="227" on="0"/>
        <pt x="266" y="274" on="0"/>
        <pt x="265" y="285" on="1"/>
        <pt x="264" y="285" on="1"/>
        <pt x="263" y="275" on="0"/>
        <pt x="255" y="228" on="0"/>
        <pt x="243" y="169" on="0"/>
        <pt x="229" y="104" on="0"/>
        <pt x="216" y="50" on="0"/>
        <pt x="207" y="12" on="0"/>
        <pt x="205" y="9" on="1"/>
        <pt x="196" y="-5" on="0"/>
        <pt x="172" y="-10" on="0"/>
        <pt x="165" y="-10" on="1"/>
        <pt x="143" y="-10" on="0"/>
        <pt x="123" y="9" on="0"/>
        <pt x="120" y="32" on="1"/>
        <pt x="49" y="545" on="1"/>
        <pt x="37" y="545" on="0"/>
        <pt x="12" y="557" on="0"/>
        <pt x="12" y="578" on="1"/>
        <pt x="12" y="590" on="0"/>
        <pt x="21" y="604" on="0"/>
        <pt x="35" y="610" on="0"/>
        <pt x="51" y="611" on="0"/>
        <pt x="57" y="611" on="1"/>
        <pt x="132" y="611" on="1"/>
        <pt x="138" y="611" on="0"/>
        <pt x="154" y="610" on="0"/>
        <pt x="168" y="604" on="0"/>
        <pt x="177" y="590" on="0"/>
        <pt x="177" y="578" on="1"/>
        <pt x="177" y="566" on="0"/>
        <pt x="168" y="552" on="0"/>
        <pt x="155" y="546" on="0"/>
        <pt x="139" y="545" on="0"/>
        <pt x="132" y="545" on="1"/>
        <pt x="112" y="545" on="1"/>
        <pt x="160" y="181" on="1"/>
        <pt x="162" y="165" on="0"/>
        <pt x="165" y="141" on="0"/>
        <pt x="168" y="119" on="0"/>
        <pt x="170" y="97" on="0"/>
        <pt x="171" y="83" on="1"/>
        <pt x="172" y="101" on="0"/>
        <pt x="179" y="152" on="0"/>
        <pt x="190" y="209" on="0"/>
        <pt x="203" y="267" on="0"/>
        <pt x="214" y="314" on="0"/>
        <pt x="222" y="346" on="0"/>
        <pt x="224" y="348" on="1"/>
        <pt x="232" y="362" on="0"/>
        <pt x="258" y="367" on="0"/>
        <pt x="265" y="367" on="1"/>
        <pt x="277" y="367" on="0"/>
        <pt x="300" y="360" on="0"/>
        <pt x="308" y="343" on="1"/>
        <pt x="309" y="342" on="0"/>
        <pt x="324" y="281" on="0"/>
        <pt x="342" y="198" on="0"/>
        <pt x="358" y="111" on="0"/>
        <pt x="359" y="83" on="1"/>
        <pt x="360" y="83" on="1"/>
        <pt x="362" y="118" on="0"/>
        <pt x="372" y="197" on="0"/>
        <pt x="377" y="238" on="1"/>
        <pt x="418" y="545" on="1"/>
        <pt x="398" y="545" on="1"/>
        <pt x="392" y="545" on="0"/>
        <pt x="376" y="546" on="0"/>
        <pt x="362" y="552" on="0"/>
        <pt x="353" y="566" on="0"/>
        <pt x="353" y="578" on="1"/>
        <pt x="353" y="590" on="0"/>
        <pt x="362" y="604" on="0"/>
        <pt x="376" y="610" on="0"/>
        <pt x="391" y="611" on="0"/>
        <pt x="398" y="611" on="1"/>
        <pt x="473" y="611" on="1"/>
        <pt x="479" y="611" on="0"/>
        <pt x="495" y="610" on="0"/>
        <pt x="509" y="604" on="0"/>
        <pt x="518" y="590" on="0"/>
        <pt x="518" y="578" on="1"/>
        <pt x="518" y="565" on="0"/>
        <pt x="504" y="547" on="0"/>
        <pt x="487" y="545" on="1"/>
        <pt x="482" y="544" on="0"/>
        <pt x="480" y="539" on="0"/>
        <pt x="478" y="527" on="1"/>
      </contour>
    </TTGlyph>
    <TTGlyph name="X" xMin="29" yMin="0" xMax="500" yMax="611">
      <contour>
        <pt x="436" y="66" on="1"/>
        <pt x="454" y="66" on="1"/>
        <pt x="460" y="66" on="0"/>
        <pt x="476" y="65" on="0"/>
        <pt x="490" y="59" on="0"/>
        <pt x="500" y="45" on="0"/>
        <pt x="500" y="33" on="1"/>
        <pt x="500" y="21" on="0"/>
        <pt x="490" y="7" on="0"/>
        <pt x="476" y="1" on="0"/>
        <pt x="460" y="0" on="0"/>
        <pt x="454" y="0" on="1"/>
        <pt x="354" y="0" on="1"/>
        <pt x="348" y="0" on="0"/>
        <pt x="332" y="1" on="0"/>
        <pt x="318" y="7" on="0"/>
        <pt x="308" y="21" on="0"/>
        <pt x="308" y="33" on="1"/>
        <pt x="308" y="45" on="0"/>
        <pt x="318" y="59" on="0"/>
        <pt x="332" y="65" on="0"/>
        <pt x="347" y="66" on="0"/>
        <pt x="352" y="66" on="1"/>
        <pt x="260" y="248" on="1"/>
        <pt x="175" y="66" on="1"/>
        <pt x="181" y="66" on="0"/>
        <pt x="197" y="65" on="0"/>
        <pt x="210" y="59" on="0"/>
        <pt x="220" y="45" on="0"/>
        <pt x="220" y="33" on="1"/>
        <pt x="220" y="21" on="0"/>
        <pt x="210" y="7" on="0"/>
        <pt x="196" y="1" on="0"/>
        <pt x="180" y="0" on="0"/>
        <pt x="174" y="0" on="1"/>
        <pt x="74" y="0" on="1"/>
        <pt x="67" y="0" on="0"/>
        <pt x="52" y="1" on="0"/>
        <pt x="38" y="7" on="0"/>
        <pt x="29" y="21" on="0"/>
        <pt x="29" y="33" on="1"/>
        <pt x="29" y="45" on="0"/>
        <pt x="38" y="59" on="0"/>
        <pt x="52" y="65" on="0"/>
        <pt x="67" y="66" on="0"/>
        <pt x="74" y="66" on="1"/>
        <pt x="92" y="66" on="1"/>
        <pt x="221" y="326" on="1"/>
        <pt x="104" y="545" on="1"/>
        <pt x="86" y="545" on="1"/>
        <pt x="80" y="545" on="0"/>
        <pt x="64" y="546" on="0"/>
        <pt x="50" y="552" on="0"/>
        <pt x="40" y="566" on="0"/>
        <pt x="40" y="578" on="1"/>
        <pt x="40" y="590" on="0"/>
        <pt x="50" y="604" on="0"/>
        <pt x="64" y="610" on="0"/>
        <pt x="80" y="611" on="0"/>
        <pt x="86" y="611" on="1"/>
        <pt x="186" y="611" on="1"/>
        <pt x="192" y="611" on="0"/>
        <pt x="208" y="610" on="0"/>
        <pt x="222" y="604" on="0"/>
        <pt x="232" y="590" on="0"/>
        <pt x="232" y="578" on="1"/>
        <pt x="232" y="566" on="0"/>
        <pt x="222" y="552" on="0"/>
        <pt x="209" y="546" on="0"/>
        <pt x="195" y="545" on="0"/>
        <pt x="190" y="545" on="1"/>
        <pt x="260" y="413" on="1"/>
        <pt x="324" y="545" on="1"/>
        <pt x="318" y="545" on="0"/>
        <pt x="302" y="546" on="0"/>
        <pt x="289" y="552" on="0"/>
        <pt x="279" y="566" on="0"/>
        <pt x="279" y="578" on="1"/>
        <pt x="279" y="590" on="0"/>
        <pt x="289" y="604" on="0"/>
        <pt x="303" y="610" on="0"/>
        <pt x="319" y="611" on="0"/>
        <pt x="325" y="611" on="1"/>
        <pt x="425" y="611" on="1"/>
        <pt x="431" y="611" on="0"/>
        <pt x="447" y="610" on="0"/>
        <pt x="461" y="604" on="0"/>
        <pt x="471" y="590" on="0"/>
        <pt x="471" y="578" on="1"/>
        <pt x="471" y="566" on="0"/>
        <pt x="461" y="552" on="0"/>
        <pt x="447" y="546" on="0"/>
        <pt x="431" y="545" on="0"/>
        <pt x="425" y="545" on="1"/>
        <pt x="408" y="545" on="1"/>
        <pt x="297" y="326" on="1"/>
      </contour>
    </TTGlyph>
    <TTGlyph name="Y" xMin="20" yMin="0" xMax="510" yMax="611">
      <contour>
        <pt x="303" y="244" on="1"/>
        <pt x="303" y="66" on="1"/>
        <pt x="322" y="66" on="1"/>
        <pt x="328" y="66" on="0"/>
        <pt x="344" y="65" on="0"/>
        <pt x="358" y="59" on="0"/>
        <pt x="368" y="45" on="0"/>
        <pt x="368" y="33" on="1"/>
        <pt x="368" y="21" on="0"/>
        <pt x="358" y="7" on="0"/>
        <pt x="344" y="1" on="0"/>
        <pt x="328" y="0" on="0"/>
        <pt x="322" y="0" on="1"/>
        <pt x="208" y="0" on="1"/>
        <pt x="202" y="0" on="0"/>
        <pt x="186" y="1" on="0"/>
        <pt x="172" y="7" on="0"/>
        <pt x="162" y="21" on="0"/>
        <pt x="162" y="33" on="1"/>
        <pt x="162" y="45" on="0"/>
        <pt x="172" y="59" on="0"/>
        <pt x="186" y="65" on="0"/>
        <pt x="202" y="66" on="0"/>
        <pt x="208" y="66" on="1"/>
        <pt x="227" y="66" on="1"/>
        <pt x="227" y="244" on="1"/>
        <pt x="82" y="545" on="1"/>
        <pt x="66" y="545" on="1"/>
        <pt x="60" y="545" on="0"/>
        <pt x="44" y="546" on="0"/>
        <pt x="30" y="552" on="0"/>
        <pt x="20" y="566" on="0"/>
        <pt x="20" y="578" on="1"/>
        <pt x="20" y="590" on="0"/>
        <pt x="30" y="604" on="0"/>
        <pt x="44" y="610" on="0"/>
        <pt x="60" y="611" on="0"/>
        <pt x="66" y="611" on="1"/>
        <pt x="166" y="611" on="1"/>
        <pt x="173" y="611" on="0"/>
        <pt x="189" y="610" on="0"/>
        <pt x="202" y="604" on="0"/>
        <pt x="211" y="590" on="0"/>
        <pt x="211" y="578" on="1"/>
        <pt x="211" y="566" on="0"/>
        <pt x="202" y="552" on="0"/>
        <pt x="189" y="546" on="0"/>
        <pt x="174" y="545" on="0"/>
        <pt x="167" y="545" on="1"/>
        <pt x="194" y="489" on="1"/>
        <pt x="221" y="430" on="0"/>
        <pt x="259" y="346" on="0"/>
        <pt x="264" y="323" on="1"/>
        <pt x="265" y="323" on="1"/>
        <pt x="268" y="335" on="0"/>
        <pt x="283" y="372" on="0"/>
        <pt x="303" y="417" on="0"/>
        <pt x="326" y="467" on="0"/>
        <pt x="338" y="492" on="1"/>
        <pt x="341" y="499" on="0"/>
        <pt x="349" y="517" on="0"/>
        <pt x="357" y="533" on="0"/>
        <pt x="363" y="545" on="0"/>
        <pt x="363" y="545" on="1"/>
        <pt x="356" y="545" on="0"/>
        <pt x="341" y="546" on="0"/>
        <pt x="328" y="552" on="0"/>
        <pt x="319" y="566" on="0"/>
        <pt x="319" y="578" on="1"/>
        <pt x="319" y="590" on="0"/>
        <pt x="328" y="604" on="0"/>
        <pt x="341" y="610" on="0"/>
        <pt x="357" y="611" on="0"/>
        <pt x="364" y="611" on="1"/>
        <pt x="464" y="611" on="1"/>
        <pt x="470" y="611" on="0"/>
        <pt x="486" y="610" on="0"/>
        <pt x="500" y="604" on="0"/>
        <pt x="510" y="590" on="0"/>
        <pt x="510" y="578" on="1"/>
        <pt x="510" y="566" on="0"/>
        <pt x="500" y="552" on="0"/>
        <pt x="486" y="546" on="0"/>
        <pt x="470" y="545" on="0"/>
        <pt x="464" y="545" on="1"/>
        <pt x="448" y="545" on="1"/>
      </contour>
    </TTGlyph>
    <TTGlyph name="Z" xMin="48" yMin="0" xMax="487" yMax="611">
      <contour>
        <pt x="146" y="66" on="1"/>
        <pt x="411" y="66" on="1"/>
        <pt x="411" y="134" on="1"/>
        <pt x="411" y="151" on="0"/>
        <pt x="421" y="179" on="0"/>
        <pt x="449" y="179" on="1"/>
        <pt x="463" y="179" on="0"/>
        <pt x="479" y="171" on="0"/>
        <pt x="486" y="158" on="0"/>
        <pt x="487" y="142" on="0"/>
        <pt x="487" y="134" on="1"/>
        <pt x="487" y="45" on="1"/>
        <pt x="487" y="16" on="0"/>
        <pt x="469" y="0" on="0"/>
        <pt x="442" y="0" on="1"/>
        <pt x="93" y="0" on="1"/>
        <pt x="85" y="0" on="0"/>
        <pt x="69" y="1" on="0"/>
        <pt x="56" y="8" on="0"/>
        <pt x="48" y="24" on="0"/>
        <pt x="48" y="38" on="1"/>
        <pt x="48" y="49" on="0"/>
        <pt x="51" y="57" on="0"/>
        <pt x="58" y="68" on="1"/>
        <pt x="384" y="545" on="1"/>
        <pt x="136" y="545" on="1"/>
        <pt x="136" y="496" on="1"/>
        <pt x="136" y="488" on="0"/>
        <pt x="135" y="472" on="0"/>
        <pt x="128" y="459" on="0"/>
        <pt x="112" y="451" on="0"/>
        <pt x="98" y="451" on="1"/>
        <pt x="84" y="451" on="0"/>
        <pt x="68" y="459" on="0"/>
        <pt x="61" y="472" on="0"/>
        <pt x="60" y="488" on="0"/>
        <pt x="60" y="496" on="1"/>
        <pt x="60" y="566" on="1"/>
        <pt x="60" y="595" on="0"/>
        <pt x="79" y="611" on="0"/>
        <pt x="106" y="611" on="1"/>
        <pt x="437" y="611" on="1"/>
        <pt x="445" y="611" on="0"/>
        <pt x="461" y="610" on="0"/>
        <pt x="474" y="603" on="0"/>
        <pt x="482" y="587" on="0"/>
        <pt x="482" y="573" on="1"/>
        <pt x="482" y="562" on="0"/>
        <pt x="479" y="554" on="0"/>
        <pt x="472" y="543" on="1"/>
      </contour>
    </TTGlyph>
    <TTGlyph name="a" xMin="53" yMin="-5" xMax="530" yMax="439">
      <contour>
        <pt x="431" y="73" on="1"/>
        <pt x="439" y="70" on="0"/>
        <pt x="459" y="66" on="0"/>
        <pt x="488" y="66" on="1"/>
        <pt x="493" y="66" on="0"/>
        <pt x="508" y="65" on="0"/>
        <pt x="521" y="59" on="0"/>
        <pt x="530" y="45" on="0"/>
        <pt x="530" y="33" on="1"/>
        <pt x="530" y="21" on="0"/>
        <pt x="521" y="7" on="0"/>
        <pt x="506" y="1" on="0"/>
        <pt x="487" y="0" on="0"/>
        <pt x="477" y="0" on="1"/>
        <pt x="441" y="0" on="0"/>
        <pt x="382" y="11" on="0"/>
        <pt x="366" y="34" on="1"/>
        <pt x="361" y="31" on="0"/>
        <pt x="338" y="18" on="0"/>
        <pt x="302" y="5" on="0"/>
        <pt x="253" y="-5" on="0"/>
        <pt x="223" y="-5" on="1"/>
        <pt x="185" y="-5" on="0"/>
        <pt x="123" y="17" on="0"/>
        <pt x="78" y="55" on="0"/>
        <pt x="53" y="105" on="0"/>
        <pt x="53" y="133" on="1"/>
        <pt x="53" y="164" on="0"/>
        <pt x="83" y="210" on="0"/>
        <pt x="132" y="242" on="0"/>
        <pt x="196" y="264" on="0"/>
        <pt x="263" y="276" on="0"/>
        <pt x="328" y="281" on="0"/>
        <pt x="355" y="281" on="1"/>
        <pt x="355" y="323" on="0"/>
        <pt x="292" y="373" on="0"/>
        <pt x="230" y="373" on="1"/>
        <pt x="221" y="373" on="0"/>
        <pt x="198" y="373" on="0"/>
        <pt x="190" y="372" on="1"/>
        <pt x="180" y="370" on="0"/>
        <pt x="176" y="367" on="0"/>
        <pt x="176" y="361" on="1"/>
        <pt x="174" y="334" on="0"/>
        <pt x="142" y="313" on="0"/>
        <pt x="128" y="313" on="1"/>
        <pt x="105" y="313" on="0"/>
        <pt x="79" y="342" on="0"/>
        <pt x="79" y="362" on="1"/>
        <pt x="79" y="391" on="0"/>
        <pt x="113" y="422" on="0"/>
        <pt x="160" y="437" on="0"/>
        <pt x="211" y="439" on="0"/>
        <pt x="229" y="439" on="1"/>
        <pt x="278" y="439" on="0"/>
        <pt x="353" y="415" on="0"/>
        <pt x="404" y="372" on="0"/>
        <pt x="431" y="314" on="0"/>
        <pt x="431" y="280" on="1"/>
      </contour>
      <contour>
        <pt x="355" y="217" on="1"/>
        <pt x="312" y="217" on="0"/>
        <pt x="230" y="205" on="0"/>
        <pt x="167" y="184" on="0"/>
        <pt x="129" y="153" on="0"/>
        <pt x="129" y="133" on="1"/>
        <pt x="129" y="105" on="0"/>
        <pt x="184" y="61" on="0"/>
        <pt x="229" y="61" on="1"/>
        <pt x="238" y="61" on="0"/>
        <pt x="291" y="66" on="0"/>
        <pt x="318" y="80" on="1"/>
        <pt x="346" y="94" on="0"/>
        <pt x="355" y="128" on="0"/>
        <pt x="355" y="145" on="1"/>
      </contour>
    </TTGlyph>
    <TTGlyph name="alpha" xMin="69" yMin="-5" xMax="509" yMax="436">
      <contour>
        <pt x="443" y="79" on="1"/>
        <pt x="447" y="82" on="0"/>
        <pt x="456" y="86" on="0"/>
        <pt x="471" y="86" on="1"/>
        <pt x="485" y="86" on="0"/>
        <pt x="501" y="77" on="0"/>
        <pt x="508" y="65" on="0"/>
        <pt x="509" y="55" on="0"/>
        <pt x="509" y="55" on="1"/>
        <pt x="509" y="45" on="0"/>
        <pt x="498" y="24" on="0"/>
        <pt x="476" y="6" on="0"/>
        <pt x="444" y="-5" on="0"/>
        <pt x="424" y="-5" on="1"/>
        <pt x="392" y="-5" on="0"/>
        <pt x="356" y="31" on="0"/>
        <pt x="349" y="59" on="1"/>
        <pt x="318" y="33" on="0"/>
        <pt x="241" y="-5" on="0"/>
        <pt x="196" y="-5" on="1"/>
        <pt x="163" y="-5" on="0"/>
        <pt x="115" y="23" on="0"/>
        <pt x="84" y="68" on="0"/>
        <pt x="69" y="123" on="0"/>
        <pt x="69" y="151" on="1"/>
        <pt x="69" y="202" on="0"/>
        <pt x="106" y="303" on="0"/>
        <pt x="167" y="385" on="0"/>
        <pt x="246" y="436" on="0"/>
        <pt x="288" y="436" on="1"/>
        <pt x="323" y="436" on="0"/>
        <pt x="368" y="409" on="0"/>
        <pt x="397" y="372" on="0"/>
        <pt x="412" y="330" on="0"/>
        <pt x="415" y="315" on="1"/>
        <pt x="423" y="341" on="0"/>
        <pt x="427" y="361" on="0"/>
        <pt x="429" y="366" on="1"/>
        <pt x="436" y="383" on="0"/>
        <pt x="457" y="389" on="0"/>
        <pt x="466" y="389" on="1"/>
        <pt x="468" y="389" on="0"/>
        <pt x="481" y="388" on="0"/>
        <pt x="494" y="382" on="0"/>
        <pt x="504" y="370" on="0"/>
        <pt x="504" y="358" on="1"/>
        <pt x="504" y="356" on="0"/>
        <pt x="494" y="315" on="0"/>
        <pt x="474" y="255" on="0"/>
        <pt x="442" y="181" on="0"/>
        <pt x="419" y="146" on="1"/>
        <pt x="419" y="139" on="0"/>
        <pt x="419" y="111" on="0"/>
        <pt x="421" y="83" on="0"/>
        <pt x="425" y="62" on="0"/>
        <pt x="428" y="62" on="1"/>
        <pt x="432" y="62" on="0"/>
        <pt x="435" y="67" on="1"/>
        <pt x="437" y="71" on="0"/>
        <pt x="440" y="74" on="1"/>
        <pt x="441" y="76" on="0"/>
        <pt x="443" y="78" on="0"/>
      </contour>
      <contour>
        <pt x="343" y="158" on="1"/>
        <pt x="343" y="178" on="0"/>
        <pt x="344" y="217" on="0"/>
        <pt x="344" y="237" on="1"/>
        <pt x="344" y="263" on="0"/>
        <pt x="340" y="310" on="0"/>
        <pt x="328" y="348" on="0"/>
        <pt x="306" y="370" on="0"/>
        <pt x="287" y="370" on="1"/>
        <pt x="265" y="370" on="0"/>
        <pt x="215" y="332" on="0"/>
        <pt x="173" y="269" on="0"/>
        <pt x="145" y="189" on="0"/>
        <pt x="145" y="148" on="1"/>
        <pt x="145" y="133" on="0"/>
        <pt x="150" y="103" on="0"/>
        <pt x="162" y="77" on="0"/>
        <pt x="182" y="61" on="0"/>
        <pt x="197" y="61" on="1"/>
        <pt x="223" y="61" on="0"/>
        <pt x="267" y="81" on="0"/>
        <pt x="305" y="110" on="0"/>
        <pt x="334" y="144" on="0"/>
      </contour>
    </TTGlyph>
    <TTGlyph name="ampersand" xMin="28" yMin="-10" xMax="496" yMax="621">
      <contour>
        <pt x="374" y="232" on="1"/>
        <pt x="368" y="217" on="0"/>
        <pt x="354" y="185" on="0"/>
        <pt x="347" y="169" on="1"/>
        <pt x="341" y="156" on="0"/>
        <pt x="333" y="141" on="0"/>
        <pt x="327" y="130" on="0"/>
        <pt x="321" y="119" on="0"/>
        <pt x="315" y="110" on="1"/>
        <pt x="322" y="102" on="0"/>
        <pt x="340" y="83" on="0"/>
        <pt x="361" y="67" on="0"/>
        <pt x="384" y="56" on="0"/>
        <pt x="396" y="56" on="1"/>
        <pt x="412" y="56" on="0"/>
        <pt x="428" y="87" on="0"/>
        <pt x="430" y="106" on="1"/>
        <pt x="430" y="109" on="0"/>
        <pt x="432" y="120" on="0"/>
        <pt x="438" y="131" on="0"/>
        <pt x="450" y="140" on="0"/>
        <pt x="461" y="140" on="1"/>
        <pt x="471" y="140" on="0"/>
        <pt x="492" y="126" on="0"/>
        <pt x="492" y="105" on="1"/>
        <pt x="492" y="89" on="0"/>
        <pt x="482" y="49" on="0"/>
        <pt x="459" y="14" on="0"/>
        <pt x="423" y="-10" on="0"/>
        <pt x="396" y="-10" on="1"/>
        <pt x="375" y="-10" on="0"/>
        <pt x="337" y="6" on="0"/>
        <pt x="307" y="27" on="0"/>
        <pt x="284" y="49" on="0"/>
        <pt x="278" y="56" on="1"/>
        <pt x="268" y="45" on="0"/>
        <pt x="243" y="21" on="0"/>
        <pt x="211" y="2" on="0"/>
        <pt x="174" y="-10" on="0"/>
        <pt x="153" y="-10" on="1"/>
        <pt x="124" y="-10" on="0"/>
        <pt x="77" y="15" on="0"/>
        <pt x="45" y="57" on="0"/>
        <pt x="28" y="111" on="0"/>
        <pt x="28" y="139" on="1"/>
        <pt x="28" y="166" on="0"/>
        <pt x="39" y="207" on="0"/>
        <pt x="64" y="246" on="0"/>
        <pt x="103" y="287" on="0"/>
        <pt x="130" y="314" on="1"/>
        <pt x="113" y="361" on="0"/>
        <pt x="102" y="447" on="0"/>
        <pt x="102" y="474" on="1"/>
        <pt x="102" y="509" on="0"/>
        <pt x="120" y="564" on="0"/>
        <pt x="150" y="602" on="0"/>
        <pt x="190" y="621" on="0"/>
        <pt x="212" y="621" on="1"/>
        <pt x="238" y="621" on="0"/>
        <pt x="274" y="596" on="0"/>
        <pt x="297" y="556" on="0"/>
        <pt x="308" y="507" on="0"/>
        <pt x="308" y="482" on="1"/>
        <pt x="308" y="472" on="0"/>
        <pt x="305" y="441" on="0"/>
        <pt x="285" y="396" on="0"/>
        <pt x="243" y="335" on="0"/>
        <pt x="204" y="295" on="1"/>
        <pt x="212" y="275" on="0"/>
        <pt x="236" y="231" on="0"/>
        <pt x="258" y="193" on="0"/>
        <pt x="274" y="168" on="0"/>
        <pt x="275" y="166" on="1"/>
        <pt x="284" y="183" on="0"/>
        <pt x="300" y="216" on="0"/>
        <pt x="318" y="261" on="0"/>
        <pt x="342" y="322" on="0"/>
        <pt x="358" y="365" on="1"/>
        <pt x="327" y="368" on="0"/>
        <pt x="327" y="398" on="1"/>
        <pt x="327" y="410" on="0"/>
        <pt x="336" y="424" on="0"/>
        <pt x="350" y="430" on="0"/>
        <pt x="366" y="431" on="0"/>
        <pt x="372" y="431" on="1"/>
        <pt x="451" y="431" on="1"/>
        <pt x="457" y="431" on="0"/>
        <pt x="473" y="430" on="0"/>
        <pt x="487" y="424" on="0"/>
        <pt x="496" y="410" on="0"/>
        <pt x="496" y="398" on="1"/>
        <pt x="496" y="386" on="0"/>
        <pt x="487" y="372" on="0"/>
        <pt x="473" y="366" on="0"/>
        <pt x="457" y="365" on="0"/>
        <pt x="451" y="365" on="1"/>
        <pt x="425" y="365" on="1"/>
      </contour>
      <contour>
        <pt x="179" y="366" on="1"/>
        <pt x="205" y="394" on="0"/>
        <pt x="246" y="453" on="0"/>
        <pt x="246" y="482" on="1"/>
        <pt x="246" y="485" on="0"/>
        <pt x="244" y="508" on="0"/>
        <pt x="237" y="534" on="0"/>
        <pt x="223" y="555" on="0"/>
        <pt x="211" y="555" on="1"/>
        <pt x="195" y="555" on="0"/>
        <pt x="164" y="516" on="0"/>
        <pt x="164" y="474" on="1"/>
        <pt x="164" y="454" on="0"/>
        <pt x="171" y="396" on="0"/>
      </contour>
      <contour>
        <pt x="139" y="227" on="1"/>
        <pt x="133" y="221" on="0"/>
        <pt x="121" y="207" on="0"/>
        <pt x="110" y="188" on="0"/>
        <pt x="104" y="161" on="0"/>
        <pt x="104" y="142" on="1"/>
        <pt x="104" y="132" on="0"/>
        <pt x="108" y="102" on="0"/>
        <pt x="119" y="75" on="0"/>
        <pt x="138" y="56" on="0"/>
        <pt x="153" y="56" on="1"/>
        <pt x="170" y="56" on="0"/>
        <pt x="198" y="69" on="0"/>
        <pt x="221" y="87" on="0"/>
        <pt x="235" y="104" on="0"/>
        <pt x="238" y="108" on="1"/>
        <pt x="215" y="141" on="0"/>
        <pt x="175" y="211" on="0"/>
        <pt x="157" y="246" on="1"/>
      </contour>
    </TTGlyph>
    <TTGlyph name="arrowboth" xMin="30" yMin="-55" xMax="500" yMax="666">
      <contour>
        <pt x="140" y="450" on="1"/>
        <pt x="151" y="433" on="0"/>
        <pt x="166" y="398" on="0"/>
        <pt x="177" y="368" on="0"/>
        <pt x="182" y="346" on="0"/>
        <pt x="182" y="342" on="1"/>
        <pt x="182" y="332" on="0"/>
        <pt x="167" y="311" on="0"/>
        <pt x="150" y="311" on="1"/>
        <pt x="130" y="311" on="0"/>
        <pt x="118" y="332" on="0"/>
        <pt x="116" y="340" on="1"/>
        <pt x="109" y="367" on="0"/>
        <pt x="87" y="409" on="0"/>
        <pt x="68" y="438" on="0"/>
        <pt x="53" y="455" on="0"/>
        <pt x="51" y="456" on="1"/>
        <pt x="40" y="467" on="0"/>
        <pt x="30" y="478" on="0"/>
        <pt x="30" y="489" on="1"/>
        <pt x="30" y="499" on="0"/>
        <pt x="40" y="511" on="0"/>
        <pt x="51" y="521" on="1"/>
        <pt x="52" y="522" on="0"/>
        <pt x="67" y="538" on="0"/>
        <pt x="87" y="567" on="0"/>
        <pt x="109" y="609" on="0"/>
        <pt x="116" y="636" on="1"/>
        <pt x="118" y="645" on="0"/>
        <pt x="130" y="666" on="0"/>
        <pt x="150" y="666" on="1"/>
        <pt x="167" y="666" on="0"/>
        <pt x="182" y="645" on="0"/>
        <pt x="182" y="635" on="1"/>
        <pt x="182" y="631" on="0"/>
        <pt x="177" y="610" on="0"/>
        <pt x="167" y="580" on="0"/>
        <pt x="151" y="545" on="0"/>
        <pt x="140" y="527" on="1"/>
        <pt x="448" y="527" on="1"/>
        <pt x="454" y="527" on="0"/>
        <pt x="471" y="526" on="0"/>
        <pt x="488" y="518" on="0"/>
        <pt x="500" y="503" on="0"/>
        <pt x="500" y="488" on="1"/>
        <pt x="500" y="474" on="0"/>
        <pt x="488" y="458" on="0"/>
        <pt x="471" y="451" on="0"/>
        <pt x="453" y="450" on="0"/>
        <pt x="448" y="450" on="1"/>
      </contour>
      <contour>
        <pt x="82" y="84" on="1"/>
        <pt x="76" y="84" on="0"/>
        <pt x="59" y="85" on="0"/>
        <pt x="42" y="93" on="0"/>
        <pt x="30" y="108" on="0"/>
        <pt x="30" y="123" on="1"/>
        <pt x="30" y="137" on="0"/>
        <pt x="42" y="153" on="0"/>
        <pt x="59" y="160" on="0"/>
        <pt x="77" y="161" on="0"/>
        <pt x="82" y="161" on="1"/>
        <pt x="390" y="161" on="1"/>
        <pt x="380" y="178" on="0"/>
        <pt x="364" y="213" on="0"/>
        <pt x="353" y="243" on="0"/>
        <pt x="348" y="265" on="0"/>
        <pt x="348" y="269" on="1"/>
        <pt x="348" y="279" on="0"/>
        <pt x="363" y="300" on="0"/>
        <pt x="380" y="300" on="1"/>
        <pt x="400" y="300" on="0"/>
        <pt x="412" y="280" on="0"/>
        <pt x="414" y="272" on="1"/>
        <pt x="422" y="244" on="0"/>
        <pt x="442" y="201" on="0"/>
        <pt x="463" y="172" on="0"/>
        <pt x="480" y="156" on="0"/>
        <pt x="483" y="153" on="1"/>
        <pt x="490" y="146" on="0"/>
        <pt x="500" y="133" on="0"/>
        <pt x="500" y="122" on="1"/>
        <pt x="500" y="113" on="0"/>
        <pt x="491" y="100" on="0"/>
        <pt x="485" y="95" on="1"/>
        <pt x="465" y="75" on="0"/>
        <pt x="426" y="19" on="0"/>
        <pt x="414" y="-25" on="1"/>
        <pt x="412" y="-34" on="0"/>
        <pt x="400" y="-55" on="0"/>
        <pt x="380" y="-55" on="1"/>
        <pt x="363" y="-55" on="0"/>
        <pt x="348" y="-34" on="0"/>
        <pt x="348" y="-24" on="1"/>
        <pt x="348" y="-20" on="0"/>
        <pt x="353" y="1" on="0"/>
        <pt x="363" y="31" on="0"/>
        <pt x="379" y="66" on="0"/>
        <pt x="390" y="84" on="1"/>
      </contour>
    </TTGlyph>
    <TTGlyph name="arrowdown" xMin="57" yMin="1" xMax="473" yMax="612">
      <contour>
        <pt x="473" y="179" on="1"/>
        <pt x="473" y="166" on="0"/>
        <pt x="466" y="146" on="0"/>
        <pt x="452" y="142" on="1"/>
        <pt x="425" y="136" on="0"/>
        <pt x="379" y="118" on="0"/>
        <pt x="340" y="91" on="0"/>
        <pt x="308" y="51" on="0"/>
        <pt x="295" y="23" on="1"/>
        <pt x="290" y="13" on="0"/>
        <pt x="277" y="1" on="0"/>
        <pt x="266" y="1" on="1"/>
        <pt x="245" y="1" on="0"/>
        <pt x="235" y="23" on="1"/>
        <pt x="210" y="77" on="0"/>
        <pt x="138" y="127" on="0"/>
        <pt x="85" y="140" on="1"/>
        <pt x="69" y="144" on="0"/>
        <pt x="57" y="162" on="0"/>
        <pt x="57" y="179" on="1"/>
        <pt x="57" y="193" on="0"/>
        <pt x="70" y="217" on="0"/>
        <pt x="88" y="217" on="1"/>
        <pt x="99" y="217" on="0"/>
        <pt x="137" y="206" on="0"/>
        <pt x="178" y="189" on="0"/>
        <pt x="216" y="167" on="0"/>
        <pt x="227" y="156" on="1"/>
        <pt x="227" y="576" on="1"/>
        <pt x="227" y="589" on="0"/>
        <pt x="249" y="612" on="0"/>
        <pt x="265" y="612" on="1"/>
        <pt x="281" y="612" on="0"/>
        <pt x="304" y="590" on="0"/>
        <pt x="304" y="579" on="1"/>
        <pt x="304" y="579" on="0"/>
        <pt x="305" y="543" on="0"/>
        <pt x="305" y="483" on="0"/>
        <pt x="304" y="407" on="0"/>
        <pt x="304" y="367" on="1"/>
        <pt x="304" y="274" on="0"/>
        <pt x="304" y="156" on="1"/>
        <pt x="313" y="166" on="0"/>
        <pt x="348" y="187" on="0"/>
        <pt x="390" y="205" on="0"/>
        <pt x="430" y="217" on="0"/>
        <pt x="443" y="217" on="1"/>
        <pt x="460" y="217" on="0"/>
        <pt x="473" y="195" on="0"/>
      </contour>
    </TTGlyph>
    <TTGlyph name="arrowleft" xMin="29" yMin="129" xMax="501" yMax="485">
      <contour>
        <pt x="501" y="306" on="1"/>
        <pt x="501" y="294" on="0"/>
        <pt x="480" y="269" on="0"/>
        <pt x="467" y="269" on="1"/>
        <pt x="152" y="269" on="1"/>
        <pt x="164" y="244" on="0"/>
        <pt x="187" y="186" on="0"/>
        <pt x="187" y="160" on="1"/>
        <pt x="187" y="142" on="0"/>
        <pt x="164" y="129" on="0"/>
        <pt x="149" y="129" on="1"/>
        <pt x="132" y="129" on="0"/>
        <pt x="112" y="142" on="0"/>
        <pt x="110" y="159" on="1"/>
        <pt x="105" y="191" on="0"/>
        <pt x="71" y="260" on="0"/>
        <pt x="46" y="277" on="1"/>
        <pt x="29" y="289" on="0"/>
        <pt x="29" y="307" on="1"/>
        <pt x="29" y="325" on="0"/>
        <pt x="46" y="337" on="1"/>
        <pt x="71" y="354" on="0"/>
        <pt x="105" y="423" on="0"/>
        <pt x="110" y="455" on="1"/>
        <pt x="112" y="472" on="0"/>
        <pt x="132" y="485" on="0"/>
        <pt x="149" y="485" on="1"/>
        <pt x="164" y="485" on="0"/>
        <pt x="187" y="471" on="0"/>
        <pt x="187" y="454" on="1"/>
        <pt x="187" y="423" on="0"/>
        <pt x="164" y="370" on="0"/>
        <pt x="152" y="345" on="1"/>
        <pt x="467" y="345" on="1"/>
        <pt x="480" y="345" on="0"/>
        <pt x="501" y="319" on="0"/>
      </contour>
    </TTGlyph>
    <TTGlyph name="arrowright" xMin="29" yMin="129" xMax="501" yMax="485">
      <contour>
        <pt x="501" y="307" on="1"/>
        <pt x="501" y="297" on="0"/>
        <pt x="492" y="284" on="0"/>
        <pt x="485" y="278" on="1"/>
        <pt x="458" y="255" on="0"/>
        <pt x="425" y="194" on="0"/>
        <pt x="420" y="159" on="1"/>
        <pt x="417" y="141" on="0"/>
        <pt x="398" y="129" on="0"/>
        <pt x="381" y="129" on="1"/>
        <pt x="366" y="129" on="0"/>
        <pt x="343" y="145" on="0"/>
        <pt x="343" y="160" on="1"/>
        <pt x="343" y="176" on="0"/>
        <pt x="354" y="213" on="0"/>
        <pt x="361" y="229" on="1"/>
        <pt x="368" y="249" on="0"/>
        <pt x="378" y="268" on="1"/>
        <pt x="65" y="268" on="1"/>
        <pt x="50" y="268" on="0"/>
        <pt x="29" y="295" on="0"/>
        <pt x="29" y="308" on="1"/>
        <pt x="29" y="320" on="0"/>
        <pt x="50" y="345" on="0"/>
        <pt x="65" y="345" on="1"/>
        <pt x="378" y="345" on="1"/>
        <pt x="368" y="365" on="0"/>
        <pt x="361" y="384" on="1"/>
        <pt x="354" y="401" on="0"/>
        <pt x="343" y="439" on="0"/>
        <pt x="343" y="454" on="1"/>
        <pt x="343" y="469" on="0"/>
        <pt x="366" y="485" on="0"/>
        <pt x="381" y="485" on="1"/>
        <pt x="398" y="485" on="0"/>
        <pt x="417" y="473" on="0"/>
        <pt x="420" y="455" on="1"/>
        <pt x="425" y="420" on="0"/>
        <pt x="458" y="359" on="0"/>
        <pt x="485" y="336" on="1"/>
        <pt x="492" y="330" on="0"/>
        <pt x="501" y="317" on="0"/>
      </contour>
    </TTGlyph>
    <TTGlyph name="arrowup" xMin="57" yMin="0" xMax="474" yMax="612">
      <contour>
        <pt x="227" y="457" on="1"/>
        <pt x="215" y="445" on="0"/>
        <pt x="179" y="423" on="0"/>
        <pt x="139" y="406" on="0"/>
        <pt x="101" y="396" on="0"/>
        <pt x="88" y="396" on="1"/>
        <pt x="71" y="396" on="0"/>
        <pt x="57" y="419" on="0"/>
        <pt x="57" y="434" on="1"/>
        <pt x="57" y="450" on="0"/>
        <pt x="71" y="471" on="0"/>
        <pt x="85" y="473" on="1"/>
        <pt x="101" y="475" on="0"/>
        <pt x="144" y="491" on="0"/>
        <pt x="186" y="520" on="0"/>
        <pt x="224" y="562" on="0"/>
        <pt x="235" y="590" on="1"/>
        <pt x="238" y="598" on="0"/>
        <pt x="253" y="612" on="0"/>
        <pt x="267" y="612" on="1"/>
        <pt x="281" y="612" on="0"/>
        <pt x="293" y="598" on="0"/>
        <pt x="296" y="590" on="1"/>
        <pt x="307" y="562" on="0"/>
        <pt x="345" y="520" on="0"/>
        <pt x="387" y="491" on="0"/>
        <pt x="430" y="475" on="0"/>
        <pt x="446" y="473" on="1"/>
        <pt x="460" y="471" on="0"/>
        <pt x="474" y="450" on="0"/>
        <pt x="474" y="434" on="1"/>
        <pt x="474" y="419" on="0"/>
        <pt x="460" y="396" on="0"/>
        <pt x="443" y="396" on="1"/>
        <pt x="430" y="396" on="0"/>
        <pt x="392" y="406" on="0"/>
        <pt x="352" y="423" on="0"/>
        <pt x="316" y="445" on="0"/>
        <pt x="304" y="457" on="1"/>
        <pt x="304" y="41" on="1"/>
        <pt x="304" y="27" on="0"/>
        <pt x="286" y="0" on="0"/>
        <pt x="266" y="0" on="1"/>
        <pt x="245" y="0" on="0"/>
        <pt x="227" y="27" on="0"/>
        <pt x="227" y="41" on="1"/>
      </contour>
    </TTGlyph>
    <TTGlyph name="asciicircum" xMin="99" yMin="466" xMax="431" yMax="611">
      <contour>
        <pt x="407" y="541" on="1"/>
        <pt x="415" y="536" on="0"/>
        <pt x="431" y="524" on="0"/>
        <pt x="431" y="509" on="1"/>
        <pt x="431" y="505" on="0"/>
        <pt x="427" y="491" on="0"/>
        <pt x="418" y="477" on="0"/>
        <pt x="404" y="466" on="0"/>
        <pt x="394" y="466" on="1"/>
        <pt x="391" y="466" on="0"/>
        <pt x="380" y="468" on="0"/>
        <pt x="369" y="475" on="1"/>
        <pt x="265" y="535" on="1"/>
        <pt x="160" y="475" on="1"/>
        <pt x="152" y="470" on="0"/>
        <pt x="143" y="466" on="0"/>
        <pt x="136" y="466" on="1"/>
        <pt x="126" y="466" on="0"/>
        <pt x="112" y="477" on="0"/>
        <pt x="103" y="491" on="0"/>
        <pt x="99" y="505" on="0"/>
        <pt x="99" y="509" on="1"/>
        <pt x="99" y="521" on="0"/>
        <pt x="111" y="535" on="0"/>
        <pt x="124" y="542" on="1"/>
        <pt x="241" y="603" on="1"/>
        <pt x="252" y="609" on="0"/>
        <pt x="264" y="611" on="0"/>
        <pt x="265" y="611" on="1"/>
        <pt x="270" y="611" on="0"/>
        <pt x="276" y="609" on="0"/>
        <pt x="287" y="603" on="1"/>
      </contour>
    </TTGlyph>
    <TTGlyph name="asciitilde" xMin="89" yMin="486" xMax="441" yMax="611">
      <contour>
        <pt x="441" y="577" on="1"/>
        <pt x="441" y="570" on="0"/>
        <pt x="431" y="554" on="0"/>
        <pt x="415" y="539" on="0"/>
        <pt x="398" y="525" on="0"/>
        <pt x="390" y="519" on="1"/>
        <pt x="365" y="500" on="0"/>
        <pt x="327" y="486" on="0"/>
        <pt x="311" y="486" on="1"/>
        <pt x="285" y="486" on="0"/>
        <pt x="253" y="510" on="0"/>
        <pt x="240" y="523" on="1"/>
        <pt x="232" y="531" on="0"/>
        <pt x="221" y="540" on="0"/>
        <pt x="216" y="540" on="1"/>
        <pt x="199" y="540" on="0"/>
        <pt x="163" y="513" on="0"/>
        <pt x="152" y="502" on="1"/>
        <pt x="146" y="496" on="0"/>
        <pt x="133" y="486" on="0"/>
        <pt x="123" y="486" on="1"/>
        <pt x="109" y="486" on="0"/>
        <pt x="89" y="507" on="0"/>
        <pt x="89" y="520" on="1"/>
        <pt x="89" y="528" on="0"/>
        <pt x="99" y="543" on="0"/>
        <pt x="115" y="558" on="0"/>
        <pt x="133" y="572" on="0"/>
        <pt x="140" y="578" on="1"/>
        <pt x="165" y="597" on="0"/>
        <pt x="203" y="611" on="0"/>
        <pt x="219" y="611" on="1"/>
        <pt x="245" y="611" on="0"/>
        <pt x="277" y="587" on="0"/>
        <pt x="290" y="574" on="1"/>
        <pt x="298" y="566" on="0"/>
        <pt x="309" y="557" on="0"/>
        <pt x="314" y="557" on="1"/>
        <pt x="331" y="557" on="0"/>
        <pt x="367" y="584" on="0"/>
        <pt x="378" y="595" on="1"/>
        <pt x="384" y="601" on="0"/>
        <pt x="397" y="611" on="0"/>
        <pt x="407" y="611" on="1"/>
        <pt x="421" y="611" on="0"/>
        <pt x="441" y="590" on="0"/>
      </contour>
    </TTGlyph>
    <TTGlyph name="asterisk" xMin="69" yMin="90" xMax="461" yMax="521">
      <contour>
        <pt x="332" y="305" on="1"/>
        <pt x="442" y="248" on="1"/>
        <pt x="451" y="242" on="0"/>
        <pt x="461" y="227" on="0"/>
        <pt x="461" y="216" on="1"/>
        <pt x="461" y="196" on="0"/>
        <pt x="436" y="179" on="0"/>
        <pt x="425" y="179" on="1"/>
        <pt x="420" y="179" on="0"/>
        <pt x="410" y="183" on="0"/>
        <pt x="390" y="194" on="1"/>
        <pt x="298" y="249" on="1"/>
        <pt x="300" y="221" on="0"/>
        <pt x="301" y="161" on="0"/>
        <pt x="301" y="133" on="1"/>
        <pt x="301" y="110" on="0"/>
        <pt x="281" y="90" on="0"/>
        <pt x="265" y="90" on="1"/>
        <pt x="247" y="90" on="0"/>
        <pt x="229" y="113" on="0"/>
        <pt x="229" y="133" on="1"/>
        <pt x="229" y="161" on="0"/>
        <pt x="230" y="221" on="0"/>
        <pt x="232" y="249" on="1"/>
        <pt x="137" y="193" on="1"/>
        <pt x="120" y="183" on="0"/>
        <pt x="112" y="179" on="0"/>
        <pt x="105" y="179" on="1"/>
        <pt x="94" y="179" on="0"/>
        <pt x="69" y="196" on="0"/>
        <pt x="69" y="216" on="1"/>
        <pt x="69" y="230" on="0"/>
        <pt x="83" y="245" on="0"/>
        <pt x="96" y="252" on="1"/>
        <pt x="198" y="306" on="1"/>
        <pt x="95" y="360" on="1"/>
        <pt x="86" y="365" on="0"/>
        <pt x="69" y="379" on="0"/>
        <pt x="69" y="395" on="1"/>
        <pt x="69" y="415" on="0"/>
        <pt x="94" y="432" on="0"/>
        <pt x="105" y="432" on="1"/>
        <pt x="107" y="432" on="0"/>
        <pt x="120" y="430" on="0"/>
        <pt x="132" y="422" on="1"/>
        <pt x="232" y="362" on="1"/>
        <pt x="230" y="390" on="0"/>
        <pt x="229" y="450" on="0"/>
        <pt x="229" y="478" on="1"/>
        <pt x="229" y="501" on="0"/>
        <pt x="249" y="521" on="0"/>
        <pt x="265" y="521" on="1"/>
        <pt x="283" y="521" on="0"/>
        <pt x="301" y="498" on="0"/>
        <pt x="301" y="478" on="1"/>
        <pt x="301" y="450" on="0"/>
        <pt x="300" y="390" on="0"/>
        <pt x="298" y="362" on="1"/>
        <pt x="393" y="418" on="1"/>
        <pt x="410" y="428" on="0"/>
        <pt x="418" y="432" on="0"/>
        <pt x="425" y="432" on="1"/>
        <pt x="436" y="432" on="0"/>
        <pt x="461" y="415" on="0"/>
        <pt x="461" y="395" on="1"/>
        <pt x="461" y="381" on="0"/>
        <pt x="447" y="366" on="0"/>
        <pt x="434" y="359" on="1"/>
      </contour>
    </TTGlyph>
    <TTGlyph name="at" xMin="44" yMin="-5" xMax="486" yMax="616">
      <contour>
        <pt x="397" y="489" on="1"/>
        <pt x="386" y="515" on="0"/>
        <pt x="340" y="550" on="0"/>
        <pt x="308" y="550" on="1"/>
        <pt x="271" y="550" on="0"/>
        <pt x="198" y="515" on="0"/>
        <pt x="141" y="450" on="0"/>
        <pt x="106" y="360" on="0"/>
        <pt x="106" y="305" on="1"/>
        <pt x="106" y="253" on="0"/>
        <pt x="140" y="163" on="0"/>
        <pt x="196" y="98" on="0"/>
        <pt x="269" y="61" on="0"/>
        <pt x="309" y="61" on="1"/>
        <pt x="334" y="61" on="0"/>
        <pt x="385" y="78" on="0"/>
        <pt x="410" y="101" on="1"/>
        <pt x="418" y="109" on="0"/>
        <pt x="429" y="114" on="0"/>
        <pt x="445" y="114" on="1"/>
        <pt x="449" y="114" on="0"/>
        <pt x="463" y="113" on="0"/>
        <pt x="476" y="107" on="0"/>
        <pt x="486" y="95" on="0"/>
        <pt x="486" y="83" on="1"/>
        <pt x="486" y="72" on="0"/>
        <pt x="467" y="51" on="0"/>
        <pt x="444" y="34" on="0"/>
        <pt x="423" y="23" on="0"/>
        <pt x="421" y="22" on="1"/>
        <pt x="388" y="5" on="0"/>
        <pt x="331" y="-5" on="0"/>
        <pt x="310" y="-5" on="1"/>
        <pt x="256" y="-5" on="0"/>
        <pt x="159" y="42" on="0"/>
        <pt x="87" y="126" on="0"/>
        <pt x="44" y="240" on="0"/>
        <pt x="44" y="306" on="1"/>
        <pt x="44" y="372" on="0"/>
        <pt x="87" y="486" on="0"/>
        <pt x="160" y="569" on="0"/>
        <pt x="256" y="616" on="0"/>
        <pt x="308" y="616" on="1"/>
        <pt x="360" y="616" on="0"/>
        <pt x="430" y="564" on="0"/>
        <pt x="447" y="533" on="1"/>
        <pt x="469" y="490" on="0"/>
        <pt x="486" y="392" on="0"/>
        <pt x="486" y="321" on="1"/>
        <pt x="486" y="255" on="0"/>
        <pt x="453" y="172" on="0"/>
        <pt x="407" y="124" on="0"/>
        <pt x="356" y="106" on="0"/>
        <pt x="338" y="106" on="1"/>
        <pt x="308" y="106" on="0"/>
        <pt x="254" y="136" on="0"/>
        <pt x="213" y="190" on="0"/>
        <pt x="190" y="263" on="0"/>
        <pt x="190" y="305" on="1"/>
        <pt x="190" y="349" on="0"/>
        <pt x="214" y="422" on="0"/>
        <pt x="255" y="475" on="0"/>
        <pt x="308" y="505" on="0"/>
        <pt x="338" y="505" on="1"/>
        <pt x="357" y="505" on="0"/>
        <pt x="388" y="494" on="0"/>
      </contour>
      <contour>
        <pt x="338" y="172" on="1"/>
        <pt x="354" y="172" on="0"/>
        <pt x="385" y="191" on="0"/>
        <pt x="409" y="227" on="0"/>
        <pt x="424" y="276" on="0"/>
        <pt x="424" y="306" on="1"/>
        <pt x="424" y="335" on="0"/>
        <pt x="409" y="384" on="0"/>
        <pt x="385" y="419" on="0"/>
        <pt x="354" y="439" on="0"/>
        <pt x="338" y="439" on="1"/>
        <pt x="322" y="439" on="0"/>
        <pt x="291" y="420" on="0"/>
        <pt x="267" y="384" on="0"/>
        <pt x="252" y="335" on="0"/>
        <pt x="252" y="305" on="1"/>
        <pt x="252" y="276" on="0"/>
        <pt x="267" y="227" on="0"/>
        <pt x="291" y="192" on="0"/>
        <pt x="322" y="172" on="0"/>
      </contour>
    </TTGlyph>
    <TTGlyph name="b" xMin="11" yMin="-5" xMax="496" yMax="611">
      <contour>
        <pt x="171" y="391" on="1"/>
        <pt x="198" y="412" on="0"/>
        <pt x="260" y="436" on="0"/>
        <pt x="295" y="436" on="1"/>
        <pt x="337" y="436" on="0"/>
        <pt x="410" y="401" on="0"/>
        <pt x="465" y="341" on="0"/>
        <pt x="496" y="261" on="0"/>
        <pt x="496" y="216" on="1"/>
        <pt x="496" y="168" on="0"/>
        <pt x="461" y="87" on="0"/>
        <pt x="403" y="28" on="0"/>
        <pt x="327" y="-5" on="0"/>
        <pt x="285" y="-5" on="1"/>
        <pt x="252" y="-5" on="0"/>
        <pt x="194" y="19" on="0"/>
        <pt x="171" y="42" on="1"/>
        <pt x="171" y="35" on="0"/>
        <pt x="170" y="20" on="0"/>
        <pt x="163" y="8" on="0"/>
        <pt x="147" y="0" on="0"/>
        <pt x="133" y="0" on="1"/>
        <pt x="119" y="0" on="0"/>
        <pt x="103" y="8" on="0"/>
        <pt x="96" y="21" on="0"/>
        <pt x="95" y="37" on="0"/>
        <pt x="95" y="45" on="1"/>
        <pt x="95" y="545" on="1"/>
        <pt x="56" y="545" on="1"/>
        <pt x="49" y="545" on="0"/>
        <pt x="34" y="546" on="0"/>
        <pt x="20" y="552" on="0"/>
        <pt x="11" y="566" on="0"/>
        <pt x="11" y="578" on="1"/>
        <pt x="11" y="590" on="0"/>
        <pt x="20" y="604" on="0"/>
        <pt x="33" y="610" on="0"/>
        <pt x="49" y="611" on="0"/>
        <pt x="56" y="611" on="1"/>
        <pt x="126" y="611" on="1"/>
        <pt x="153" y="611" on="0"/>
        <pt x="171" y="594" on="0"/>
        <pt x="171" y="566" on="1"/>
      </contour>
      <contour>
        <pt x="171" y="196" on="1"/>
        <pt x="171" y="175" on="0"/>
        <pt x="186" y="128" on="0"/>
        <pt x="214" y="87" on="0"/>
        <pt x="255" y="61" on="0"/>
        <pt x="282" y="61" on="1"/>
        <pt x="308" y="61" on="0"/>
        <pt x="358" y="84" on="0"/>
        <pt x="397" y="125" on="0"/>
        <pt x="420" y="182" on="0"/>
        <pt x="420" y="216" on="1"/>
        <pt x="420" y="248" on="0"/>
        <pt x="399" y="304" on="0"/>
        <pt x="364" y="346" on="0"/>
        <pt x="317" y="370" on="0"/>
        <pt x="291" y="370" on="1"/>
        <pt x="269" y="370" on="0"/>
        <pt x="225" y="354" on="0"/>
        <pt x="192" y="325" on="0"/>
        <pt x="171" y="285" on="0"/>
        <pt x="171" y="261" on="1"/>
      </contour>
    </TTGlyph>
    <TTGlyph name="backslash" xMin="59" yMin="-83" xMax="471" yMax="694">
      <contour>
        <pt x="463" y="-19" on="1"/>
        <pt x="467" y="-27" on="0"/>
        <pt x="471" y="-37" on="0"/>
        <pt x="471" y="-44" on="1"/>
        <pt x="471" y="-62" on="0"/>
        <pt x="447" y="-83" on="0"/>
        <pt x="433" y="-83" on="1"/>
        <pt x="417" y="-83" on="0"/>
        <pt x="399" y="-66" on="0"/>
        <pt x="394" y="-54" on="1"/>
        <pt x="67" y="630" on="1"/>
        <pt x="63" y="638" on="0"/>
        <pt x="59" y="648" on="0"/>
        <pt x="59" y="655" on="1"/>
        <pt x="59" y="673" on="0"/>
        <pt x="83" y="694" on="0"/>
        <pt x="97" y="694" on="1"/>
        <pt x="113" y="694" on="0"/>
        <pt x="131" y="677" on="0"/>
        <pt x="136" y="665" on="1"/>
      </contour>
    </TTGlyph>
    <TTGlyph name="bar" xMin="227" yMin="-83" xMax="304" yMax="694">
      <contour>
        <pt x="304" y="-31" on="1"/>
        <pt x="304" y="-37" on="0"/>
        <pt x="303" y="-54" on="0"/>
        <pt x="295" y="-71" on="0"/>
        <pt x="280" y="-83" on="0"/>
        <pt x="265" y="-83" on="1"/>
        <pt x="251" y="-83" on="0"/>
        <pt x="235" y="-71" on="0"/>
        <pt x="228" y="-54" on="0"/>
        <pt x="227" y="-36" on="0"/>
        <pt x="227" y="-31" on="1"/>
        <pt x="227" y="642" on="1"/>
        <pt x="227" y="648" on="0"/>
        <pt x="228" y="665" on="0"/>
        <pt x="236" y="682" on="0"/>
        <pt x="251" y="694" on="0"/>
        <pt x="266" y="694" on="1"/>
        <pt x="280" y="694" on="0"/>
        <pt x="296" y="682" on="0"/>
        <pt x="303" y="665" on="0"/>
        <pt x="304" y="647" on="0"/>
        <pt x="304" y="642" on="1"/>
      </contour>
    </TTGlyph>
    <TTGlyph name="beta" xMin="-26" yMin="-222" xMax="520" yMax="616">
      <contour>
        <pt x="130" y="436" on="1"/>
        <pt x="142" y="482" on="0"/>
        <pt x="199" y="550" on="0"/>
        <pt x="273" y="594" on="0"/>
        <pt x="356" y="616" on="0"/>
        <pt x="392" y="616" on="1"/>
        <pt x="452" y="616" on="0"/>
        <pt x="520" y="553" on="0"/>
        <pt x="520" y="506" on="1"/>
        <pt x="520" y="472" on="0"/>
        <pt x="481" y="410" on="0"/>
        <pt x="450" y="390" on="1"/>
        <pt x="453" y="387" on="0"/>
        <pt x="454" y="384" on="0"/>
        <pt x="457" y="379" on="1"/>
        <pt x="485" y="341" on="0"/>
        <pt x="494" y="283" on="0"/>
        <pt x="494" y="266" on="1"/>
        <pt x="494" y="216" on="0"/>
        <pt x="454" y="118" on="0"/>
        <pt x="387" y="41" on="0"/>
        <pt x="300" y="-7" on="0"/>
        <pt x="252" y="-7" on="1"/>
        <pt x="224" y="-7" on="0"/>
        <pt x="178" y="6" on="0"/>
        <pt x="143" y="24" on="0"/>
        <pt x="119" y="44" on="0"/>
        <pt x="112" y="51" on="1"/>
        <pt x="92" y="-29" on="0"/>
        <pt x="68" y="-124" on="0"/>
        <pt x="55" y="-178" on="0"/>
        <pt x="50" y="-199" on="0"/>
        <pt x="48" y="-203" on="1"/>
        <pt x="43" y="-217" on="0"/>
        <pt x="19" y="-222" on="0"/>
        <pt x="12" y="-222" on="1"/>
        <pt x="-2" y="-222" on="0"/>
        <pt x="-18" y="-213" on="0"/>
        <pt x="-25" y="-203" on="0"/>
        <pt x="-26" y="-193" on="0"/>
        <pt x="-26" y="-191" on="1"/>
        <pt x="-26" y="-186" on="0"/>
        <pt x="-24" y="-178" on="0"/>
        <pt x="-23" y="-174" on="1"/>
      </contour>
      <contour>
        <pt x="151" y="210" on="1"/>
        <pt x="149" y="199" on="0"/>
        <pt x="145" y="182" on="0"/>
        <pt x="145" y="167" on="1"/>
        <pt x="145" y="118" on="0"/>
        <pt x="205" y="59" on="0"/>
        <pt x="253" y="59" on="1"/>
        <pt x="282" y="59" on="0"/>
        <pt x="341" y="95" on="0"/>
        <pt x="388" y="153" on="0"/>
        <pt x="418" y="229" on="0"/>
        <pt x="418" y="269" on="1"/>
        <pt x="418" y="295" on="0"/>
        <pt x="406" y="330" on="0"/>
        <pt x="390" y="351" on="0"/>
        <pt x="374" y="359" on="0"/>
        <pt x="370" y="359" on="1"/>
        <pt x="367" y="359" on="0"/>
        <pt x="358" y="357" on="0"/>
        <pt x="347" y="357" on="1"/>
        <pt x="323" y="357" on="1"/>
        <pt x="300" y="357" on="0"/>
        <pt x="263" y="358" on="0"/>
        <pt x="236" y="365" on="0"/>
        <pt x="221" y="380" on="0"/>
        <pt x="221" y="394" on="1"/>
        <pt x="221" y="408" on="0"/>
        <pt x="236" y="423" on="0"/>
        <pt x="264" y="430" on="0"/>
        <pt x="303" y="431" on="0"/>
        <pt x="326" y="431" on="1"/>
        <pt x="338" y="431" on="0"/>
        <pt x="353" y="431" on="0"/>
        <pt x="364" y="430" on="0"/>
        <pt x="372" y="429" on="0"/>
        <pt x="377" y="428" on="1"/>
        <pt x="402" y="437" on="0"/>
        <pt x="444" y="481" on="0"/>
        <pt x="444" y="507" on="1"/>
        <pt x="444" y="527" on="0"/>
        <pt x="416" y="550" on="0"/>
        <pt x="390" y="550" on="1"/>
        <pt x="373" y="550" on="0"/>
        <pt x="318" y="538" on="0"/>
        <pt x="262" y="508" on="0"/>
        <pt x="214" y="457" on="0"/>
        <pt x="204" y="418" on="1"/>
      </contour>
    </TTGlyph>
    <TTGlyph name="braceleft" xMin="56" yMin="-83" xMax="474" yMax="694">
      <contour>
        <pt x="303" y="50" on="1"/>
        <pt x="303" y="41" on="0"/>
        <pt x="304" y="25" on="0"/>
        <pt x="312" y="12" on="0"/>
        <pt x="329" y="0" on="0"/>
        <pt x="345" y="-5" on="1"/>
        <pt x="357" y="-9" on="0"/>
        <pt x="383" y="-13" on="0"/>
        <pt x="408" y="-16" on="0"/>
        <pt x="428" y="-17" on="0"/>
        <pt x="433" y="-17" on="1"/>
        <pt x="438" y="-17" on="0"/>
        <pt x="452" y="-18" on="0"/>
        <pt x="465" y="-25" on="0"/>
        <pt x="474" y="-38" on="0"/>
        <pt x="474" y="-50" on="1"/>
        <pt x="474" y="-62" on="0"/>
        <pt x="465" y="-76" on="0"/>
        <pt x="451" y="-82" on="0"/>
        <pt x="436" y="-83" on="0"/>
        <pt x="430" y="-83" on="1"/>
        <pt x="425" y="-83" on="0"/>
        <pt x="395" y="-82" on="0"/>
        <pt x="355" y="-78" on="0"/>
        <pt x="311" y="-67" on="0"/>
        <pt x="291" y="-58" on="1"/>
        <pt x="267" y="-47" on="0"/>
        <pt x="241" y="-18" on="0"/>
        <pt x="229" y="11" on="0"/>
        <pt x="227" y="37" on="0"/>
        <pt x="227" y="46" on="1"/>
        <pt x="227" y="201" on="1"/>
        <pt x="227" y="220" on="0"/>
        <pt x="218" y="247" on="0"/>
        <pt x="190" y="258" on="1"/>
        <pt x="164" y="268" on="0"/>
        <pt x="110" y="272" on="0"/>
        <pt x="99" y="272" on="1"/>
        <pt x="94" y="272" on="0"/>
        <pt x="79" y="273" on="0"/>
        <pt x="66" y="279" on="0"/>
        <pt x="56" y="293" on="0"/>
        <pt x="56" y="305" on="1"/>
        <pt x="56" y="318" on="0"/>
        <pt x="66" y="332" on="0"/>
        <pt x="79" y="338" on="0"/>
        <pt x="95" y="339" on="0"/>
        <pt x="101" y="339" on="1"/>
        <pt x="124" y="339" on="0"/>
        <pt x="174" y="346" on="0"/>
        <pt x="192" y="354" on="1"/>
        <pt x="218" y="365" on="0"/>
        <pt x="227" y="392" on="0"/>
        <pt x="227" y="410" on="1"/>
        <pt x="227" y="565" on="1"/>
        <pt x="227" y="607" on="0"/>
        <pt x="265" y="658" on="0"/>
        <pt x="324" y="685" on="0"/>
        <pt x="396" y="694" on="0"/>
        <pt x="430" y="694" on="1"/>
        <pt x="436" y="694" on="0"/>
        <pt x="451" y="693" on="0"/>
        <pt x="465" y="687" on="0"/>
        <pt x="474" y="673" on="0"/>
        <pt x="474" y="661" on="1"/>
        <pt x="474" y="649" on="0"/>
        <pt x="465" y="635" on="0"/>
        <pt x="452" y="629" on="0"/>
        <pt x="439" y="628" on="0"/>
        <pt x="434" y="628" on="1"/>
        <pt x="417" y="628" on="0"/>
        <pt x="366" y="623" on="0"/>
        <pt x="345" y="616" on="1"/>
        <pt x="329" y="611" on="0"/>
        <pt x="312" y="599" on="0"/>
        <pt x="304" y="586" on="0"/>
        <pt x="303" y="570" on="0"/>
        <pt x="303" y="561" on="1"/>
        <pt x="303" y="406" on="1"/>
        <pt x="303" y="399" on="0"/>
        <pt x="301" y="374" on="0"/>
        <pt x="291" y="345" on="0"/>
        <pt x="269" y="316" on="0"/>
        <pt x="249" y="305" on="1"/>
        <pt x="269" y="295" on="0"/>
        <pt x="291" y="266" on="0"/>
        <pt x="301" y="237" on="0"/>
        <pt x="303" y="212" on="0"/>
        <pt x="303" y="205" on="1"/>
      </contour>
    </TTGlyph>
    <TTGlyph name="braceright" xMin="56" yMin="-83" xMax="474" yMax="694">
      <contour>
        <pt x="303" y="46" on="1"/>
        <pt x="303" y="37" on="0"/>
        <pt x="301" y="12" on="0"/>
        <pt x="291" y="-15" on="0"/>
        <pt x="268" y="-43" on="0"/>
        <pt x="247" y="-55" on="1"/>
        <pt x="230" y="-64" on="0"/>
        <pt x="188" y="-75" on="0"/>
        <pt x="148" y="-81" on="0"/>
        <pt x="112" y="-83" on="0"/>
        <pt x="101" y="-83" on="1"/>
        <pt x="95" y="-83" on="0"/>
        <pt x="79" y="-82" on="0"/>
        <pt x="66" y="-76" on="0"/>
        <pt x="56" y="-62" on="0"/>
        <pt x="56" y="-50" on="1"/>
        <pt x="56" y="-38" on="0"/>
        <pt x="65" y="-24" on="0"/>
        <pt x="78" y="-18" on="0"/>
        <pt x="92" y="-17" on="0"/>
        <pt x="96" y="-17" on="1"/>
        <pt x="113" y="-17" on="0"/>
        <pt x="164" y="-12" on="0"/>
        <pt x="185" y="-5" on="1"/>
        <pt x="201" y="0" on="0"/>
        <pt x="218" y="12" on="0"/>
        <pt x="226" y="25" on="0"/>
        <pt x="227" y="41" on="0"/>
        <pt x="227" y="50" on="1"/>
        <pt x="227" y="205" on="1"/>
        <pt x="227" y="212" on="0"/>
        <pt x="229" y="237" on="0"/>
        <pt x="239" y="266" on="0"/>
        <pt x="261" y="295" on="0"/>
        <pt x="281" y="306" on="1"/>
        <pt x="261" y="317" on="0"/>
        <pt x="239" y="345" on="0"/>
        <pt x="229" y="374" on="0"/>
        <pt x="227" y="399" on="0"/>
        <pt x="227" y="406" on="1"/>
        <pt x="227" y="561" on="1"/>
        <pt x="227" y="570" on="0"/>
        <pt x="226" y="586" on="0"/>
        <pt x="218" y="599" on="0"/>
        <pt x="201" y="611" on="0"/>
        <pt x="185" y="616" on="1"/>
        <pt x="173" y="620" on="0"/>
        <pt x="147" y="624" on="0"/>
        <pt x="122" y="627" on="0"/>
        <pt x="102" y="628" on="0"/>
        <pt x="97" y="628" on="1"/>
        <pt x="92" y="628" on="0"/>
        <pt x="78" y="629" on="0"/>
        <pt x="65" y="636" on="0"/>
        <pt x="56" y="649" on="0"/>
        <pt x="56" y="661" on="1"/>
        <pt x="56" y="673" on="0"/>
        <pt x="66" y="687" on="0"/>
        <pt x="79" y="693" on="0"/>
        <pt x="95" y="694" on="0"/>
        <pt x="101" y="694" on="1"/>
        <pt x="105" y="694" on="0"/>
        <pt x="135" y="693" on="0"/>
        <pt x="175" y="689" on="0"/>
        <pt x="220" y="678" on="0"/>
        <pt x="239" y="669" on="1"/>
        <pt x="263" y="658" on="0"/>
        <pt x="289" y="629" on="0"/>
        <pt x="301" y="600" on="0"/>
        <pt x="303" y="574" on="0"/>
        <pt x="303" y="565" on="1"/>
        <pt x="303" y="410" on="1"/>
        <pt x="303" y="391" on="0"/>
        <pt x="312" y="364" on="0"/>
        <pt x="340" y="353" on="1"/>
        <pt x="366" y="343" on="0"/>
        <pt x="420" y="339" on="0"/>
        <pt x="431" y="339" on="1"/>
        <pt x="436" y="339" on="0"/>
        <pt x="451" y="338" on="0"/>
        <pt x="465" y="332" on="0"/>
        <pt x="474" y="318" on="0"/>
        <pt x="474" y="305" on="1"/>
        <pt x="474" y="293" on="0"/>
        <pt x="464" y="279" on="0"/>
        <pt x="450" y="273" on="0"/>
        <pt x="435" y="272" on="0"/>
        <pt x="429" y="272" on="1"/>
        <pt x="406" y="272" on="0"/>
        <pt x="356" y="265" on="0"/>
        <pt x="338" y="257" on="1"/>
        <pt x="312" y="246" on="0"/>
        <pt x="303" y="219" on="0"/>
        <pt x="303" y="201" on="1"/>
      </contour>
    </TTGlyph>
    <TTGlyph name="bracketleft" xMin="219" yMin="-83" xMax="489" yMax="694">
      <contour>
        <pt x="295" y="628" on="1"/>
        <pt x="295" y="-17" on="1"/>
        <pt x="444" y="-17" on="1"/>
        <pt x="450" y="-17" on="0"/>
        <pt x="466" y="-18" on="0"/>
        <pt x="480" y="-24" on="0"/>
        <pt x="489" y="-38" on="0"/>
        <pt x="489" y="-50" on="1"/>
        <pt x="489" y="-62" on="0"/>
        <pt x="480" y="-76" on="0"/>
        <pt x="466" y="-82" on="0"/>
        <pt x="450" y="-83" on="0"/>
        <pt x="444" y="-83" on="1"/>
        <pt x="264" y="-83" on="1"/>
        <pt x="237" y="-83" on="0"/>
        <pt x="219" y="-66" on="0"/>
        <pt x="219" y="-38" on="1"/>
        <pt x="219" y="649" on="1"/>
        <pt x="219" y="678" on="0"/>
        <pt x="237" y="694" on="0"/>
        <pt x="264" y="694" on="1"/>
        <pt x="444" y="694" on="1"/>
        <pt x="450" y="694" on="0"/>
        <pt x="466" y="693" on="0"/>
        <pt x="480" y="687" on="0"/>
        <pt x="489" y="673" on="0"/>
        <pt x="489" y="661" on="1"/>
        <pt x="489" y="649" on="0"/>
        <pt x="480" y="635" on="0"/>
        <pt x="466" y="629" on="0"/>
        <pt x="450" y="628" on="0"/>
        <pt x="444" y="628" on="1"/>
      </contour>
    </TTGlyph>
    <TTGlyph name="bracketright" xMin="41" yMin="-83" xMax="311" yMax="694">
      <contour>
        <pt x="311" y="-38" on="1"/>
        <pt x="311" y="-67" on="0"/>
        <pt x="293" y="-83" on="0"/>
        <pt x="266" y="-83" on="1"/>
        <pt x="86" y="-83" on="1"/>
        <pt x="80" y="-83" on="0"/>
        <pt x="64" y="-82" on="0"/>
        <pt x="50" y="-76" on="0"/>
        <pt x="41" y="-62" on="0"/>
        <pt x="41" y="-50" on="1"/>
        <pt x="41" y="-38" on="0"/>
        <pt x="50" y="-24" on="0"/>
        <pt x="64" y="-18" on="0"/>
        <pt x="80" y="-17" on="0"/>
        <pt x="86" y="-17" on="1"/>
        <pt x="235" y="-17" on="1"/>
        <pt x="235" y="628" on="1"/>
        <pt x="86" y="628" on="1"/>
        <pt x="80" y="628" on="0"/>
        <pt x="64" y="629" on="0"/>
        <pt x="50" y="635" on="0"/>
        <pt x="41" y="649" on="0"/>
        <pt x="41" y="661" on="1"/>
        <pt x="41" y="673" on="0"/>
        <pt x="50" y="687" on="0"/>
        <pt x="64" y="693" on="0"/>
        <pt x="80" y="694" on="0"/>
        <pt x="86" y="694" on="1"/>
        <pt x="266" y="694" on="1"/>
        <pt x="293" y="694" on="0"/>
        <pt x="311" y="677" on="0"/>
        <pt x="311" y="649" on="1"/>
      </contour>
    </TTGlyph>
    <TTGlyph name="c" xMin="72" yMin="-5" xMax="470" yMax="439">
      <contour>
        <pt x="470" y="108" on="1"/>
        <pt x="470" y="102" on="0"/>
        <pt x="456" y="65" on="0"/>
        <pt x="417" y="26" on="0"/>
        <pt x="349" y="-5" on="0"/>
        <pt x="296" y="-5" on="1"/>
        <pt x="248" y="-5" on="0"/>
        <pt x="166" y="30" on="0"/>
        <pt x="106" y="91" on="0"/>
        <pt x="72" y="171" on="0"/>
        <pt x="72" y="216" on="1"/>
        <pt x="72" y="231" on="0"/>
        <pt x="77" y="270" on="0"/>
        <pt x="93" y="313" on="0"/>
        <pt x="121" y="358" on="0"/>
        <pt x="143" y="380" on="1"/>
        <pt x="166" y="402" on="0"/>
        <pt x="216" y="426" on="0"/>
        <pt x="262" y="437" on="0"/>
        <pt x="299" y="439" on="0"/>
        <pt x="309" y="439" on="1"/>
        <pt x="326" y="439" on="0"/>
        <pt x="377" y="437" on="0"/>
        <pt x="425" y="422" on="0"/>
        <pt x="459" y="391" on="0"/>
        <pt x="459" y="362" on="1"/>
        <pt x="459" y="342" on="0"/>
        <pt x="433" y="313" on="0"/>
        <pt x="410" y="313" on="1"/>
        <pt x="391" y="313" on="0"/>
        <pt x="364" y="337" on="0"/>
        <pt x="362" y="359" on="1"/>
        <pt x="362" y="367" on="0"/>
        <pt x="361" y="368" on="1"/>
        <pt x="361" y="369" on="0"/>
        <pt x="358" y="370" on="1"/>
        <pt x="354" y="371" on="0"/>
        <pt x="329" y="373" on="0"/>
        <pt x="307" y="373" on="1"/>
        <pt x="296" y="373" on="0"/>
        <pt x="270" y="372" on="0"/>
        <pt x="241" y="363" on="0"/>
        <pt x="209" y="345" on="0"/>
        <pt x="192" y="328" on="1"/>
        <pt x="170" y="305" on="0"/>
        <pt x="148" y="245" on="0"/>
        <pt x="148" y="216" on="1"/>
        <pt x="148" y="183" on="0"/>
        <pt x="172" y="127" on="0"/>
        <pt x="214" y="85" on="0"/>
        <pt x="270" y="61" on="0"/>
        <pt x="301" y="61" on="1"/>
        <pt x="328" y="61" on="0"/>
        <pt x="381" y="83" on="0"/>
        <pt x="395" y="116" on="1"/>
        <pt x="402" y="133" on="0"/>
        <pt x="421" y="139" on="0"/>
        <pt x="432" y="139" on="1"/>
        <pt x="448" y="139" on="0"/>
        <pt x="470" y="125" on="0"/>
      </contour>
    </TTGlyph>
    <TTGlyph name="circlemultiply" xMin="38" yMin="78" xMax="492" yMax="533">
      <contour>
        <pt x="492" y="305" on="1"/>
        <pt x="492" y="259" on="0"/>
        <pt x="457" y="176" on="0"/>
        <pt x="395" y="114" on="0"/>
        <pt x="312" y="78" on="0"/>
        <pt x="265" y="78" on="1"/>
        <pt x="219" y="78" on="0"/>
        <pt x="136" y="114" on="0"/>
        <pt x="74" y="175" on="0"/>
        <pt x="38" y="258" on="0"/>
        <pt x="38" y="306" on="1"/>
        <pt x="38" y="352" on="0"/>
        <pt x="74" y="435" on="0"/>
        <pt x="135" y="497" on="0"/>
        <pt x="218" y="533" on="0"/>
        <pt x="265" y="533" on="1"/>
        <pt x="312" y="533" on="0"/>
        <pt x="394" y="497" on="0"/>
        <pt x="456" y="436" on="0"/>
        <pt x="492" y="353" on="0"/>
      </contour>
      <contour>
        <pt x="265" y="351" on="1"/>
        <pt x="356" y="442" on="1"/>
        <pt x="345" y="449" on="0"/>
        <pt x="298" y="469" on="0"/>
        <pt x="265" y="469" on="1"/>
        <pt x="214" y="469" on="0"/>
        <pt x="174" y="441" on="1"/>
      </contour>
      <contour>
        <pt x="220" y="306" on="1"/>
        <pt x="129" y="396" on="1"/>
        <pt x="102" y="353" on="0"/>
        <pt x="102" y="305" on="1"/>
        <pt x="102" y="285" on="0"/>
        <pt x="113" y="240" on="0"/>
        <pt x="129" y="215" on="1"/>
      </contour>
      <contour>
        <pt x="310" y="305" on="1"/>
        <pt x="401" y="215" on="1"/>
        <pt x="428" y="258" on="0"/>
        <pt x="428" y="306" on="1"/>
        <pt x="428" y="326" on="0"/>
        <pt x="417" y="371" on="0"/>
        <pt x="401" y="396" on="1"/>
      </contour>
      <contour>
        <pt x="265" y="260" on="1"/>
        <pt x="174" y="169" on="1"/>
        <pt x="185" y="162" on="0"/>
        <pt x="232" y="142" on="0"/>
        <pt x="265" y="142" on="1"/>
        <pt x="316" y="142" on="0"/>
        <pt x="356" y="170" on="1"/>
      </contour>
    </TTGlyph>
    <TTGlyph name="circleplus" xMin="38" yMin="78" xMax="492" yMax="533">
      <contour>
        <pt x="492" y="305" on="1"/>
        <pt x="492" y="259" on="0"/>
        <pt x="457" y="176" on="0"/>
        <pt x="395" y="114" on="0"/>
        <pt x="312" y="78" on="0"/>
        <pt x="265" y="78" on="1"/>
        <pt x="219" y="78" on="0"/>
        <pt x="136" y="114" on="0"/>
        <pt x="74" y="175" on="0"/>
        <pt x="38" y="258" on="0"/>
        <pt x="38" y="306" on="1"/>
        <pt x="38" y="352" on="0"/>
        <pt x="74" y="435" on="0"/>
        <pt x="135" y="497" on="0"/>
        <pt x="218" y="533" on="0"/>
        <pt x="265" y="533" on="1"/>
        <pt x="312" y="533" on="0"/>
        <pt x="394" y="497" on="0"/>
        <pt x="456" y="436" on="0"/>
        <pt x="492" y="353" on="0"/>
      </contour>
      <contour>
        <pt x="233" y="274" on="1"/>
        <pt x="105" y="274" on="1"/>
        <pt x="113" y="232" on="0"/>
        <pt x="174" y="159" on="0"/>
        <pt x="233" y="145" on="1"/>
      </contour>
      <contour>
        <pt x="233" y="338" on="1"/>
        <pt x="233" y="466" on="1"/>
        <pt x="203" y="459" on="0"/>
        <pt x="159" y="432" on="0"/>
        <pt x="128" y="397" on="0"/>
        <pt x="109" y="358" on="0"/>
        <pt x="105" y="338" on="1"/>
      </contour>
      <contour>
        <pt x="297" y="274" on="1"/>
        <pt x="297" y="145" on="1"/>
        <pt x="354" y="158" on="0"/>
        <pt x="416" y="231" on="0"/>
        <pt x="425" y="274" on="1"/>
      </contour>
      <contour>
        <pt x="297" y="338" on="1"/>
        <pt x="425" y="338" on="1"/>
        <pt x="421" y="356" on="0"/>
        <pt x="403" y="396" on="0"/>
        <pt x="372" y="431" on="0"/>
        <pt x="328" y="459" on="0"/>
        <pt x="297" y="466" on="1"/>
      </contour>
    </TTGlyph>
    <TTGlyph name="colon" xMin="198" yMin="0" xMax="333" yMax="431">
      <contour>
        <pt x="333" y="363" on="1"/>
        <pt x="333" y="337" on="0"/>
        <pt x="295" y="296" on="0"/>
        <pt x="265" y="296" on="1"/>
        <pt x="239" y="296" on="0"/>
        <pt x="198" y="334" on="0"/>
        <pt x="198" y="364" on="1"/>
        <pt x="198" y="390" on="0"/>
        <pt x="236" y="431" on="0"/>
        <pt x="266" y="431" on="1"/>
        <pt x="292" y="431" on="0"/>
        <pt x="333" y="393" on="0"/>
      </contour>
      <contour>
        <pt x="333" y="67" on="1"/>
        <pt x="333" y="41" on="0"/>
        <pt x="295" y="0" on="0"/>
        <pt x="265" y="0" on="1"/>
        <pt x="239" y="0" on="0"/>
        <pt x="198" y="38" on="0"/>
        <pt x="198" y="68" on="1"/>
        <pt x="198" y="94" on="0"/>
        <pt x="236" y="135" on="0"/>
        <pt x="266" y="135" on="1"/>
        <pt x="292" y="135" on="0"/>
        <pt x="333" y="97" on="0"/>
      </contour>
    </TTGlyph>
    <TTGlyph name="comma" xMin="180" yMin="-139" xMax="354" yMax="135">
      <contour>
        <pt x="284" y="2" on="1"/>
        <pt x="280" y="1" on="0"/>
        <pt x="274" y="0" on="0"/>
        <pt x="266" y="0" on="1"/>
        <pt x="232" y="0" on="0"/>
        <pt x="198" y="43" on="0"/>
        <pt x="198" y="67" on="1"/>
        <pt x="198" y="94" on="0"/>
        <pt x="234" y="135" on="0"/>
        <pt x="266" y="135" on="1"/>
        <pt x="302" y="135" on="0"/>
        <pt x="354" y="77" on="0"/>
        <pt x="354" y="31" on="1"/>
        <pt x="354" y="-12" on="0"/>
        <pt x="320" y="-76" on="0"/>
        <pt x="274" y="-118" on="0"/>
        <pt x="227" y="-139" on="0"/>
        <pt x="214" y="-139" on="1"/>
        <pt x="200" y="-139" on="0"/>
        <pt x="180" y="-118" on="0"/>
        <pt x="180" y="-105" on="1"/>
        <pt x="180" y="-88" on="0"/>
        <pt x="201" y="-76" on="0"/>
        <pt x="208" y="-74" on="1"/>
        <pt x="264" y="-55" on="0"/>
      </contour>
    </TTGlyph>
    <TTGlyph name="d" xMin="34" yMin="-5" xMax="519" yMax="611">
      <contour>
        <pt x="435" y="66" on="1"/>
        <pt x="474" y="66" on="1"/>
        <pt x="481" y="66" on="0"/>
        <pt x="497" y="65" on="0"/>
        <pt x="510" y="59" on="0"/>
        <pt x="519" y="45" on="0"/>
        <pt x="519" y="33" on="1"/>
        <pt x="519" y="21" on="0"/>
        <pt x="510" y="7" on="0"/>
        <pt x="497" y="1" on="0"/>
        <pt x="481" y="0" on="0"/>
        <pt x="474" y="0" on="1"/>
        <pt x="404" y="0" on="1"/>
        <pt x="373" y="0" on="0"/>
        <pt x="359" y="21" on="0"/>
        <pt x="359" y="47" on="1"/>
        <pt x="337" y="26" on="0"/>
        <pt x="275" y="-5" on="0"/>
        <pt x="235" y="-5" on="1"/>
        <pt x="194" y="-5" on="0"/>
        <pt x="121" y="29" on="0"/>
        <pt x="66" y="89" on="0"/>
        <pt x="34" y="169" on="0"/>
        <pt x="34" y="215" on="1"/>
        <pt x="34" y="263" on="0"/>
        <pt x="68" y="344" on="0"/>
        <pt x="126" y="403" on="0"/>
        <pt x="202" y="436" on="0"/>
        <pt x="244" y="436" on="1"/>
        <pt x="264" y="436" on="0"/>
        <pt x="324" y="422" on="0"/>
        <pt x="359" y="395" on="1"/>
        <pt x="359" y="545" on="1"/>
        <pt x="320" y="545" on="1"/>
        <pt x="313" y="545" on="0"/>
        <pt x="298" y="546" on="0"/>
        <pt x="284" y="552" on="0"/>
        <pt x="275" y="566" on="0"/>
        <pt x="275" y="578" on="1"/>
        <pt x="275" y="590" on="0"/>
        <pt x="284" y="604" on="0"/>
        <pt x="297" y="610" on="0"/>
        <pt x="313" y="611" on="0"/>
        <pt x="320" y="611" on="1"/>
        <pt x="390" y="611" on="1"/>
        <pt x="417" y="611" on="0"/>
        <pt x="435" y="594" on="0"/>
        <pt x="435" y="566" on="1"/>
      </contour>
      <contour>
        <pt x="359" y="262" on="1"/>
        <pt x="359" y="284" on="0"/>
        <pt x="341" y="323" on="0"/>
        <pt x="311" y="353" on="0"/>
        <pt x="271" y="370" on="0"/>
        <pt x="249" y="370" on="1"/>
        <pt x="222" y="370" on="0"/>
        <pt x="171" y="347" on="0"/>
        <pt x="133" y="305" on="0"/>
        <pt x="110" y="248" on="0"/>
        <pt x="110" y="215" on="1"/>
        <pt x="110" y="182" on="0"/>
        <pt x="131" y="126" on="0"/>
        <pt x="167" y="84" on="0"/>
        <pt x="213" y="61" on="0"/>
        <pt x="238" y="61" on="1"/>
        <pt x="265" y="61" on="0"/>
        <pt x="310" y="86" on="0"/>
        <pt x="342" y="126" on="0"/>
        <pt x="359" y="175" on="0"/>
        <pt x="359" y="199" on="1"/>
      </contour>
    </TTGlyph>
    <TTGlyph name="delta" xMin="87" yMin="-7" xMax="479" yMax="647">
      <contour>
        <pt x="479" y="569" on="1"/>
        <pt x="479" y="551" on="0"/>
        <pt x="449" y="524" on="0"/>
        <pt x="432" y="524" on="1"/>
        <pt x="415" y="524" on="0"/>
        <pt x="385" y="540" on="0"/>
        <pt x="358" y="560" on="0"/>
        <pt x="333" y="576" on="0"/>
        <pt x="320" y="576" on="1"/>
        <pt x="300" y="576" on="0"/>
        <pt x="279" y="556" on="0"/>
        <pt x="279" y="548" on="1"/>
        <pt x="279" y="543" on="0"/>
        <pt x="290" y="525" on="0"/>
        <pt x="293" y="521" on="1"/>
        <pt x="315" y="489" on="0"/>
        <pt x="370" y="443" on="0"/>
        <pt x="418" y="392" on="0"/>
        <pt x="450" y="326" on="0"/>
        <pt x="450" y="273" on="1"/>
        <pt x="450" y="230" on="0"/>
        <pt x="427" y="132" on="0"/>
        <pt x="378" y="48" on="0"/>
        <pt x="304" y="-7" on="0"/>
        <pt x="253" y="-7" on="1"/>
        <pt x="217" y="-7" on="0"/>
        <pt x="156" y="20" on="0"/>
        <pt x="112" y="67" on="0"/>
        <pt x="87" y="129" on="0"/>
        <pt x="87" y="165" on="1"/>
        <pt x="87" y="207" on="0"/>
        <pt x="117" y="288" on="0"/>
        <pt x="169" y="357" on="0"/>
        <pt x="239" y="410" on="0"/>
        <pt x="279" y="423" on="1"/>
        <pt x="270" y="433" on="0"/>
        <pt x="247" y="461" on="0"/>
        <pt x="226" y="494" on="0"/>
        <pt x="212" y="530" on="0"/>
        <pt x="212" y="546" on="1"/>
        <pt x="212" y="567" on="0"/>
        <pt x="232" y="604" on="0"/>
        <pt x="263" y="631" on="0"/>
        <pt x="303" y="647" on="0"/>
        <pt x="323" y="647" on="1"/>
        <pt x="342" y="647" on="0"/>
        <pt x="371" y="641" on="0"/>
        <pt x="395" y="632" on="0"/>
        <pt x="414" y="622" on="0"/>
        <pt x="423" y="618" on="1"/>
        <pt x="439" y="611" on="0"/>
        <pt x="457" y="608" on="0"/>
        <pt x="462" y="604" on="1"/>
        <pt x="472" y="596" on="0"/>
        <pt x="479" y="580" on="0"/>
      </contour>
      <contour>
        <pt x="372" y="267" on="1"/>
        <pt x="372" y="293" on="0"/>
        <pt x="350" y="351" on="0"/>
        <pt x="331" y="368" on="1"/>
        <pt x="298" y="363" on="0"/>
        <pt x="238" y="324" on="0"/>
        <pt x="191" y="267" on="0"/>
        <pt x="164" y="198" on="0"/>
        <pt x="164" y="165" on="1"/>
        <pt x="164" y="122" on="0"/>
        <pt x="212" y="59" on="0"/>
        <pt x="257" y="59" on="1"/>
        <pt x="284" y="59" on="0"/>
        <pt x="327" y="99" on="0"/>
        <pt x="357" y="160" on="0"/>
        <pt x="372" y="234" on="0"/>
      </contour>
    </TTGlyph>
    <TTGlyph name="dollar" xMin="59" yMin="-83" xMax="471" yMax="694">
      <contour>
        <pt x="298" y="350" on="1"/>
        <pt x="347" y="341" on="0"/>
        <pt x="413" y="301" on="0"/>
        <pt x="454" y="252" on="0"/>
        <pt x="471" y="198" on="0"/>
        <pt x="471" y="174" on="1"/>
        <pt x="471" y="141" on="0"/>
        <pt x="445" y="81" on="0"/>
        <pt x="398" y="34" on="0"/>
        <pt x="335" y="2" on="0"/>
        <pt x="298" y="-3" on="1"/>
        <pt x="298" y="-38" on="1"/>
        <pt x="298" y="-44" on="0"/>
        <pt x="297" y="-60" on="0"/>
        <pt x="291" y="-74" on="0"/>
        <pt x="277" y="-83" on="0"/>
        <pt x="265" y="-83" on="1"/>
        <pt x="253" y="-83" on="0"/>
        <pt x="239" y="-73" on="0"/>
        <pt x="233" y="-60" on="0"/>
        <pt x="232" y="-44" on="0"/>
        <pt x="232" y="-38" on="1"/>
        <pt x="232" y="-3" on="1"/>
        <pt x="178" y="3" on="0"/>
        <pt x="111" y="43" on="0"/>
        <pt x="73" y="94" on="0"/>
        <pt x="59" y="148" on="0"/>
        <pt x="59" y="169" on="1"/>
        <pt x="59" y="198" on="0"/>
        <pt x="90" y="221" on="0"/>
        <pt x="108" y="221" on="1"/>
        <pt x="130" y="221" on="0"/>
        <pt x="156" y="193" on="0"/>
        <pt x="156" y="173" on="1"/>
        <pt x="156" y="161" on="0"/>
        <pt x="147" y="142" on="0"/>
        <pt x="140" y="137" on="1"/>
        <pt x="159" y="76" on="0"/>
        <pt x="232" y="64" on="1"/>
        <pt x="232" y="286" on="1"/>
        <pt x="177" y="296" on="0"/>
        <pt x="109" y="337" on="0"/>
        <pt x="72" y="385" on="0"/>
        <pt x="59" y="433" on="0"/>
        <pt x="59" y="450" on="1"/>
        <pt x="59" y="480" on="0"/>
        <pt x="84" y="535" on="0"/>
        <pt x="130" y="579" on="0"/>
        <pt x="193" y="609" on="0"/>
        <pt x="232" y="614" on="1"/>
        <pt x="232" y="649" on="1"/>
        <pt x="232" y="655" on="0"/>
        <pt x="233" y="671" on="0"/>
        <pt x="239" y="684" on="0"/>
        <pt x="253" y="694" on="0"/>
        <pt x="265" y="694" on="1"/>
        <pt x="277" y="694" on="0"/>
        <pt x="291" y="685" on="0"/>
        <pt x="297" y="671" on="0"/>
        <pt x="298" y="655" on="0"/>
        <pt x="298" y="649" on="1"/>
        <pt x="298" y="615" on="1"/>
        <pt x="353" y="609" on="0"/>
        <pt x="421" y="572" on="0"/>
        <pt x="458" y="525" on="0"/>
        <pt x="471" y="474" on="0"/>
        <pt x="471" y="454" on="1"/>
        <pt x="471" y="425" on="0"/>
        <pt x="438" y="402" on="0"/>
        <pt x="422" y="402" on="1"/>
        <pt x="402" y="402" on="0"/>
        <pt x="374" y="430" on="0"/>
        <pt x="374" y="450" on="1"/>
        <pt x="374" y="461" on="0"/>
        <pt x="381" y="480" on="0"/>
        <pt x="389" y="487" on="1"/>
        <pt x="369" y="536" on="0"/>
        <pt x="298" y="548" on="1"/>
      </contour>
      <contour>
        <pt x="232" y="547" on="1"/>
        <pt x="176" y="536" on="0"/>
        <pt x="129" y="480" on="0"/>
        <pt x="129" y="455" on="1"/>
        <pt x="129" y="421" on="0"/>
        <pt x="187" y="372" on="0"/>
        <pt x="232" y="363" on="1"/>
      </contour>
      <contour>
        <pt x="298" y="64" on="1"/>
        <pt x="345" y="74" on="0"/>
        <pt x="401" y="133" on="0"/>
        <pt x="401" y="168" on="1"/>
        <pt x="401" y="207" on="0"/>
        <pt x="340" y="263" on="0"/>
        <pt x="298" y="272" on="1"/>
      </contour>
    </TTGlyph>
    <TTGlyph name="dotmath" xMin="198" yMin="238" xMax="333" yMax="373">
      <contour>
        <pt x="333" y="305" on="1"/>
        <pt x="333" y="279" on="0"/>
        <pt x="295" y="238" on="0"/>
        <pt x="265" y="238" on="1"/>
        <pt x="239" y="238" on="0"/>
        <pt x="198" y="276" on="0"/>
        <pt x="198" y="306" on="1"/>
        <pt x="198" y="332" on="0"/>
        <pt x="236" y="373" on="0"/>
        <pt x="266" y="373" on="1"/>
        <pt x="292" y="373" on="0"/>
        <pt x="333" y="335" on="0"/>
      </contour>
    </TTGlyph>
    <TTGlyph name="e" xMin="53" yMin="-5" xMax="470" yMax="439">
      <contour>
        <pt x="132" y="188" on="1"/>
        <pt x="138" y="158" on="0"/>
        <pt x="170" y="111" on="0"/>
        <pt x="214" y="78" on="0"/>
        <pt x="267" y="61" on="0"/>
        <pt x="294" y="61" on="1"/>
        <pt x="306" y="61" on="0"/>
        <pt x="335" y="66" on="0"/>
        <pt x="363" y="78" on="0"/>
        <pt x="388" y="99" on="0"/>
        <pt x="395" y="116" on="1"/>
        <pt x="403" y="133" on="0"/>
        <pt x="419" y="139" on="0"/>
        <pt x="432" y="139" on="1"/>
        <pt x="448" y="139" on="0"/>
        <pt x="470" y="125" on="0"/>
        <pt x="470" y="108" on="1"/>
        <pt x="470" y="99" on="0"/>
        <pt x="452" y="61" on="0"/>
        <pt x="410" y="23" on="0"/>
        <pt x="340" y="-5" on="0"/>
        <pt x="289" y="-5" on="1"/>
        <pt x="238" y="-5" on="0"/>
        <pt x="152" y="31" on="0"/>
        <pt x="89" y="92" on="0"/>
        <pt x="53" y="172" on="0"/>
        <pt x="53" y="217" on="1"/>
        <pt x="53" y="263" on="0"/>
        <pt x="87" y="344" on="0"/>
        <pt x="147" y="404" on="0"/>
        <pt x="227" y="439" on="0"/>
        <pt x="273" y="439" on="1"/>
        <pt x="321" y="439" on="0"/>
        <pt x="395" y="406" on="0"/>
        <pt x="445" y="349" on="0"/>
        <pt x="470" y="271" on="0"/>
        <pt x="470" y="226" on="1"/>
        <pt x="470" y="198" on="0"/>
        <pt x="442" y="188" on="0"/>
        <pt x="425" y="188" on="1"/>
      </contour>
      <contour>
        <pt x="392" y="253" on="1"/>
        <pt x="390" y="272" on="0"/>
        <pt x="377" y="314" on="0"/>
        <pt x="351" y="350" on="0"/>
        <pt x="307" y="373" on="0"/>
        <pt x="273" y="373" on="1"/>
        <pt x="248" y="373" on="0"/>
        <pt x="203" y="355" on="0"/>
        <pt x="165" y="323" on="0"/>
        <pt x="139" y="279" on="0"/>
        <pt x="133" y="253" on="1"/>
      </contour>
    </TTGlyph>
    <TTGlyph name="eight" xMin="44" yMin="-10" xMax="486" yMax="621">
      <contour>
        <pt x="347" y="329" on="1"/>
        <pt x="374" y="322" on="0"/>
        <pt x="424" y="293" on="0"/>
        <pt x="463" y="254" on="0"/>
        <pt x="486" y="204" on="0"/>
        <pt x="486" y="175" on="1"/>
        <pt x="486" y="140" on="0"/>
        <pt x="454" y="73" on="0"/>
        <pt x="395" y="21" on="0"/>
        <pt x="314" y="-10" on="0"/>
        <pt x="265" y="-10" on="1"/>
        <pt x="216" y="-10" on="0"/>
        <pt x="135" y="21" on="0"/>
        <pt x="77" y="73" on="0"/>
        <pt x="44" y="140" on="0"/>
        <pt x="44" y="175" on="1"/>
        <pt x="44" y="204" on="0"/>
        <pt x="67" y="253" on="0"/>
        <pt x="105" y="293" on="0"/>
        <pt x="156" y="322" on="0"/>
        <pt x="183" y="329" on="1"/>
        <pt x="178" y="331" on="0"/>
        <pt x="138" y="347" on="0"/>
        <pt x="94" y="378" on="0"/>
        <pt x="59" y="426" on="0"/>
        <pt x="59" y="460" on="1"/>
        <pt x="59" y="491" on="0"/>
        <pt x="89" y="549" on="0"/>
        <pt x="144" y="594" on="0"/>
        <pt x="220" y="621" on="0"/>
        <pt x="265" y="621" on="1"/>
        <pt x="311" y="621" on="0"/>
        <pt x="387" y="593" on="0"/>
        <pt x="441" y="548" on="0"/>
        <pt x="471" y="490" on="0"/>
        <pt x="471" y="460" on="1"/>
        <pt x="471" y="435" on="0"/>
        <pt x="450" y="394" on="0"/>
        <pt x="415" y="361" on="0"/>
        <pt x="370" y="337" on="0"/>
      </contour>
      <contour>
        <pt x="265" y="363" on="1"/>
        <pt x="293" y="363" on="0"/>
        <pt x="341" y="379" on="0"/>
        <pt x="375" y="405" on="0"/>
        <pt x="395" y="440" on="0"/>
        <pt x="395" y="459" on="1"/>
        <pt x="395" y="478" on="0"/>
        <pt x="375" y="512" on="0"/>
        <pt x="341" y="539" on="0"/>
        <pt x="293" y="555" on="0"/>
        <pt x="265" y="555" on="1"/>
        <pt x="237" y="555" on="0"/>
        <pt x="189" y="539" on="0"/>
        <pt x="155" y="512" on="0"/>
        <pt x="135" y="478" on="0"/>
        <pt x="135" y="459" on="1"/>
        <pt x="135" y="440" on="0"/>
        <pt x="155" y="405" on="0"/>
        <pt x="189" y="379" on="0"/>
        <pt x="237" y="363" on="0"/>
      </contour>
      <contour>
        <pt x="265" y="56" on="1"/>
        <pt x="296" y="56" on="0"/>
        <pt x="349" y="76" on="0"/>
        <pt x="388" y="109" on="0"/>
        <pt x="410" y="152" on="0"/>
        <pt x="410" y="176" on="1"/>
        <pt x="410" y="201" on="0"/>
        <pt x="387" y="245" on="0"/>
        <pt x="348" y="278" on="0"/>
        <pt x="295" y="297" on="0"/>
        <pt x="265" y="297" on="1"/>
        <pt x="235" y="297" on="0"/>
        <pt x="182" y="278" on="0"/>
        <pt x="143" y="245" on="0"/>
        <pt x="120" y="201" on="0"/>
        <pt x="120" y="176" on="1"/>
        <pt x="120" y="153" on="0"/>
        <pt x="142" y="109" on="0"/>
        <pt x="180" y="76" on="0"/>
        <pt x="234" y="56" on="0"/>
      </contour>
    </TTGlyph>
    <TTGlyph name="element" xMin="66" yMin="51" xMax="464" yMax="560">
      <contour>
        <pt x="147" y="267" on="1"/>
        <pt x="152" y="246" on="0"/>
        <pt x="174" y="197" on="0"/>
        <pt x="215" y="156" on="0"/>
        <pt x="275" y="128" on="0"/>
        <pt x="317" y="128" on="1"/>
        <pt x="412" y="128" on="1"/>
        <pt x="418" y="128" on="0"/>
        <pt x="435" y="127" on="0"/>
        <pt x="452" y="119" on="0"/>
        <pt x="464" y="104" on="0"/>
        <pt x="464" y="89" on="1"/>
        <pt x="464" y="75" on="0"/>
        <pt x="452" y="59" on="0"/>
        <pt x="435" y="52" on="0"/>
        <pt x="417" y="51" on="0"/>
        <pt x="412" y="51" on="1"/>
        <pt x="313" y="51" on="1"/>
        <pt x="258" y="51" on="0"/>
        <pt x="166" y="93" on="0"/>
        <pt x="102" y="164" on="0"/>
        <pt x="66" y="256" on="0"/>
        <pt x="66" y="306" on="1"/>
        <pt x="66" y="354" on="0"/>
        <pt x="101" y="446" on="0"/>
        <pt x="166" y="517" on="0"/>
        <pt x="257" y="560" on="0"/>
        <pt x="313" y="560" on="1"/>
        <pt x="412" y="560" on="1"/>
        <pt x="418" y="560" on="0"/>
        <pt x="435" y="559" on="0"/>
        <pt x="452" y="551" on="0"/>
        <pt x="464" y="536" on="0"/>
        <pt x="464" y="521" on="1"/>
        <pt x="464" y="507" on="0"/>
        <pt x="452" y="491" on="0"/>
        <pt x="435" y="484" on="0"/>
        <pt x="417" y="483" on="0"/>
        <pt x="412" y="483" on="1"/>
        <pt x="317" y="483" on="1"/>
        <pt x="275" y="483" on="0"/>
        <pt x="215" y="456" on="0"/>
        <pt x="175" y="414" on="0"/>
        <pt x="152" y="365" on="0"/>
        <pt x="147" y="344" on="1"/>
        <pt x="412" y="344" on="1"/>
        <pt x="418" y="344" on="0"/>
        <pt x="435" y="343" on="0"/>
        <pt x="452" y="335" on="0"/>
        <pt x="464" y="320" on="0"/>
        <pt x="464" y="305" on="1"/>
        <pt x="464" y="291" on="0"/>
        <pt x="452" y="275" on="0"/>
        <pt x="435" y="268" on="0"/>
        <pt x="417" y="267" on="0"/>
        <pt x="412" y="267" on="1"/>
      </contour>
    </TTGlyph>
    <TTGlyph name="equal" xMin="38" yMin="191" xMax="492" yMax="420">
      <contour>
        <pt x="94" y="191" on="1"/>
        <pt x="88" y="191" on="0"/>
        <pt x="69" y="192" on="0"/>
        <pt x="51" y="200" on="0"/>
        <pt x="38" y="215" on="0"/>
        <pt x="38" y="230" on="1"/>
        <pt x="38" y="244" on="0"/>
        <pt x="50" y="260" on="0"/>
        <pt x="66" y="267" on="0"/>
        <pt x="83" y="268" on="0"/>
        <pt x="88" y="268" on="1"/>
        <pt x="442" y="268" on="1"/>
        <pt x="447" y="268" on="0"/>
        <pt x="464" y="267" on="0"/>
        <pt x="480" y="260" on="0"/>
        <pt x="492" y="244" on="0"/>
        <pt x="492" y="230" on="1"/>
        <pt x="492" y="215" on="0"/>
        <pt x="479" y="200" on="0"/>
        <pt x="461" y="192" on="0"/>
        <pt x="442" y="191" on="0"/>
        <pt x="436" y="191" on="1"/>
      </contour>
      <contour>
        <pt x="88" y="343" on="1"/>
        <pt x="83" y="343" on="0"/>
        <pt x="66" y="344" on="0"/>
        <pt x="50" y="351" on="0"/>
        <pt x="38" y="367" on="0"/>
        <pt x="38" y="381" on="1"/>
        <pt x="38" y="396" on="0"/>
        <pt x="51" y="411" on="0"/>
        <pt x="69" y="419" on="0"/>
        <pt x="88" y="420" on="0"/>
        <pt x="94" y="420" on="1"/>
        <pt x="436" y="420" on="1"/>
        <pt x="442" y="420" on="0"/>
        <pt x="461" y="419" on="0"/>
        <pt x="479" y="411" on="0"/>
        <pt x="492" y="396" on="0"/>
        <pt x="492" y="381" on="1"/>
        <pt x="492" y="367" on="0"/>
        <pt x="480" y="351" on="0"/>
        <pt x="464" y="344" on="0"/>
        <pt x="447" y="343" on="0"/>
        <pt x="442" y="343" on="1"/>
      </contour>
    </TTGlyph>
    <TTGlyph name="equivalence" xMin="38" yMin="116" xMax="492" yMax="495">
      <contour>
        <pt x="90" y="267" on="1"/>
        <pt x="84" y="267" on="0"/>
        <pt x="67" y="268" on="0"/>
        <pt x="50" y="276" on="0"/>
        <pt x="38" y="291" on="0"/>
        <pt x="38" y="306" on="1"/>
        <pt x="38" y="320" on="0"/>
        <pt x="50" y="336" on="0"/>
        <pt x="67" y="343" on="0"/>
        <pt x="85" y="344" on="0"/>
        <pt x="90" y="344" on="1"/>
        <pt x="440" y="344" on="1"/>
        <pt x="445" y="344" on="0"/>
        <pt x="463" y="343" on="0"/>
        <pt x="480" y="336" on="0"/>
        <pt x="492" y="320" on="0"/>
        <pt x="492" y="306" on="1"/>
        <pt x="492" y="291" on="0"/>
        <pt x="480" y="276" on="0"/>
        <pt x="463" y="268" on="0"/>
        <pt x="446" y="267" on="0"/>
        <pt x="440" y="267" on="1"/>
      </contour>
      <contour>
        <pt x="90" y="116" on="1"/>
        <pt x="85" y="116" on="0"/>
        <pt x="67" y="117" on="0"/>
        <pt x="50" y="124" on="0"/>
        <pt x="38" y="140" on="0"/>
        <pt x="38" y="154" on="1"/>
        <pt x="38" y="169" on="0"/>
        <pt x="50" y="184" on="0"/>
        <pt x="67" y="192" on="0"/>
        <pt x="85" y="193" on="0"/>
        <pt x="90" y="193" on="1"/>
        <pt x="440" y="193" on="1"/>
        <pt x="445" y="193" on="0"/>
        <pt x="463" y="192" on="0"/>
        <pt x="480" y="184" on="0"/>
        <pt x="492" y="169" on="0"/>
        <pt x="492" y="154" on="1"/>
        <pt x="492" y="140" on="0"/>
        <pt x="480" y="124" on="0"/>
        <pt x="463" y="117" on="0"/>
        <pt x="445" y="116" on="0"/>
        <pt x="440" y="116" on="1"/>
      </contour>
      <contour>
        <pt x="90" y="418" on="1"/>
        <pt x="85" y="418" on="0"/>
        <pt x="67" y="419" on="0"/>
        <pt x="50" y="427" on="0"/>
        <pt x="38" y="442" on="0"/>
        <pt x="38" y="457" on="1"/>
        <pt x="38" y="471" on="0"/>
        <pt x="50" y="487" on="0"/>
        <pt x="67" y="494" on="0"/>
        <pt x="85" y="495" on="0"/>
        <pt x="90" y="495" on="1"/>
        <pt x="440" y="495" on="1"/>
        <pt x="445" y="495" on="0"/>
        <pt x="463" y="494" on="0"/>
        <pt x="480" y="487" on="0"/>
        <pt x="492" y="471" on="0"/>
        <pt x="492" y="457" on="1"/>
        <pt x="492" y="442" on="0"/>
        <pt x="480" y="427" on="0"/>
        <pt x="463" y="419" on="0"/>
        <pt x="445" y="418" on="0"/>
        <pt x="440" y="418" on="1"/>
      </contour>
    </TTGlyph>
    <TTGlyph name="exclam" xMin="210" yMin="0" xMax="320" yMax="621">
      <contour>
        <pt x="308" y="231" on="1"/>
        <pt x="307" y="206" on="0"/>
        <pt x="290" y="190" on="0"/>
        <pt x="265" y="190" on="1"/>
        <pt x="239" y="190" on="0"/>
        <pt x="223" y="207" on="0"/>
        <pt x="222" y="231" on="1"/>
        <pt x="211" y="555" on="1"/>
        <pt x="210" y="579" on="0"/>
        <pt x="225" y="606" on="0"/>
        <pt x="245" y="619" on="0"/>
        <pt x="263" y="621" on="0"/>
        <pt x="265" y="621" on="1"/>
        <pt x="267" y="621" on="0"/>
        <pt x="285" y="619" on="0"/>
        <pt x="305" y="606" on="0"/>
        <pt x="320" y="579" on="0"/>
        <pt x="319" y="555" on="1"/>
      </contour>
      <contour>
        <pt x="319" y="54" on="1"/>
        <pt x="319" y="31" on="0"/>
        <pt x="288" y="0" on="0"/>
        <pt x="265" y="0" on="1"/>
        <pt x="242" y="0" on="0"/>
        <pt x="211" y="31" on="0"/>
        <pt x="211" y="54" on="1"/>
        <pt x="211" y="77" on="0"/>
        <pt x="242" y="108" on="0"/>
        <pt x="265" y="108" on="1"/>
        <pt x="288" y="108" on="0"/>
        <pt x="319" y="77" on="0"/>
      </contour>
    </TTGlyph>
    <TTGlyph name="existential" xMin="53" yMin="0" xMax="477" yMax="611">
      <contour>
        <pt x="477" y="52" on="1"/>
        <pt x="477" y="21" on="0"/>
        <pt x="455" y="0" on="0"/>
        <pt x="425" y="0" on="1"/>
        <pt x="105" y="0" on="1"/>
        <pt x="99" y="0" on="0"/>
        <pt x="82" y="1" on="0"/>
        <pt x="65" y="9" on="0"/>
        <pt x="53" y="24" on="0"/>
        <pt x="53" y="39" on="1"/>
        <pt x="53" y="53" on="0"/>
        <pt x="65" y="69" on="0"/>
        <pt x="82" y="76" on="0"/>
        <pt x="100" y="77" on="0"/>
        <pt x="105" y="77" on="1"/>
        <pt x="400" y="77" on="1"/>
        <pt x="400" y="267" on="1"/>
        <pt x="118" y="267" on="1"/>
        <pt x="113" y="267" on="0"/>
        <pt x="95" y="268" on="0"/>
        <pt x="78" y="276" on="0"/>
        <pt x="66" y="291" on="0"/>
        <pt x="66" y="306" on="1"/>
        <pt x="66" y="320" on="0"/>
        <pt x="79" y="336" on="0"/>
        <pt x="96" y="343" on="0"/>
        <pt x="113" y="344" on="0"/>
        <pt x="118" y="344" on="1"/>
        <pt x="400" y="344" on="1"/>
        <pt x="400" y="534" on="1"/>
        <pt x="105" y="534" on="1"/>
        <pt x="99" y="534" on="0"/>
        <pt x="82" y="535" on="0"/>
        <pt x="65" y="543" on="0"/>
        <pt x="53" y="558" on="0"/>
        <pt x="53" y="573" on="1"/>
        <pt x="53" y="587" on="0"/>
        <pt x="65" y="603" on="0"/>
        <pt x="82" y="610" on="0"/>
        <pt x="100" y="611" on="0"/>
        <pt x="105" y="611" on="1"/>
        <pt x="425" y="611" on="1"/>
        <pt x="457" y="611" on="0"/>
        <pt x="477" y="588" on="0"/>
        <pt x="477" y="559" on="1"/>
      </contour>
    </TTGlyph>
    <TTGlyph name="f" xMin="42" yMin="0" xMax="443" yMax="616">
      <contour>
        <pt x="259" y="66" on="1"/>
        <pt x="354" y="66" on="1"/>
        <pt x="360" y="66" on="0"/>
        <pt x="376" y="65" on="0"/>
        <pt x="390" y="59" on="0"/>
        <pt x="400" y="45" on="0"/>
        <pt x="400" y="33" on="1"/>
        <pt x="400" y="21" on="0"/>
        <pt x="390" y="7" on="0"/>
        <pt x="376" y="1" on="0"/>
        <pt x="360" y="0" on="0"/>
        <pt x="354" y="0" on="1"/>
        <pt x="88" y="0" on="1"/>
        <pt x="82" y="0" on="0"/>
        <pt x="66" y="1" on="0"/>
        <pt x="52" y="7" on="0"/>
        <pt x="42" y="21" on="0"/>
        <pt x="42" y="33" on="1"/>
        <pt x="42" y="45" on="0"/>
        <pt x="52" y="59" on="0"/>
        <pt x="66" y="65" on="0"/>
        <pt x="82" y="66" on="0"/>
        <pt x="88" y="66" on="1"/>
        <pt x="183" y="66" on="1"/>
        <pt x="183" y="365" on="1"/>
        <pt x="88" y="365" on="1"/>
        <pt x="82" y="365" on="0"/>
        <pt x="66" y="366" on="0"/>
        <pt x="52" y="372" on="0"/>
        <pt x="43" y="386" on="0"/>
        <pt x="43" y="398" on="1"/>
        <pt x="43" y="410" on="0"/>
        <pt x="53" y="424" on="0"/>
        <pt x="67" y="430" on="0"/>
        <pt x="83" y="431" on="0"/>
        <pt x="89" y="431" on="1"/>
        <pt x="183" y="431" on="1"/>
        <pt x="183" y="478" on="1"/>
        <pt x="183" y="516" on="0"/>
        <pt x="214" y="569" on="0"/>
        <pt x="261" y="602" on="0"/>
        <pt x="317" y="616" on="0"/>
        <pt x="343" y="616" on="1"/>
        <pt x="349" y="616" on="0"/>
        <pt x="382" y="614" on="0"/>
        <pt x="416" y="602" on="0"/>
        <pt x="443" y="576" on="0"/>
        <pt x="443" y="552" on="1"/>
        <pt x="443" y="528" on="0"/>
        <pt x="412" y="504" on="0"/>
        <pt x="396" y="504" on="1"/>
        <pt x="382" y="504" on="0"/>
        <pt x="351" y="526" on="0"/>
        <pt x="349" y="550" on="1"/>
        <pt x="309" y="550" on="0"/>
        <pt x="259" y="519" on="0"/>
        <pt x="259" y="475" on="1"/>
        <pt x="259" y="431" on="1"/>
        <pt x="376" y="431" on="1"/>
        <pt x="382" y="431" on="0"/>
        <pt x="398" y="430" on="0"/>
        <pt x="412" y="424" on="0"/>
        <pt x="421" y="410" on="0"/>
        <pt x="421" y="398" on="1"/>
        <pt x="421" y="386" on="0"/>
        <pt x="412" y="372" on="0"/>
        <pt x="398" y="366" on="0"/>
        <pt x="382" y="365" on="0"/>
        <pt x="376" y="365" on="1"/>
        <pt x="259" y="365" on="1"/>
      </contour>
    </TTGlyph>
    <TTGlyph name="five" xMin="53" yMin="-10" xMax="477" yMax="611">
      <contour>
        <pt x="162" y="362" on="1"/>
        <pt x="195" y="379" on="0"/>
        <pt x="256" y="388" on="0"/>
        <pt x="279" y="388" on="1"/>
        <pt x="323" y="388" on="0"/>
        <pt x="396" y="355" on="0"/>
        <pt x="448" y="300" on="0"/>
        <pt x="477" y="228" on="0"/>
        <pt x="477" y="190" on="1"/>
        <pt x="477" y="148" on="0"/>
        <pt x="441" y="75" on="0"/>
        <pt x="380" y="21" on="0"/>
        <pt x="297" y="-10" on="0"/>
        <pt x="249" y="-10" on="1"/>
        <pt x="208" y="-10" on="0"/>
        <pt x="136" y="13" on="0"/>
        <pt x="83" y="54" on="0"/>
        <pt x="53" y="110" on="0"/>
        <pt x="53" y="142" on="1"/>
        <pt x="53" y="169" on="0"/>
        <pt x="85" y="193" on="0"/>
        <pt x="102" y="193" on="1"/>
        <pt x="120" y="193" on="0"/>
        <pt x="150" y="167" on="0"/>
        <pt x="150" y="144" on="1"/>
        <pt x="150" y="133" on="0"/>
        <pt x="141" y="115" on="0"/>
        <pt x="138" y="112" on="1"/>
        <pt x="145" y="97" on="0"/>
        <pt x="170" y="76" on="0"/>
        <pt x="200" y="63" on="0"/>
        <pt x="234" y="56" on="0"/>
        <pt x="249" y="56" on="1"/>
        <pt x="280" y="56" on="0"/>
        <pt x="335" y="77" on="0"/>
        <pt x="377" y="113" on="0"/>
        <pt x="401" y="162" on="0"/>
        <pt x="401" y="190" on="1"/>
        <pt x="401" y="214" on="0"/>
        <pt x="385" y="261" on="0"/>
        <pt x="353" y="298" on="0"/>
        <pt x="307" y="322" on="0"/>
        <pt x="278" y="322" on="1"/>
        <pt x="248" y="322" on="0"/>
        <pt x="205" y="311" on="0"/>
        <pt x="175" y="294" on="0"/>
        <pt x="157" y="277" on="0"/>
        <pt x="152" y="271" on="1"/>
        <pt x="145" y="264" on="0"/>
        <pt x="133" y="258" on="0"/>
        <pt x="121" y="258" on="1"/>
        <pt x="108" y="258" on="0"/>
        <pt x="94" y="267" on="0"/>
        <pt x="87" y="280" on="0"/>
        <pt x="86" y="296" on="0"/>
        <pt x="86" y="303" on="1"/>
        <pt x="86" y="566" on="1"/>
        <pt x="86" y="595" on="0"/>
        <pt x="104" y="611" on="0"/>
        <pt x="131" y="611" on="1"/>
        <pt x="396" y="611" on="1"/>
        <pt x="402" y="611" on="0"/>
        <pt x="418" y="610" on="0"/>
        <pt x="432" y="604" on="0"/>
        <pt x="441" y="590" on="0"/>
        <pt x="441" y="578" on="1"/>
        <pt x="441" y="566" on="0"/>
        <pt x="432" y="552" on="0"/>
        <pt x="418" y="546" on="0"/>
        <pt x="402" y="545" on="0"/>
        <pt x="396" y="545" on="1"/>
        <pt x="162" y="545" on="1"/>
      </contour>
    </TTGlyph>
    <TTGlyph name="four" xMin="30" yMin="0" xMax="500" yMax="626">
      <contour>
        <pt x="265" y="603" on="1"/>
        <pt x="276" y="620" on="0"/>
        <pt x="293" y="626" on="0"/>
        <pt x="312" y="626" on="1"/>
        <pt x="339" y="626" on="1"/>
        <pt x="367" y="626" on="0"/>
        <pt x="384" y="608" on="0"/>
        <pt x="384" y="581" on="1"/>
        <pt x="384" y="234" on="1"/>
        <pt x="455" y="234" on="1"/>
        <pt x="461" y="234" on="0"/>
        <pt x="477" y="233" on="0"/>
        <pt x="491" y="227" on="0"/>
        <pt x="500" y="213" on="0"/>
        <pt x="500" y="201" on="1"/>
        <pt x="500" y="189" on="0"/>
        <pt x="491" y="175" on="0"/>
        <pt x="477" y="169" on="0"/>
        <pt x="461" y="168" on="0"/>
        <pt x="455" y="168" on="1"/>
        <pt x="384" y="168" on="1"/>
        <pt x="384" y="66" on="1"/>
        <pt x="442" y="66" on="1"/>
        <pt x="449" y="66" on="0"/>
        <pt x="465" y="65" on="0"/>
        <pt x="478" y="59" on="0"/>
        <pt x="487" y="45" on="0"/>
        <pt x="487" y="33" on="1"/>
        <pt x="487" y="21" on="0"/>
        <pt x="478" y="7" on="0"/>
        <pt x="465" y="1" on="0"/>
        <pt x="449" y="0" on="0"/>
        <pt x="442" y="0" on="1"/>
        <pt x="264" y="0" on="1"/>
        <pt x="257" y="0" on="0"/>
        <pt x="242" y="1" on="0"/>
        <pt x="228" y="7" on="0"/>
        <pt x="219" y="21" on="0"/>
        <pt x="219" y="33" on="1"/>
        <pt x="219" y="45" on="0"/>
        <pt x="228" y="59" on="0"/>
        <pt x="242" y="65" on="0"/>
        <pt x="257" y="66" on="0"/>
        <pt x="264" y="66" on="1"/>
        <pt x="322" y="66" on="1"/>
        <pt x="322" y="168" on="1"/>
        <pt x="75" y="168" on="1"/>
        <pt x="49" y="168" on="0"/>
        <pt x="30" y="183" on="0"/>
        <pt x="30" y="212" on="1"/>
        <pt x="30" y="227" on="0"/>
        <pt x="32" y="238" on="0"/>
        <pt x="40" y="249" on="1"/>
      </contour>
      <contour>
        <pt x="322" y="234" on="1"/>
        <pt x="322" y="572" on="1"/>
        <pt x="106" y="234" on="1"/>
      </contour>
    </TTGlyph>
    <TTGlyph name="g" xMin="30" yMin="-228" xMax="515" yMax="441">
      <contour>
        <pt x="145" y="138" on="1"/>
        <pt x="143" y="134" on="0"/>
        <pt x="140" y="123" on="0"/>
        <pt x="140" y="114" on="1"/>
        <pt x="140" y="114" on="0"/>
        <pt x="141" y="99" on="0"/>
        <pt x="150" y="81" on="0"/>
        <pt x="168" y="66" on="0"/>
        <pt x="184" y="66" on="1"/>
        <pt x="195" y="65" on="0"/>
        <pt x="231" y="63" on="0"/>
        <pt x="270" y="63" on="0"/>
        <pt x="306" y="63" on="0"/>
        <pt x="317" y="63" on="1"/>
        <pt x="357" y="62" on="0"/>
        <pt x="424" y="41" on="0"/>
        <pt x="473" y="4" on="0"/>
        <pt x="500" y="-47" on="0"/>
        <pt x="500" y="-80" on="1"/>
        <pt x="500" y="-113" on="0"/>
        <pt x="462" y="-168" on="0"/>
        <pt x="398" y="-207" on="0"/>
        <pt x="313" y="-228" on="0"/>
        <pt x="265" y="-228" on="1"/>
        <pt x="217" y="-228" on="0"/>
        <pt x="132" y="-207" on="0"/>
        <pt x="68" y="-168" on="0"/>
        <pt x="30" y="-113" on="0"/>
        <pt x="30" y="-80" on="1"/>
        <pt x="30" y="-43" on="0"/>
        <pt x="69" y="24" on="0"/>
        <pt x="101" y="42" on="1"/>
        <pt x="92" y="53" on="0"/>
        <pt x="77" y="92" on="0"/>
        <pt x="77" y="114" on="1"/>
        <pt x="77" y="135" on="0"/>
        <pt x="91" y="172" on="0"/>
        <pt x="97" y="182" on="1"/>
        <pt x="81" y="202" on="0"/>
        <pt x="65" y="251" on="0"/>
        <pt x="65" y="275" on="1"/>
        <pt x="65" y="308" on="0"/>
        <pt x="91" y="366" on="0"/>
        <pt x="137" y="410" on="0"/>
        <pt x="200" y="436" on="0"/>
        <pt x="236" y="436" on="1"/>
        <pt x="255" y="436" on="0"/>
        <pt x="288" y="429" on="0"/>
        <pt x="314" y="419" on="0"/>
        <pt x="331" y="409" on="0"/>
        <pt x="334" y="407" on="1"/>
        <pt x="360" y="427" on="0"/>
        <pt x="419" y="441" on="0"/>
        <pt x="439" y="441" on="1"/>
        <pt x="477" y="441" on="0"/>
        <pt x="515" y="405" on="0"/>
        <pt x="515" y="382" on="1"/>
        <pt x="515" y="364" on="0"/>
        <pt x="490" y="339" on="0"/>
        <pt x="472" y="339" on="1"/>
        <pt x="458" y="339" on="0"/>
        <pt x="434" y="356" on="0"/>
        <pt x="429" y="374" on="1"/>
        <pt x="416" y="372" on="0"/>
        <pt x="396" y="368" on="0"/>
        <pt x="381" y="360" on="1"/>
        <pt x="390" y="346" on="0"/>
        <pt x="406" y="301" on="0"/>
        <pt x="406" y="275" on="1"/>
        <pt x="406" y="242" on="0"/>
        <pt x="380" y="184" on="0"/>
        <pt x="334" y="140" on="0"/>
        <pt x="271" y="114" on="0"/>
        <pt x="235" y="114" on="1"/>
        <pt x="205" y="114" on="0"/>
        <pt x="158" y="130" on="0"/>
      </contour>
      <contour>
        <pt x="235" y="179" on="1"/>
        <pt x="255" y="179" on="0"/>
        <pt x="290" y="194" on="0"/>
        <pt x="315" y="221" on="0"/>
        <pt x="330" y="256" on="0"/>
        <pt x="330" y="275" on="1"/>
        <pt x="330" y="295" on="0"/>
        <pt x="315" y="330" on="0"/>
        <pt x="289" y="356" on="0"/>
        <pt x="255" y="371" on="0"/>
        <pt x="235" y="371" on="1"/>
        <pt x="216" y="371" on="0"/>
        <pt x="182" y="356" on="0"/>
        <pt x="156" y="330" on="0"/>
        <pt x="141" y="295" on="0"/>
        <pt x="141" y="275" on="1"/>
        <pt x="141" y="255" on="0"/>
        <pt x="156" y="220" on="0"/>
        <pt x="182" y="194" on="0"/>
        <pt x="216" y="179" on="0"/>
      </contour>
      <contour>
        <pt x="182" y="1" on="1"/>
        <pt x="162" y="1" on="0"/>
        <pt x="129" y="-14" on="0"/>
        <pt x="106" y="-37" on="0"/>
        <pt x="93" y="-65" on="0"/>
        <pt x="93" y="-80" on="1"/>
        <pt x="93" y="-95" on="0"/>
        <pt x="118" y="-125" on="0"/>
        <pt x="164" y="-148" on="0"/>
        <pt x="227" y="-163" on="0"/>
        <pt x="265" y="-163" on="1"/>
        <pt x="303" y="-163" on="0"/>
        <pt x="366" y="-149" on="0"/>
        <pt x="411" y="-125" on="0"/>
        <pt x="437" y="-95" on="0"/>
        <pt x="437" y="-80" on="1"/>
        <pt x="437" y="-50" on="0"/>
        <pt x="399" y="-17" on="0"/>
        <pt x="341" y="-2" on="0"/>
        <pt x="270" y="1" on="0"/>
        <pt x="237" y="1" on="1"/>
      </contour>
    </TTGlyph>
    <TTGlyph name="gamma" xMin="55" yMin="-232" xMax="521" yMax="436">
      <contour>
        <pt x="443" y="402" on="1"/>
        <pt x="451" y="421" on="0"/>
        <pt x="466" y="431" on="0"/>
        <pt x="483" y="431" on="1"/>
        <pt x="499" y="431" on="0"/>
        <pt x="521" y="417" on="0"/>
        <pt x="521" y="400" on="1"/>
        <pt x="521" y="392" on="0"/>
        <pt x="516" y="383" on="1"/>
        <pt x="443" y="211" on="0"/>
        <pt x="372" y="7" on="0"/>
        <pt x="366" y="-25" on="1"/>
        <pt x="363" y="-43" on="0"/>
        <pt x="352" y="-94" on="0"/>
        <pt x="339" y="-146" on="0"/>
        <pt x="325" y="-193" on="0"/>
        <pt x="319" y="-208" on="1"/>
        <pt x="317" y="-214" on="0"/>
        <pt x="300" y="-232" on="0"/>
        <pt x="286" y="-232" on="1"/>
        <pt x="277" y="-232" on="0"/>
        <pt x="253" y="-217" on="0"/>
        <pt x="253" y="-194" on="1"/>
        <pt x="253" y="-182" on="0"/>
        <pt x="265" y="-129" on="0"/>
        <pt x="280" y="-70" on="0"/>
        <pt x="293" y="-21" on="0"/>
        <pt x="295" y="-13" on="1"/>
        <pt x="300" y="5" on="0"/>
        <pt x="306" y="56" on="0"/>
        <pt x="309" y="102" on="0"/>
        <pt x="310" y="137" on="0"/>
        <pt x="310" y="140" on="1"/>
        <pt x="310" y="182" on="0"/>
        <pt x="303" y="255" on="0"/>
        <pt x="298" y="278" on="1"/>
        <pt x="289" y="326" on="0"/>
        <pt x="262" y="362" on="0"/>
        <pt x="238" y="362" on="1"/>
        <pt x="223" y="362" on="0"/>
        <pt x="191" y="350" on="0"/>
        <pt x="162" y="328" on="0"/>
        <pt x="138" y="297" on="0"/>
        <pt x="132" y="278" on="1"/>
        <pt x="127" y="264" on="0"/>
        <pt x="115" y="249" on="0"/>
        <pt x="93" y="249" on="1"/>
        <pt x="90" y="249" on="0"/>
        <pt x="77" y="250" on="0"/>
        <pt x="65" y="256" on="0"/>
        <pt x="55" y="268" on="0"/>
        <pt x="55" y="280" on="1"/>
        <pt x="55" y="296" on="0"/>
        <pt x="81" y="348" on="0"/>
        <pt x="129" y="399" on="0"/>
        <pt x="198" y="436" on="0"/>
        <pt x="241" y="436" on="1"/>
        <pt x="279" y="436" on="0"/>
        <pt x="329" y="402" on="0"/>
        <pt x="361" y="348" on="0"/>
        <pt x="377" y="281" on="0"/>
        <pt x="381" y="248" on="1"/>
        <pt x="382" y="248" on="1"/>
      </contour>
    </TTGlyph>
    <TTGlyph name="greater" xMin="57" yMin="51" xMax="473" yMax="560">
      <contour>
        <pt x="122" y="61" on="1"/>
        <pt x="116" y="57" on="0"/>
        <pt x="103" y="51" on="0"/>
        <pt x="95" y="51" on="1"/>
        <pt x="81" y="51" on="0"/>
        <pt x="57" y="73" on="0"/>
        <pt x="57" y="90" on="1"/>
        <pt x="57" y="106" on="0"/>
        <pt x="74" y="122" on="0"/>
        <pt x="82" y="127" on="1"/>
        <pt x="363" y="306" on="1"/>
        <pt x="82" y="484" on="1"/>
        <pt x="74" y="489" on="0"/>
        <pt x="57" y="505" on="0"/>
        <pt x="57" y="521" on="1"/>
        <pt x="57" y="538" on="0"/>
        <pt x="81" y="560" on="0"/>
        <pt x="95" y="560" on="1"/>
        <pt x="103" y="560" on="0"/>
        <pt x="116" y="554" on="0"/>
        <pt x="122" y="550" on="1"/>
        <pt x="449" y="342" on="1"/>
        <pt x="457" y="337" on="0"/>
        <pt x="473" y="322" on="0"/>
        <pt x="473" y="305" on="1"/>
        <pt x="473" y="289" on="0"/>
        <pt x="456" y="274" on="0"/>
        <pt x="449" y="269" on="1"/>
      </contour>
    </TTGlyph>
    <TTGlyph name="greaterequal" xMin="57" yMin="-25" xMax="473" yMax="634">
      <contour>
        <pt x="123" y="136" on="1"/>
        <pt x="115" y="131" on="0"/>
        <pt x="103" y="126" on="0"/>
        <pt x="96" y="126" on="1"/>
        <pt x="78" y="126" on="0"/>
        <pt x="57" y="150" on="0"/>
        <pt x="57" y="164" on="1"/>
        <pt x="57" y="181" on="0"/>
        <pt x="73" y="196" on="0"/>
        <pt x="81" y="201" on="1"/>
        <pt x="363" y="380" on="1"/>
        <pt x="81" y="559" on="1"/>
        <pt x="74" y="564" on="0"/>
        <pt x="57" y="579" on="0"/>
        <pt x="57" y="595" on="1"/>
        <pt x="57" y="613" on="0"/>
        <pt x="81" y="634" on="0"/>
        <pt x="95" y="634" on="1"/>
        <pt x="98" y="634" on="0"/>
        <pt x="112" y="631" on="0"/>
        <pt x="125" y="623" on="1"/>
        <pt x="448" y="417" on="1"/>
        <pt x="456" y="412" on="0"/>
        <pt x="473" y="396" on="0"/>
        <pt x="473" y="380" on="1"/>
        <pt x="473" y="364" on="0"/>
        <pt x="456" y="348" on="0"/>
        <pt x="448" y="343" on="1"/>
      </contour>
      <contour>
        <pt x="109" y="-25" on="1"/>
        <pt x="104" y="-25" on="0"/>
        <pt x="86" y="-24" on="0"/>
        <pt x="69" y="-17" on="0"/>
        <pt x="57" y="-1" on="0"/>
        <pt x="57" y="13" on="1"/>
        <pt x="57" y="28" on="0"/>
        <pt x="69" y="43" on="0"/>
        <pt x="86" y="51" on="0"/>
        <pt x="104" y="52" on="0"/>
        <pt x="109" y="52" on="1"/>
        <pt x="421" y="52" on="1"/>
        <pt x="426" y="52" on="0"/>
        <pt x="444" y="51" on="0"/>
        <pt x="461" y="43" on="0"/>
        <pt x="473" y="28" on="0"/>
        <pt x="473" y="13" on="1"/>
        <pt x="473" y="-1" on="0"/>
        <pt x="461" y="-17" on="0"/>
        <pt x="444" y="-24" on="0"/>
        <pt x="426" y="-25" on="0"/>
        <pt x="421" y="-25" on="1"/>
      </contour>
    </TTGlyph>
    <TTGlyph name="h" xMin="11" yMin="0" xMax="519" yMax="611">
      <contour>
        <pt x="435" y="66" on="1"/>
        <pt x="474" y="66" on="1"/>
        <pt x="481" y="66" on="0"/>
        <pt x="497" y="65" on="0"/>
        <pt x="510" y="59" on="0"/>
        <pt x="519" y="45" on="0"/>
        <pt x="519" y="33" on="1"/>
        <pt x="519" y="21" on="0"/>
        <pt x="510" y="7" on="0"/>
        <pt x="497" y="1" on="0"/>
        <pt x="481" y="0" on="0"/>
        <pt x="474" y="0" on="1"/>
        <pt x="328" y="0" on="1"/>
        <pt x="322" y="0" on="0"/>
        <pt x="306" y="1" on="0"/>
        <pt x="292" y="7" on="0"/>
        <pt x="283" y="21" on="0"/>
        <pt x="283" y="33" on="1"/>
        <pt x="283" y="45" on="0"/>
        <pt x="292" y="59" on="0"/>
        <pt x="306" y="65" on="0"/>
        <pt x="322" y="66" on="0"/>
        <pt x="328" y="66" on="1"/>
        <pt x="359" y="66" on="1"/>
        <pt x="359" y="287" on="1"/>
        <pt x="359" y="331" on="0"/>
        <pt x="335" y="370" on="0"/>
        <pt x="298" y="370" on="1"/>
        <pt x="282" y="370" on="0"/>
        <pt x="238" y="357" on="0"/>
        <pt x="198" y="327" on="0"/>
        <pt x="171" y="275" on="0"/>
        <pt x="171" y="236" on="1"/>
        <pt x="171" y="66" on="1"/>
        <pt x="210" y="66" on="1"/>
        <pt x="217" y="66" on="0"/>
        <pt x="233" y="65" on="0"/>
        <pt x="246" y="59" on="0"/>
        <pt x="255" y="45" on="0"/>
        <pt x="255" y="33" on="1"/>
        <pt x="255" y="21" on="0"/>
        <pt x="246" y="7" on="0"/>
        <pt x="233" y="1" on="0"/>
        <pt x="217" y="0" on="0"/>
        <pt x="210" y="0" on="1"/>
        <pt x="56" y="0" on="1"/>
        <pt x="49" y="0" on="0"/>
        <pt x="34" y="1" on="0"/>
        <pt x="20" y="7" on="0"/>
        <pt x="11" y="21" on="0"/>
        <pt x="11" y="33" on="1"/>
        <pt x="11" y="45" on="0"/>
        <pt x="20" y="59" on="0"/>
        <pt x="33" y="65" on="0"/>
        <pt x="49" y="66" on="0"/>
        <pt x="56" y="66" on="1"/>
        <pt x="95" y="66" on="1"/>
        <pt x="95" y="545" on="1"/>
        <pt x="56" y="545" on="1"/>
        <pt x="49" y="545" on="0"/>
        <pt x="34" y="546" on="0"/>
        <pt x="20" y="552" on="0"/>
        <pt x="11" y="566" on="0"/>
        <pt x="11" y="578" on="1"/>
        <pt x="11" y="590" on="0"/>
        <pt x="20" y="604" on="0"/>
        <pt x="33" y="610" on="0"/>
        <pt x="49" y="611" on="0"/>
        <pt x="56" y="611" on="1"/>
        <pt x="126" y="611" on="1"/>
        <pt x="153" y="611" on="0"/>
        <pt x="171" y="594" on="0"/>
        <pt x="171" y="566" on="1"/>
        <pt x="171" y="386" on="1"/>
        <pt x="175" y="390" on="0"/>
        <pt x="196" y="406" on="0"/>
        <pt x="230" y="423" on="0"/>
        <pt x="275" y="436" on="0"/>
        <pt x="303" y="436" on="1"/>
        <pt x="341" y="436" on="0"/>
        <pt x="392" y="413" on="0"/>
        <pt x="422" y="372" on="0"/>
        <pt x="435" y="319" on="0"/>
        <pt x="435" y="289" on="1"/>
      </contour>
    </TTGlyph>
    <TTGlyph name="hyphen" xMin="57" yMin="267" xMax="473" yMax="344">
      <contour>
        <pt x="109" y="267" on="1"/>
        <pt x="103" y="267" on="0"/>
        <pt x="86" y="268" on="0"/>
        <pt x="69" y="276" on="0"/>
        <pt x="57" y="291" on="0"/>
        <pt x="57" y="306" on="1"/>
        <pt x="57" y="320" on="0"/>
        <pt x="69" y="336" on="0"/>
        <pt x="86" y="343" on="0"/>
        <pt x="104" y="344" on="0"/>
        <pt x="109" y="344" on="1"/>
        <pt x="421" y="344" on="1"/>
        <pt x="426" y="344" on="0"/>
        <pt x="444" y="343" on="0"/>
        <pt x="461" y="336" on="0"/>
        <pt x="473" y="320" on="0"/>
        <pt x="473" y="306" on="1"/>
        <pt x="473" y="291" on="0"/>
        <pt x="461" y="276" on="0"/>
        <pt x="444" y="268" on="0"/>
        <pt x="427" y="267" on="0"/>
        <pt x="421" y="267" on="1"/>
      </contour>
    </TTGlyph>
    <TTGlyph name="i" xMin="79" yMin="0" xMax="461" yMax="612">
      <contour>
        <pt x="316" y="558" on="1"/>
        <pt x="316" y="535" on="0"/>
        <pt x="285" y="504" on="0"/>
        <pt x="262" y="504" on="1"/>
        <pt x="239" y="504" on="0"/>
        <pt x="208" y="535" on="0"/>
        <pt x="208" y="558" on="1"/>
        <pt x="208" y="581" on="0"/>
        <pt x="239" y="612" on="0"/>
        <pt x="262" y="612" on="1"/>
        <pt x="285" y="612" on="0"/>
        <pt x="316" y="581" on="0"/>
      </contour>
      <contour>
        <pt x="271" y="431" on="1"/>
        <pt x="298" y="431" on="0"/>
        <pt x="316" y="414" on="0"/>
        <pt x="316" y="386" on="1"/>
        <pt x="316" y="66" on="1"/>
        <pt x="415" y="66" on="1"/>
        <pt x="421" y="66" on="0"/>
        <pt x="437" y="65" on="0"/>
        <pt x="451" y="59" on="0"/>
        <pt x="461" y="45" on="0"/>
        <pt x="461" y="33" on="1"/>
        <pt x="461" y="21" on="0"/>
        <pt x="451" y="7" on="0"/>
        <pt x="437" y="1" on="0"/>
        <pt x="421" y="0" on="0"/>
        <pt x="415" y="0" on="1"/>
        <pt x="125" y="0" on="1"/>
        <pt x="119" y="0" on="0"/>
        <pt x="103" y="1" on="0"/>
        <pt x="89" y="7" on="0"/>
        <pt x="79" y="21" on="0"/>
        <pt x="79" y="33" on="1"/>
        <pt x="79" y="45" on="0"/>
        <pt x="89" y="59" on="0"/>
        <pt x="103" y="65" on="0"/>
        <pt x="119" y="66" on="0"/>
        <pt x="125" y="66" on="1"/>
        <pt x="240" y="66" on="1"/>
        <pt x="240" y="365" on="1"/>
        <pt x="133" y="365" on="1"/>
        <pt x="127" y="365" on="0"/>
        <pt x="111" y="366" on="0"/>
        <pt x="97" y="372" on="0"/>
        <pt x="87" y="386" on="0"/>
        <pt x="87" y="398" on="1"/>
        <pt x="87" y="410" on="0"/>
        <pt x="97" y="424" on="0"/>
        <pt x="111" y="430" on="0"/>
        <pt x="127" y="431" on="0"/>
        <pt x="133" y="431" on="1"/>
      </contour>
    </TTGlyph>
    <TTGlyph name="infinity" xMin="30" yMin="-5" xMax="500" yMax="436">
      <contour>
        <pt x="274" y="375" on="1"/>
        <pt x="287" y="395" on="0"/>
        <pt x="316" y="418" on="0"/>
        <pt x="346" y="432" on="0"/>
        <pt x="373" y="436" on="0"/>
        <pt x="383" y="436" on="1"/>
        <pt x="427" y="436" on="0"/>
        <pt x="474" y="387" on="0"/>
        <pt x="496" y="317" on="0"/>
        <pt x="500" y="242" on="0"/>
        <pt x="500" y="216" on="1"/>
        <pt x="500" y="188" on="0"/>
        <pt x="495" y="111" on="0"/>
        <pt x="473" y="43" on="0"/>
        <pt x="425" y="-5" on="0"/>
        <pt x="381" y="-5" on="1"/>
        <pt x="356" y="-5" on="0"/>
        <pt x="313" y="9" on="0"/>
        <pt x="282" y="29" on="0"/>
        <pt x="261" y="50" on="0"/>
        <pt x="256" y="56" on="1"/>
        <pt x="243" y="37" on="0"/>
        <pt x="214" y="13" on="0"/>
        <pt x="184" y="-1" on="0"/>
        <pt x="157" y="-5" on="0"/>
        <pt x="147" y="-5" on="1"/>
        <pt x="104" y="-5" on="0"/>
        <pt x="56" y="44" on="0"/>
        <pt x="34" y="114" on="0"/>
        <pt x="30" y="189" on="0"/>
        <pt x="30" y="215" on="1"/>
        <pt x="30" y="244" on="0"/>
        <pt x="35" y="320" on="0"/>
        <pt x="57" y="388" on="0"/>
        <pt x="106" y="436" on="0"/>
        <pt x="149" y="436" on="1"/>
        <pt x="175" y="436" on="0"/>
        <pt x="217" y="422" on="0"/>
        <pt x="248" y="402" on="0"/>
        <pt x="270" y="381" on="0"/>
      </contour>
      <contour>
        <pt x="303" y="155" on="1"/>
        <pt x="303" y="121" on="0"/>
        <pt x="327" y="83" on="0"/>
        <pt x="356" y="66" on="0"/>
        <pt x="381" y="63" on="0"/>
        <pt x="382" y="63" on="1"/>
        <pt x="411" y="63" on="0"/>
        <pt x="434" y="138" on="0"/>
        <pt x="434" y="217" on="1"/>
        <pt x="434" y="265" on="0"/>
        <pt x="427" y="324" on="0"/>
        <pt x="413" y="358" on="0"/>
        <pt x="395" y="370" on="0"/>
        <pt x="384" y="370" on="1"/>
        <pt x="363" y="370" on="0"/>
        <pt x="333" y="346" on="0"/>
        <pt x="313" y="308" on="0"/>
        <pt x="303" y="265" on="0"/>
        <pt x="303" y="245" on="1"/>
      </contour>
      <contour>
        <pt x="227" y="276" on="1"/>
        <pt x="227" y="311" on="0"/>
        <pt x="203" y="348" on="0"/>
        <pt x="174" y="365" on="0"/>
        <pt x="149" y="368" on="0"/>
        <pt x="148" y="368" on="1"/>
        <pt x="119" y="368" on="0"/>
        <pt x="96" y="293" on="0"/>
        <pt x="96" y="214" on="1"/>
        <pt x="96" y="166" on="0"/>
        <pt x="103" y="107" on="0"/>
        <pt x="117" y="73" on="0"/>
        <pt x="135" y="61" on="0"/>
        <pt x="146" y="61" on="1"/>
        <pt x="167" y="61" on="0"/>
        <pt x="197" y="85" on="0"/>
        <pt x="217" y="123" on="0"/>
        <pt x="227" y="167" on="0"/>
        <pt x="227" y="186" on="1"/>
      </contour>
    </TTGlyph>
    <TTGlyph name="integral" xMin="56" yMin="-232" xMax="474" yMax="621">
      <contour>
        <pt x="261" y="-74" on="1"/>
        <pt x="258" y="-90" on="0"/>
        <pt x="244" y="-144" on="0"/>
        <pt x="216" y="-195" on="0"/>
        <pt x="170" y="-232" on="0"/>
        <pt x="135" y="-232" on="1"/>
        <pt x="108" y="-232" on="0"/>
        <pt x="77" y="-205" on="0"/>
        <pt x="61" y="-168" on="0"/>
        <pt x="56" y="-127" on="0"/>
        <pt x="56" y="-113" on="1"/>
        <pt x="56" y="-84" on="0"/>
        <pt x="84" y="-68" on="0"/>
        <pt x="94" y="-68" on="1"/>
        <pt x="108" y="-68" on="0"/>
        <pt x="124" y="-80" on="0"/>
        <pt x="131" y="-96" on="0"/>
        <pt x="132" y="-113" on="0"/>
        <pt x="132" y="-118" on="1"/>
        <pt x="132" y="-119" on="0"/>
        <pt x="132" y="-134" on="0"/>
        <pt x="134" y="-151" on="0"/>
        <pt x="136" y="-165" on="0"/>
        <pt x="139" y="-165" on="1"/>
        <pt x="151" y="-165" on="0"/>
        <pt x="168" y="-136" on="0"/>
        <pt x="179" y="-100" on="0"/>
        <pt x="185" y="-69" on="0"/>
        <pt x="185" y="-68" on="1"/>
        <pt x="269" y="463" on="1"/>
        <pt x="272" y="479" on="0"/>
        <pt x="286" y="533" on="0"/>
        <pt x="314" y="584" on="0"/>
        <pt x="361" y="621" on="0"/>
        <pt x="395" y="621" on="1"/>
        <pt x="422" y="621" on="0"/>
        <pt x="453" y="594" on="0"/>
        <pt x="469" y="557" on="0"/>
        <pt x="474" y="516" on="0"/>
        <pt x="474" y="502" on="1"/>
        <pt x="474" y="473" on="0"/>
        <pt x="446" y="457" on="0"/>
        <pt x="436" y="457" on="1"/>
        <pt x="422" y="457" on="0"/>
        <pt x="406" y="469" on="0"/>
        <pt x="399" y="485" on="0"/>
        <pt x="398" y="501" on="0"/>
        <pt x="398" y="505" on="1"/>
        <pt x="398" y="527" on="0"/>
        <pt x="395" y="544" on="0"/>
        <pt x="393" y="555" on="1"/>
        <pt x="389" y="554" on="0"/>
        <pt x="376" y="547" on="0"/>
        <pt x="363" y="528" on="0"/>
        <pt x="350" y="490" on="0"/>
        <pt x="345" y="457" on="1"/>
      </contour>
    </TTGlyph>
    <TTGlyph name="intersection" xMin="44" yMin="-10" xMax="486" yMax="538">
      <contour>
        <pt x="486" y="42" on="1"/>
        <pt x="486" y="36" on="0"/>
        <pt x="485" y="19" on="0"/>
        <pt x="477" y="2" on="0"/>
        <pt x="462" y="-10" on="0"/>
        <pt x="447" y="-10" on="1"/>
        <pt x="433" y="-10" on="0"/>
        <pt x="417" y="2" on="0"/>
        <pt x="410" y="19" on="0"/>
        <pt x="409" y="37" on="0"/>
        <pt x="409" y="42" on="1"/>
        <pt x="409" y="333" on="1"/>
        <pt x="409" y="374" on="0"/>
        <pt x="375" y="424" on="0"/>
        <pt x="329" y="451" on="0"/>
        <pt x="280" y="461" on="0"/>
        <pt x="265" y="461" on="1"/>
        <pt x="243" y="461" on="0"/>
        <pt x="191" y="448" on="0"/>
        <pt x="164" y="427" on="1"/>
        <pt x="148" y="415" on="0"/>
        <pt x="130" y="388" on="0"/>
        <pt x="122" y="362" on="0"/>
        <pt x="121" y="341" on="0"/>
        <pt x="121" y="333" on="1"/>
        <pt x="121" y="42" on="1"/>
        <pt x="121" y="36" on="0"/>
        <pt x="120" y="19" on="0"/>
        <pt x="112" y="2" on="0"/>
        <pt x="97" y="-10" on="0"/>
        <pt x="82" y="-10" on="1"/>
        <pt x="68" y="-10" on="0"/>
        <pt x="52" y="2" on="0"/>
        <pt x="45" y="19" on="0"/>
        <pt x="44" y="37" on="0"/>
        <pt x="44" y="42" on="1"/>
        <pt x="44" y="337" on="1"/>
        <pt x="44" y="387" on="0"/>
        <pt x="84" y="462" on="0"/>
        <pt x="147" y="513" on="0"/>
        <pt x="226" y="538" on="0"/>
        <pt x="265" y="538" on="1"/>
        <pt x="304" y="538" on="0"/>
        <pt x="382" y="513" on="0"/>
        <pt x="446" y="463" on="0"/>
        <pt x="486" y="387" on="0"/>
        <pt x="486" y="337" on="1"/>
      </contour>
    </TTGlyph>
    <TTGlyph name="j" xMin="48" yMin="-227" xMax="375" yMax="612">
      <contour>
        <pt x="375" y="558" on="1"/>
        <pt x="375" y="535" on="0"/>
        <pt x="344" y="504" on="0"/>
        <pt x="321" y="504" on="1"/>
        <pt x="298" y="504" on="0"/>
        <pt x="267" y="535" on="0"/>
        <pt x="267" y="558" on="1"/>
        <pt x="267" y="581" on="0"/>
        <pt x="298" y="612" on="0"/>
        <pt x="321" y="612" on="1"/>
        <pt x="344" y="612" on="0"/>
        <pt x="375" y="581" on="0"/>
      </contour>
      <contour>
        <pt x="330" y="431" on="1"/>
        <pt x="357" y="431" on="0"/>
        <pt x="375" y="414" on="0"/>
        <pt x="375" y="386" on="1"/>
        <pt x="375" y="-37" on="1"/>
        <pt x="375" y="-45" on="0"/>
        <pt x="374" y="-73" on="0"/>
        <pt x="365" y="-109" on="0"/>
        <pt x="346" y="-150" on="0"/>
        <pt x="329" y="-170" on="1"/>
        <pt x="310" y="-191" on="0"/>
        <pt x="271" y="-215" on="0"/>
        <pt x="234" y="-225" on="0"/>
        <pt x="202" y="-227" on="0"/>
        <pt x="191" y="-227" on="1"/>
        <pt x="176" y="-227" on="0"/>
        <pt x="127" y="-225" on="0"/>
        <pt x="81" y="-210" on="0"/>
        <pt x="48" y="-178" on="0"/>
        <pt x="48" y="-148" on="1"/>
        <pt x="48" y="-122" on="0"/>
        <pt x="80" y="-98" on="0"/>
        <pt x="97" y="-98" on="1"/>
        <pt x="98" y="-98" on="0"/>
        <pt x="122" y="-102" on="0"/>
        <pt x="133" y="-115" on="1"/>
        <pt x="141" y="-124" on="0"/>
        <pt x="144" y="-140" on="0"/>
        <pt x="144" y="-158" on="1"/>
        <pt x="163" y="-160" on="0"/>
        <pt x="189" y="-161" on="0"/>
        <pt x="195" y="-161" on="1"/>
        <pt x="212" y="-161" on="0"/>
        <pt x="254" y="-152" on="0"/>
        <pt x="273" y="-126" on="1"/>
        <pt x="293" y="-99" on="0"/>
        <pt x="299" y="-49" on="0"/>
        <pt x="299" y="-35" on="1"/>
        <pt x="299" y="365" on="1"/>
        <pt x="176" y="365" on="1"/>
        <pt x="170" y="365" on="0"/>
        <pt x="154" y="366" on="0"/>
        <pt x="140" y="372" on="0"/>
        <pt x="130" y="386" on="0"/>
        <pt x="130" y="398" on="1"/>
        <pt x="130" y="410" on="0"/>
        <pt x="140" y="424" on="0"/>
        <pt x="154" y="430" on="0"/>
        <pt x="170" y="431" on="0"/>
        <pt x="176" y="431" on="1"/>
      </contour>
    </TTGlyph>
    <TTGlyph name="k" xMin="20" yMin="0" xMax="513" yMax="611">
      <contour>
        <pt x="441" y="66" on="1"/>
        <pt x="468" y="66" on="1"/>
        <pt x="475" y="66" on="0"/>
        <pt x="491" y="65" on="0"/>
        <pt x="504" y="59" on="0"/>
        <pt x="513" y="45" on="0"/>
        <pt x="513" y="33" on="1"/>
        <pt x="513" y="21" on="0"/>
        <pt x="504" y="7" on="0"/>
        <pt x="491" y="1" on="0"/>
        <pt x="475" y="0" on="0"/>
        <pt x="468" y="0" on="1"/>
        <pt x="355" y="0" on="1"/>
        <pt x="349" y="0" on="0"/>
        <pt x="333" y="1" on="0"/>
        <pt x="319" y="7" on="0"/>
        <pt x="309" y="21" on="0"/>
        <pt x="309" y="33" on="1"/>
        <pt x="309" y="45" on="0"/>
        <pt x="318" y="59" on="0"/>
        <pt x="333" y="65" on="0"/>
        <pt x="352" y="66" on="0"/>
        <pt x="362" y="66" on="1"/>
        <pt x="249" y="211" on="1"/>
        <pt x="171" y="139" on="1"/>
        <pt x="171" y="66" on="1"/>
        <pt x="214" y="66" on="1"/>
        <pt x="220" y="66" on="0"/>
        <pt x="236" y="65" on="0"/>
        <pt x="250" y="59" on="0"/>
        <pt x="260" y="45" on="0"/>
        <pt x="260" y="33" on="1"/>
        <pt x="260" y="21" on="0"/>
        <pt x="250" y="7" on="0"/>
        <pt x="236" y="1" on="0"/>
        <pt x="220" y="0" on="0"/>
        <pt x="214" y="0" on="1"/>
        <pt x="66" y="0" on="1"/>
        <pt x="60" y="0" on="0"/>
        <pt x="44" y="1" on="0"/>
        <pt x="30" y="7" on="0"/>
        <pt x="20" y="21" on="0"/>
        <pt x="20" y="33" on="1"/>
        <pt x="20" y="45" on="0"/>
        <pt x="30" y="59" on="0"/>
        <pt x="44" y="65" on="0"/>
        <pt x="60" y="66" on="0"/>
        <pt x="66" y="66" on="1"/>
        <pt x="109" y="66" on="1"/>
        <pt x="109" y="545" on="1"/>
        <pt x="66" y="545" on="1"/>
        <pt x="60" y="545" on="0"/>
        <pt x="44" y="546" on="0"/>
        <pt x="30" y="552" on="0"/>
        <pt x="20" y="566" on="0"/>
        <pt x="20" y="578" on="1"/>
        <pt x="20" y="590" on="0"/>
        <pt x="30" y="604" on="0"/>
        <pt x="44" y="610" on="0"/>
        <pt x="60" y="611" on="0"/>
        <pt x="66" y="611" on="1"/>
        <pt x="126" y="611" on="1"/>
        <pt x="153" y="611" on="0"/>
        <pt x="171" y="594" on="0"/>
        <pt x="171" y="566" on="1"/>
        <pt x="171" y="224" on="1"/>
        <pt x="323" y="365" on="1"/>
        <pt x="297" y="365" on="1"/>
        <pt x="290" y="365" on="0"/>
        <pt x="275" y="366" on="0"/>
        <pt x="261" y="372" on="0"/>
        <pt x="252" y="386" on="0"/>
        <pt x="252" y="398" on="1"/>
        <pt x="252" y="410" on="0"/>
        <pt x="261" y="424" on="0"/>
        <pt x="274" y="430" on="0"/>
        <pt x="290" y="431" on="0"/>
        <pt x="297" y="431" on="1"/>
        <pt x="446" y="431" on="1"/>
        <pt x="453" y="431" on="0"/>
        <pt x="469" y="430" on="0"/>
        <pt x="482" y="424" on="0"/>
        <pt x="491" y="410" on="0"/>
        <pt x="491" y="398" on="1"/>
        <pt x="491" y="386" on="0"/>
        <pt x="482" y="372" on="0"/>
        <pt x="469" y="366" on="0"/>
        <pt x="453" y="365" on="0"/>
        <pt x="446" y="365" on="1"/>
        <pt x="415" y="365" on="1"/>
        <pt x="295" y="253" on="1"/>
      </contour>
    </TTGlyph>
    <TTGlyph name="l" xMin="58" yMin="0" xMax="472" yMax="611">
      <contour>
        <pt x="303" y="66" on="1"/>
        <pt x="426" y="66" on="1"/>
        <pt x="432" y="66" on="0"/>
        <pt x="448" y="65" on="0"/>
        <pt x="462" y="59" on="0"/>
        <pt x="472" y="45" on="0"/>
        <pt x="472" y="33" on="1"/>
        <pt x="472" y="21" on="0"/>
        <pt x="462" y="7" on="0"/>
        <pt x="448" y="1" on="0"/>
        <pt x="432" y="0" on="0"/>
        <pt x="426" y="0" on="1"/>
        <pt x="104" y="0" on="1"/>
        <pt x="98" y="0" on="0"/>
        <pt x="82" y="1" on="0"/>
        <pt x="68" y="7" on="0"/>
        <pt x="58" y="21" on="0"/>
        <pt x="58" y="33" on="1"/>
        <pt x="58" y="45" on="0"/>
        <pt x="68" y="59" on="0"/>
        <pt x="82" y="65" on="0"/>
        <pt x="98" y="66" on="0"/>
        <pt x="104" y="66" on="1"/>
        <pt x="227" y="66" on="1"/>
        <pt x="227" y="545" on="1"/>
        <pt x="104" y="545" on="1"/>
        <pt x="98" y="545" on="0"/>
        <pt x="82" y="546" on="0"/>
        <pt x="68" y="552" on="0"/>
        <pt x="58" y="566" on="0"/>
        <pt x="58" y="578" on="1"/>
        <pt x="58" y="590" on="0"/>
        <pt x="68" y="604" on="0"/>
        <pt x="82" y="610" on="0"/>
        <pt x="98" y="611" on="0"/>
        <pt x="104" y="611" on="1"/>
        <pt x="258" y="611" on="1"/>
        <pt x="285" y="611" on="0"/>
        <pt x="303" y="594" on="0"/>
        <pt x="303" y="566" on="1"/>
      </contour>
    </TTGlyph>
    <TTGlyph name="lambda" xMin="46" yMin="-5" xMax="495" yMax="611">
      <contour>
        <pt x="477" y="55" on="1"/>
        <pt x="482" y="53" on="0"/>
        <pt x="495" y="42" on="0"/>
        <pt x="495" y="26" on="1"/>
        <pt x="495" y="14" on="0"/>
        <pt x="485" y="2" on="0"/>
        <pt x="473" y="-4" on="0"/>
        <pt x="460" y="-5" on="0"/>
        <pt x="457" y="-5" on="1"/>
        <pt x="423" y="-5" on="0"/>
        <pt x="407" y="20" on="1"/>
        <pt x="404" y="25" on="0"/>
        <pt x="392" y="63" on="0"/>
        <pt x="373" y="124" on="0"/>
        <pt x="348" y="205" on="0"/>
        <pt x="332" y="251" on="1"/>
        <pt x="117" y="13" on="1"/>
        <pt x="106" y="1" on="0"/>
        <pt x="89" y="-5" on="0"/>
        <pt x="83" y="-5" on="1"/>
        <pt x="66" y="-5" on="0"/>
        <pt x="46" y="17" on="0"/>
        <pt x="46" y="31" on="1"/>
        <pt x="46" y="42" on="0"/>
        <pt x="53" y="53" on="0"/>
        <pt x="62" y="63" on="1"/>
        <pt x="307" y="332" on="1"/>
        <pt x="246" y="527" on="1"/>
        <pt x="242" y="541" on="0"/>
        <pt x="222" y="545" on="0"/>
        <pt x="195" y="545" on="1"/>
        <pt x="189" y="545" on="0"/>
        <pt x="172" y="546" on="0"/>
        <pt x="157" y="552" on="0"/>
        <pt x="147" y="566" on="0"/>
        <pt x="147" y="578" on="1"/>
        <pt x="147" y="595" on="0"/>
        <pt x="159" y="604" on="1"/>
        <pt x="166" y="609" on="0"/>
        <pt x="185" y="611" on="0"/>
        <pt x="198" y="611" on="1"/>
        <pt x="236" y="611" on="0"/>
        <pt x="280" y="602" on="0"/>
        <pt x="304" y="588" on="0"/>
        <pt x="313" y="570" on="0"/>
        <pt x="316" y="561" on="1"/>
      </contour>
    </TTGlyph>
    <TTGlyph name="less" xMin="57" yMin="51" xMax="473" yMax="560">
      <contour>
        <pt x="448" y="127" on="1"/>
        <pt x="456" y="122" on="0"/>
        <pt x="473" y="106" on="0"/>
        <pt x="473" y="90" on="1"/>
        <pt x="473" y="73" on="0"/>
        <pt x="449" y="51" on="0"/>
        <pt x="435" y="51" on="1"/>
        <pt x="433" y="51" on="0"/>
        <pt x="432" y="52" on="1"/>
        <pt x="424" y="54" on="0"/>
        <pt x="415" y="56" on="0"/>
        <pt x="404" y="64" on="1"/>
        <pt x="81" y="269" on="1"/>
        <pt x="73" y="274" on="0"/>
        <pt x="57" y="289" on="0"/>
        <pt x="57" y="306" on="1"/>
        <pt x="57" y="322" on="0"/>
        <pt x="74" y="337" on="0"/>
        <pt x="81" y="342" on="1"/>
        <pt x="404" y="548" on="1"/>
        <pt x="418" y="557" on="0"/>
        <pt x="433" y="560" on="0"/>
        <pt x="435" y="560" on="1"/>
        <pt x="449" y="560" on="0"/>
        <pt x="473" y="538" on="0"/>
        <pt x="473" y="521" on="1"/>
        <pt x="473" y="505" on="0"/>
        <pt x="456" y="489" on="0"/>
        <pt x="448" y="484" on="1"/>
        <pt x="167" y="305" on="1"/>
      </contour>
    </TTGlyph>
    <TTGlyph name="lessequal" xMin="57" yMin="-25" xMax="473" yMax="634">
      <contour>
        <pt x="449" y="201" on="1"/>
        <pt x="457" y="196" on="0"/>
        <pt x="473" y="181" on="0"/>
        <pt x="473" y="164" on="1"/>
        <pt x="473" y="150" on="0"/>
        <pt x="452" y="126" on="0"/>
        <pt x="434" y="126" on="1"/>
        <pt x="426" y="126" on="0"/>
        <pt x="418" y="130" on="0"/>
        <pt x="407" y="137" on="1"/>
        <pt x="82" y="343" on="1"/>
        <pt x="74" y="348" on="0"/>
        <pt x="57" y="364" on="0"/>
        <pt x="57" y="380" on="1"/>
        <pt x="57" y="396" on="0"/>
        <pt x="74" y="412" on="0"/>
        <pt x="82" y="417" on="1"/>
        <pt x="405" y="623" on="1"/>
        <pt x="418" y="631" on="0"/>
        <pt x="432" y="634" on="0"/>
        <pt x="435" y="634" on="1"/>
        <pt x="449" y="634" on="0"/>
        <pt x="473" y="613" on="0"/>
        <pt x="473" y="595" on="1"/>
        <pt x="473" y="579" on="0"/>
        <pt x="456" y="564" on="0"/>
        <pt x="449" y="559" on="1"/>
        <pt x="167" y="380" on="1"/>
      </contour>
      <contour>
        <pt x="421" y="52" on="1"/>
        <pt x="426" y="52" on="0"/>
        <pt x="444" y="51" on="0"/>
        <pt x="461" y="43" on="0"/>
        <pt x="473" y="28" on="0"/>
        <pt x="473" y="13" on="1"/>
        <pt x="473" y="-1" on="0"/>
        <pt x="461" y="-17" on="0"/>
        <pt x="444" y="-24" on="0"/>
        <pt x="426" y="-25" on="0"/>
        <pt x="421" y="-25" on="1"/>
        <pt x="109" y="-25" on="1"/>
        <pt x="104" y="-25" on="0"/>
        <pt x="86" y="-24" on="0"/>
        <pt x="69" y="-17" on="0"/>
        <pt x="57" y="-1" on="0"/>
        <pt x="57" y="13" on="1"/>
        <pt x="57" y="28" on="0"/>
        <pt x="69" y="43" on="0"/>
        <pt x="86" y="51" on="0"/>
        <pt x="104" y="52" on="0"/>
        <pt x="109" y="52" on="1"/>
      </contour>
    </TTGlyph>
</ttFont>
